<?xml version="1.0" encoding="utf-8"?>
<!-- Generator: Adobe Illustrator 20.1.0, SVG Export Plug-In . SVG Version: 6.00 Build 0)  -->
<svg version="1.1" id="Layer_1" xmlns="http://www.w3.org/2000/svg" xmlns:xlink="http://www.w3.org/1999/xlink" x="0px" y="0px"
	 viewBox="0 0 600 600" style="enable-background:new 0 0 600 600;" xml:space="preserve">
<style type="text/css">
	.st0{fill:#E8E8E8;}
	.st1{fill:#FFFFFF;}
	.st2{fill:#AEAEAE;}
	.st3{fill:#5E5C5D;}
	.st4{fill:#B5B5B5;}
	.st5{fill:#222021;}
	.st6{fill:#4E4D4D;}
	.st7{fill:#575656;}
	.st8{fill:#3D3B3C;}
	.st9{fill:#E3E3E3;}
	.st10{opacity:0.5;fill:#FFFFFF;enable-background:new    ;}
	.st11{opacity:0.3;fill:#FFFFFF;enable-background:new    ;}
</style>
<g>
	<g>
		<path id="XMLID_387_" class="st0" d="M289.9,342.2c-4.9-0.1-9.7-0.1-14.6-0.3c-0.7,2.6-0.7,5.1-0.4,7.8c0.1,1.5,0.7,3,0.7,4.4
			c5.7,0.3,11.2,0.5,16.8,0.7c-0.8-1.9-1.1-4.3-1.2-5.8c-0.3-2.2-0.4-4.7,0.5-6.7C291.2,342.2,290.5,342.2,289.9,342.2z"/>
		<path id="XMLID_386_" class="st0" d="M309.7,341.9c-5.3,1.1-10.8,0.7-16.2,0.4c-1.3,2.6-0.9,5.7-0.4,8.5c0.3,1.2,0.9,2.7,1.2,4
			c5.1,0,10.2-0.1,15.4-0.7c0.4,0,0.7,0,1.1-0.1C308.6,350.8,308.6,345.7,309.7,341.9L309.7,341.9z"/>
		<path id="XMLID_385_" class="st0" d="M326,347.4c-0.1-2-0.7-3.9-0.7-5.9c-4.9,0.3-9.6,0.4-14.4,0.4c-0.4,2.4-0.4,4.9,0,7.1
			c0.3,1.6,0.9,3.2,1.1,4.9c4.7-0.4,9.3-0.9,14-1.3C325.8,350.9,326.1,349.1,326,347.4z"/>
		<path id="XMLID_384_" class="st0" d="M385.1,270.7c1.1,3.9,2.6,7.8,4.6,11.3c1.9,0.3,3.8,0,5.5-0.7c1.3-0.5,2.7-1.2,3.6-2.3
			c0.5-0.5,0.8-1.1,1.2-1.5c-1.5-2.8-2.7-5.9-3.5-9C394.1,271.5,389,271.7,385.1,270.7z"/>
		<path id="XMLID_383_" class="st0" d="M243.4,338.3c-0.9,2-1.2,4.3-1.1,6.6c0,2.2,0.7,4,1.1,6.1c4.7,0.5,9.4,1.2,14.3,2.2
			c-1.5-3.8-1.3-8.6-0.1-12.4C252.7,339.9,248,339.1,243.4,338.3z"/>
		<path id="XMLID_382_" class="st1" d="M286.5,396.9c-3.2-3.4-5.9-7.1-8.2-11.2c-0.8-0.4-1.5-1.1-2.3-1.6c-1.1-0.8-2.2-1.3-3.4-2
			c-1.8-0.8-3.5-1.6-5.1-2.4c1.1,6.5,0,13.9-3.4,19.4c3.2,1.2,6.6,2.6,9.8,3.5C278.7,404,286.2,403.2,286.5,396.9z"/>
		<path id="XMLID_381_" class="st1" d="M306.7,378.6c6.2-2.4,12.3-1.1,17.2,2.4c0.3-8.5,2-17.5,5.5-25.2c-6.3,0.4-12.7,0.7-18.3,1.1
			c-8.1,0.7-16.4,0.9-24.7,0.8c0.5,5.7,1.1,11.2,3,16.6c1.8,5.3,4.7,9.2,7.5,13.6C299,383.8,302.2,380.3,306.7,378.6z"/>
		<path id="XMLID_380_" class="st0" d="M363,346.6c0-1.3,0.3-2.7,0-3.9c-0.4-2.3-1.3-4.3-2.4-6.3c-1.2,0.3-2.3,0.5-3.4,0.7
			c-4.3,0.9-8.8,1.8-13.2,2.4c1.2,3.1,1.8,7.3,1.2,10.6C351.2,349.1,357.1,348,363,346.6z"/>
		<path id="XMLID_379_" class="st0" d="M241.5,350.7c-0.7-2-0.8-4.6-0.7-6.2c0-2,0.1-4.6,1.2-6.5c-4.4-0.8-8.9-1.8-13.3-2.6
			c-1.2,1.9-1.5,4.9-1.5,6.9c-0.1,2.3,0.4,4.3,0.9,6.5C232.5,349.6,236.9,350.1,241.5,350.7z"/>
		<path id="XMLID_378_" class="st0" d="M420.5,217.6c0.3,0.1,0.7,0.1,0.9,0.3c0-6.9-1.5-13.9-9.2-16.3c-1.8-0.5-3.5-0.7-5.3-0.4
			c2.3,0.8,4.3,2.4,5.8,4c1.1,1.3,3.1,5.4,2.8,8.1C417.6,213.5,419.3,214.7,420.5,217.6z"/>
		<path id="XMLID_377_" class="st0" d="M390.2,269.6c2.3-0.3,4-1.5,6.1-2.2c-0.8-3.5-1.3-7-1.5-10.5c-2.8,1.9-8.4,2.8-11.7,1.2
			c0.3,3.6,0.8,7.4,1.8,11C386.6,269.6,388.3,269.8,390.2,269.6z"/>
		<path id="XMLID_376_" class="st0" d="M377.6,337.3c-0.3-1.5-0.7-3-1.1-4.4c-4.7,1.1-9.6,2.2-14.1,3.1c1.3,1.8,2,4,2.4,6.2
			c0.1,1.1,0.4,2.6,0.3,3.9c3-0.7,5.9-1.5,9-2.4c1.2-0.4,2.4-0.7,3.8-1.1C377.6,340.8,377.8,339.1,377.6,337.3z"/>
		<path id="XMLID_375_" class="st0" d="M399.5,230.4c1.5-3.2,3.2-6.3,5.4-9.2c-1.2-2.8-1.8-5.3-4.9-7c-3.1-1.8-6.1-1.5-9-0.3
			c-2.7,4.3-4.6,9-5.8,13.9c2.3-1.5,5.1-1.9,7.9-1.3C394.7,226.7,398.4,228.3,399.5,230.4z"/>
		<path id="XMLID_374_" class="st0" d="M395.3,244.7c-0.4-0.3-0.8-0.7-1.3-0.9c-1.3-0.7-3-1.1-4.4-1.2c-1.9-0.1-4.9-0.1-6.7,0.9
			c-0.1,2.4-0.1,4.9-0.1,7.3c0,1.8,0.1,3.6,0.1,5.5c3,2.6,8.6,0.7,11.7-0.8c-0.1-3.1,0-6.2,0.4-9.3
			C395.2,245.7,395.2,245.2,395.3,244.7z"/>
		<path id="XMLID_373_" class="st0" d="M396.6,229.8c-1.1-0.9-2.6-1.3-3.9-1.6c-3.1-0.5-5.8,0.3-8.1,2c-0.9,4-1.3,8.2-1.6,12.4
			c1.9-1.5,4.3-1.8,6.7-1.8c1.3,0,4.3,0.4,6.1,1.6c0.7-3.4,1.6-6.6,2.8-9.8C397.8,231.7,397.6,230.6,396.6,229.8z"/>
		<path id="XMLID_372_" class="st0" d="M407.9,332.5c0.3-0.5,0.5-1.1,0.7-1.6c0.3-1.1,0.1-2.3,0.1-3.4c-0.1-1.5-0.9-3.4-0.9-5
			c-4.3,2-8.9,3.9-13.6,5.4c0.9,1.5,1.3,3.4,1.5,5c0.1,1.1,0.1,2.4-0.1,3.8C399.7,335.3,403.8,333.8,407.9,332.5z"/>
		<path id="XMLID_371_" class="st0" d="M408,217.4c1.6-1.8,3.5-3.1,5.4-3.6c0.1-0.7,0.3-1.5,0.3-2.2c-0.1-1.9-1.1-3.6-2.3-5.1
			c-2.3-3-5.3-4-8.8-3.9c-4,1.9-7.5,5.4-10.1,8.9c2.6-0.5,5.3-0.3,7.5,0.9c2.6,1.2,5.4,4,6.1,7C406.9,218.6,407.5,218,408,217.4z"/>
		<path id="XMLID_370_" class="st0" d="M393.7,337.3c0-1.2,0.3-2.4,0.1-3.6c-0.1-1.9-0.8-3.5-1.3-5.1c-4.9,1.5-9.8,2.8-14.7,4
			c0.9,1.6,1.3,3.5,1.6,5.4c0.1,1.2,0.4,3,0,4.2C384.2,340.6,389,339,393.7,337.3z"/>
		<path id="XMLID_369_" class="st0" d="M341.9,350.8c0.5-0.1,1.1-0.1,1.6-0.3c0-1.3,0.1-2.7,0.1-4c-0.1-2.3-0.7-4.4-1.1-6.7
			c-5.3,0.8-10.5,1.3-15.8,1.8c0.3,2.4,0.8,4.7,0.9,7.1c0,1.1,0.3,2.4,0.1,3.8c2.4-0.3,5-0.5,7.4-0.7
			C337.5,351.5,339.7,351.1,341.9,350.8z"/>
		<path id="XMLID_368_" class="st0" d="M265.3,341.5c-2.2-0.1-4.3-0.4-6.6-0.7c-0.5,2.3-0.8,4.4-0.7,6.7c0.1,1.9,0.8,3.8,1.1,5.7
			c5,0.3,10,0.5,14.8,0.8c-0.7-2.3-0.8-5-1.1-7.1c-0.1-1.8,0-3.5,0.5-5.1C270.9,341.8,268.2,341.7,265.3,341.5z"/>
		<path id="XMLID_367_" class="st2" d="M441.2,116.8c4.4-2.4,7.8-6.1,9.2-11c0.9-3.4,1.3-7.8-0.7-10.8c-3.5-2.4-7.3-4.3-11.5-5.1
			c0.7,6.7,0.7,13.6-0.1,20.6v0.1c0.9,1.8,1.5,3.8,1.8,5.8C440.2,116.5,440.6,116.7,441.2,116.8z"/>
		<path id="XMLID_366_" class="st2" d="M442.8,117.7c3,1.6,5.4,3.8,7.4,6.2c3.5-0.5,6.5-2.6,8.9-5c1.3-1.3,2.4-3,3.2-4.7
			c0.5-1.1,0.7-2.3,1.1-3.5c-3-5.1-6.6-9.7-10.9-13.3c0.5,2.8-0.1,6.6-0.7,8.6C450.9,110.7,447.5,115.6,442.8,117.7z"/>
		<path id="XMLID_365_" class="st2" d="M467.4,136.9c-3.4,1.9-7.3,2.8-10.9,1.6c0.8,4.3,0.9,8.8,0.7,13.3c2.6,2.3,6.3,3.2,9.7,2.6
			c2-0.4,3.8-1.5,5.1-3c0.5-0.5,0.8-1.1,1.2-1.8c0.1-5.4-0.3-10.9-1.2-16.2c0-0.1-0.1-0.4-0.1-0.5
			C470.8,134.6,468.9,136.1,467.4,136.9z"/>
		<path id="XMLID_364_" class="st2" d="M451.1,125c2.6,3.5,4.2,7.7,5.1,12.1c3.2,0.8,7.1-0.3,9.8-1.8c2.7-1.3,4.2-3.2,5.3-5.5
			c-1.3-5.7-3.6-11.6-6.6-17.2c-0.4,2.8-3,5.9-4.7,7.5C457.7,122.6,454.5,124.9,451.1,125z"/>
		<path id="XMLID_363_" class="st1" d="M368,33.1c11.7,3.5,23,8.8,32.7,16.4c9.8,7.8,15.1,18.3,18.6,30c1.8,5.7,2.4,12,5.5,17.2
			c2.6,4.2,6.6,6.5,10,9.6c3-44.1-23.4-83-66.3-95.8c-37.6-11.2-83.1-6.6-112,21.6C288.5,15.2,335.9,23.6,368,33.1z"/>
		<path class="st3" d="M430.8,110.9c-3.1-2.2-6.9-2.4-10.1-4.3c-1.5-0.8-2.7-1.9-3.6-3c0.9,12.3-0.4,24.9-3.4,36.2
			c-2.2,7.9-4.9,15.8-8.4,23.2c4.4-1.1,9-1.2,13.1-2.3c0.3-0.3,0.7-0.3,0.9-0.3c3.4-1.1,6.2-3.1,8.4-7.3c3.6-7,6.2-16.4,7.8-24.1
			C437,122.3,437,115,430.8,110.9z M423.4,148.1c-1.6,1.5-4.2,1.6-5.7,0.4c-1.8-1.3-2.3-4-1.3-6.3c1.1-2.2,3.8-3.8,5.9-2.8
			C425.4,140.8,426.3,145.6,423.4,148.1z M427,126c-2,1.2-5,0.8-6.1-1.3c-1.6-3,0.4-7.5,3.9-7.8c2-0.1,4,1.2,4.6,3.2
			C430,122.3,428.9,124.9,427,126z"/>
		<path id="XMLID_359_" class="st4" d="M424.2,119c-2.6,0.8-3.2,5.9,0,6.1c2.2,0.1,3.6-1.8,3.5-3.8
			C427.5,119.5,425.8,118.4,424.2,119z"/>
		<path id="XMLID_358_" class="st4" d="M419.3,141.3c-1.9,1.2-2.2,3.8-0.8,5.3c1.1,1.2,3.1,0.9,4.3-0.4
			C424.4,143.9,422.2,139.4,419.3,141.3z"/>
		<path id="XMLID_357_" class="st2" d="M458.8,184c-3.5-0.8-6.5-3-7.9-6.1c-0.4,0.8-0.7,1.5-1.1,2.3c5.3,3.6,9.6,8.4,12.5,14.7
			c0.1,0.3,0.3,0.7,0.4,0.9c1.6-4.2,3.2-8.4,4.6-12.7C464.9,184.6,461.5,184.6,458.8,184z"/>
		<path id="XMLID_356_" class="st0" d="M416.8,296.7c1.5-1.1,2.8-2.8,3.9-5.3c-0.9-1.1-1.9-2.2-2.8-3.1c-0.5,0.3-0.9,0.5-1.5,0.7
			c1.2,1.3,1.1,3.8,0.8,5.3C417.2,295,417,295.8,416.8,296.7z"/>
		<path id="XMLID_355_" class="st2" d="M457,154.1c-0.4,3.6-0.9,7.4-1.9,10.9c2.8,2.2,5.8,3.6,9.6,3c2.8-0.5,4.9-2.2,7-3.8
			c0.7-3.9,1.1-7.8,1.3-11.7c-1.9,1.6-4.6,2.6-6.3,3.1C463.4,156.4,459.7,156.3,457,154.1z"/>
		<path id="XMLID_354_" class="st5" d="M418.8,299.3c-0.5,0.4-0.9,0.7-1.5,0.9c0.4,2.3-0.1,4.9-0.5,7.1c-0.5,3-1.1,6.1-1.9,8.9
			c0.7,0,1.5,0.1,2,0.5C417.6,310.9,418.2,305,418.8,299.3z"/>
		<path id="XMLID_353_" class="st0" d="M434.4,227c-6.2,7.4-3,22.4,3.1,28c7.1,6.6,16.4,8.4,25.3,5.7
			C456.2,246.9,446.7,234.8,434.4,227z"/>
		<path id="XMLID_352_" class="st1" d="M434,255.4c-4.6-5.4-5.7-11.3-5.1-18.2c0.3-3.9,0.5-8.8,3.6-11.3c-6.2-3.6-13.1-6.2-20.6-7.4
			c-0.3,0-0.4-0.1-0.5-0.3c-3.9,3-7.5,9.3-8.5,11c-3.4,6.5-5,13.6-5.3,20.9c-0.4,7.8,3.6,40.4,18.3,36.1c-2.3-2-4.7-3.9-7.4-5.7
			c-1.1-0.7-0.4-2.2,0.8-2c8.6,1.5,15,10.9,18.9,17.9c0.5,0.9,1.2,2.2,1.8,3.2c4.6,0.3,8.8,1.1,13.3,0.3c3.9-0.8,7.9-2,11.7-3.4
			c4-1.5,7.9-3.5,11.2-6.2c2-1.8,3.4-3.9,5.1-5.9c-1.6-7.1-4-14.1-7-20.9C455.3,269.4,439.9,262.6,434,255.4z"/>
		<path id="XMLID_351_" class="st2" d="M454.8,166.8c-0.8,3.2-1.9,6.3-3.1,9c1.3,3,3.9,5.4,7.1,6.5c3.6,1.2,6.1,0,9-1.5
			c1.3-4.6,2.6-9.3,3.5-14.1C467,170.7,459.2,170.6,454.8,166.8z"/>
		<path id="XMLID_350_" class="st0" d="M416.2,326.2c0-0.3,0-0.5,0-0.8c0.1-1.3,0-2.7-0.1-3.9c-0.1-0.5-0.1-1.8-0.5-2.2
			c-0.4-0.4-0.9-0.4-1.5-0.3c-0.1,0.1-0.1,0.1-0.3,0.3c-1.6,0.9-3.4,1.9-5,2.7c1.1,1.8,1.2,4.9,1.2,6.7c0,0.8,0,2-0.3,3.2
			c0.4-0.1,0.8-0.3,1.1-0.4l0,0c0,0,0-0.1,0.1-0.1c1.2-0.9,2.8-1.1,3.9-2C415.8,328.5,416.1,327.4,416.2,326.2z"/>
		<path id="XMLID_349_" class="st6" d="M452.2,186.4c-15.4-1.2-21,22.1-23,34.5c11.3,5.5,21,15.1,28.3,25.1
			c5-15.1,8.6-32.2,2.7-47.7C458.4,193.6,455.7,189.7,452.2,186.4z"/>
		<path id="XMLID_348_" class="st5" d="M239.6,47c17-16.2,41.5-19.4,63.9-18.6c27.5,0.9,55.2,5.9,80,18.6
			c16.2,8.4,25.5,21.6,29.9,37c0.1,0.1,0.3,0.3,0.3,0.5c1.2,3.8,2,7.7,2.7,11.7c1.6,4.2,3.2,6.7,8.5,9c1.9,0.8,3.9,1.2,5.8,2.2
			c0.5,0.3,1.2,0.7,1.8,1.1c-1.9-1.8-4-3.2-6.1-5.3c-5.7-5.7-6.9-12.8-8.9-20.2c-3.5-13.2-9-24.9-20.3-33.1
			c-9.8-7-20.9-11.7-32.5-14.8c-23.4-6.5-49.7-11-74-9.3c-20.1,1.3-42.3,9-55,25.5C236.9,49.7,238.3,48.2,239.6,47z"/>
		<path id="XMLID_347_" class="st5" d="M283.7,357.7c-3.5-0.1-7-0.3-10.4-0.5c0.9,9.6,3,17.9,7.3,26.7c2.2,4.4,4.4,8.5,8.1,11.9
			c1.9,1.8,4,3.2,6.1,5c-0.3-3.2,0.1-6.6,1.2-9.7C287.3,383.8,283,368.5,283.7,357.7z"/>
		<path id="XMLID_346_" class="st1" d="M258.5,390.7c1.1-1.8,1.3-4.2,1.3-6.2c0-2.8-1.3-5.3-1.6-7.9c-0.5-0.4-0.8-0.8-1.5-1.2
			c-0.7-0.4-1.5-0.5-2.3-0.8c-2-0.5-4.3-1.1-6.3-0.9c0.1,1.1,0.5,2.6,0.7,3.9c0.1,0.1,0.1,0.1,0.3,0.3v0.1c0.4,0.1,0.8,0.4,0.9,1.1
			v0.1c1.5-0.1,3-0.3,4.4,0.5c1.6,0.8,3.5,2.3,2.7,4.3c-0.9,2.6-4.4,2.4-7.4,2c-0.3,0.5-0.5,1.1-0.9,1.5c-0.3,0.3-0.8,0.3-1.1,0
			c-0.3,1.5-0.7,2.8-1.6,4C250,392.8,256,394.6,258.5,390.7z"/>
		<path id="XMLID_345_" class="st1" d="M378.8,368.2c4.7-0.3,10.4-0.4,14.8-2.3l0,0c0-0.9,0.4-1.9,0.5-3c0-0.9,0-1.8,0-2.7
			c-2.6,0.7-5,0.3-7.7,0.1c-1.2-0.1-2.8,0.3-2.8-1.3c0-1.9,3-2.6,4.3-2.8c1.8-0.4,4-0.1,5.8,0.7c-0.1-0.5-0.3-1.1-0.5-1.8
			c-0.3-0.7-0.5-1.2-0.7-1.9c-1.9,0.3-3.8-0.1-5.7,0c-2.4,0-5,0.3-7.3,1.1c-2.4,0.8-2.2,4.4-2,6.7C377.6,363.1,378,366,378.8,368.2
			C378.6,368.2,378.6,368.2,378.8,368.2z"/>
		<path class="st4" d="M386.9,373c4-0.1,7.4-1.5,11-2.6c1.8-7,1.9-14.1-1.2-20.6c-7-2.3-16.3-1.2-22.5,2.6c-0.7,3.2-1.6,6.3-1.2,9.7
			c0.4,3.5,1.5,6.3,3.1,9.4C379.7,372.1,383.2,373.2,386.9,373z M375.4,359.3c0.1-1.9,0.1-4.6,1.6-5.8c3.6-3.2,12.9-3.9,17-1.6
			c0.3,0.1,0.4,0.4,0.3,0.7c1.9,2.2,1.8,5.1,2,8.1c0.1,1.9,0.4,4.9-1.1,6.2c0,0.3,0,0.7-0.3,1.1c-1.6,2-6.3,2-8.8,2.3
			c-2.6,0.4-5.4,0.8-7.5-0.8l0,0l0,0l-0.1-0.1c-0.1,0-0.3,0-0.3-0.1c-0.8-1.8-2-2.8-2.4-4.9C375.4,362.5,375.3,360.8,375.4,359.3z"
			/>
		<path id="XMLID_342_" class="st1" d="M409.2,349.2c-0.3-2.6,0.4-5.4,0.4-7.9c0.1-2.4,0.3-4.7,0.5-7c-10.8,5.5-24.3,8.6-35.7,11.9
			c-6.1,1.8-12.3,3.2-18.5,4.4c-3.1,1.3-6.5,2.4-10.1,3.2c-3.5,7.1-5.5,15.5-7.4,23.2c-0.5,2.4-0.9,4.9-1.2,7.3
			c1.3-3.1,2.8-6.1,5-8.6c1.8-2,3.6-3.8,5.7-5.5c1.2-1.2,3.5-4.4,5.1-4.9c1.9-1.9,4-3.6,5.8-5c3.8-2.8,7.9-5.3,12.5-6.7
			c0.3-0.5,0.5-1.1,0.8-1.5c0-0.3,0.1-0.5,0.4-0.8c5.7-4,18.7-7.1,24.9-3c0.1,0,0.1,0.1,0.3,0.3l0,0c0.4,0.4,0.7,0.7,1.1,1.2l0,0
			C402.5,349.5,406,348.8,409.2,349.2z"/>
		<path id="XMLID_341_" class="st4" d="M254.2,383.7c1.9-0.9-0.8-2-1.9-2.3c-0.8-0.3-1.6-0.5-2.3-0.8c0,1.1,0.1,2.2,0,3.2
			C251.6,384.2,253.1,384.4,254.2,383.7z"/>
		<path id="XMLID_340_" class="st0" d="M284.3,231.7c0.1-0.1,0.1-0.1,0.3-0.3c1.5-1.3,1.5-4-0.7-4.9c-1.3-0.5-3.2,0-4.3,0.9
			c-0.9,0.8-1.6,2.3-1.3,3.5C278.9,233.6,282.7,232.9,284.3,231.7z"/>
		<path id="XMLID_339_" class="st1" d="M220.1,368.2c6.2-2.4,14.7-1.9,20.2,0.5c7.5-2.6,22.1-1.6,26,6.7c0.1,0.1,0.3,0.3,0.3,0.4
			c0.3,0.7,0.4,1.3,0.5,2c2.6,0.7,5,1.5,7.3,2.7c0.5,0.3,1.1,0.5,1.8,0.9c-3.5-7.7-5.4-16.2-5.1-24.7c-5.3-0.4-10.4-1.1-15.4-1.8
			c-5.8,0.3-11.7-0.9-17.4-1.9c-6.3-0.9-12.8-1.9-18.6-4.7h-0.1c0.5,3.2,0.3,6.5,0.3,9.7C219.8,361.6,220.1,365,220.1,368.2z"/>
		<path id="XMLID_338_" class="st0" d="M404.4,292.7c-0.9,0.5-2.2,1.1-3.5,1.3c4.4,3.1,9.4,5.1,13.6,3.6c0.5-1.1,0.9-2.4,1.1-3.6
			c0.3-1.8-0.3-3.1-0.7-4.7c-2.4,0.4-4.7-0.4-6.7-1.9C408.3,289.6,406.1,291.7,404.4,292.7z"/>
		<path class="st4" d="M239.7,394.9C239.9,394.9,239.9,394.7,239.7,394.9c7.3,3.5,14.3,2.8,22,4.2c1.2-3.2,2.4-6.3,3-9.7
			c0.5-2.8,0.7-6.1,0.3-8.9c-0.3-1.3-0.5-2.4-0.5-3.8c-5.3-7.4-14.8-6.7-22.9-6.5C245.1,376.8,244.5,389.1,239.7,394.9
			C239.9,394.7,239.9,394.7,239.7,394.9z M243.9,391.4c0.4-2.3,1.5-4.4,1.9-6.9c0-0.4,0.3-0.7,0.5-0.9c0-0.8,0.3-1.8,0.3-2.4
			c0-0.4,0.1-0.8,0.1-1.3c-0.1-0.7-0.1-1.3-0.1-2.3c-0.1-1.6-0.5-3.1-0.5-4.7c0-0.4,0.3-0.9,0.8-0.9c1.8-0.4,12.9,0,13.1,3.5
			c0.1,0.1,0.3,0.1,0.3,0.3c3.4,4.6,3.5,13.7-0.7,18.1c-3.4,3.4-13.2,2.7-15.6-1.6C243.6,391.9,243.8,391.6,243.9,391.4z"/>
		<path id="XMLID_335_" class="st1" d="M458.5,298.3c-9,3.9-17.9,5.9-27.3,4c1.1,2.2,2,4.3,2.8,6.6c8.1,1.8,16.2,0.5,24.1-2
			c6.7-2.2,10.9-5.7,15.2-10.6c-0.4-2.6-0.8-5.1-1.3-7.8C469.3,293.2,462.3,296.7,458.5,298.3z"/>
		<path id="XMLID_334_" class="st4" d="M385.4,359c0.4,1.1,4.4,0.5,5.5,0.4c1.2-0.3,2.2-0.5,3.2-0.4c0-0.4,0-0.7-0.1-1.1
			C391.2,358.1,385,357.8,385.4,359z"/>
		<path id="XMLID_333_" class="st1" d="M434.8,311.6c0.7,2.6,1.1,5.1,0.9,7.5c13.7,0.5,28.3,2.3,38.7-8.4c0-3.1-0.1-6.3-0.4-9.4
			C466.5,311.1,445.3,314.8,434.8,311.6z"/>
		<path id="XMLID_332_" class="st1" d="M483.5,339.5c1.8,2.2,3.4,4.4,4.7,6.9c1.3-0.7,2.6-1.5,3.2-2.7c0.4-0.8,0.5-1.8,0.8-2.7
			c-0.5-0.7-1.1-1.2-1.5-1.6c-0.9-1.1-1.9-2.3-2.8-3.4c-0.3-0.4-0.5-0.7-0.8-1.1c-0.1,1.1-1.1,2.3-1.5,3
			C485.3,338.3,484.4,339.1,483.5,339.5z"/>
		<path id="XMLID_331_" class="st0" d="M445.6,322.9c2.8,6.9,6.9,14,15.5,13.1c9.7-1.1,11.3-9.8,10-17.6
			C464.5,322.5,454.4,323.5,445.6,322.9z"/>
		<path id="XMLID_330_" class="st1" d="M421.3,339.1c-2.6,5.1,0.3,9.8,5.8,7.9c1.3-0.4,2.6-1.1,3.6-1.8c-1.9-0.5-3.6-1.8-5-2.8
			c-1.9-1.6-2.6-3.9-2.4-6.3C422.7,336.9,421.9,337.9,421.3,339.1z"/>
		<path id="XMLID_329_" class="st1" d="M361.8,360.9c-3.6,2.6-9,6.3-10.1,11c-2.6,11.2,16.6,2.2,22-0.4c-1.9-3-2.8-6.6-3.1-10.1
			c-0.1-1.5-0.1-3.5,0.3-5.5C367.7,357.3,364.6,359,361.8,360.9z"/>
		<path id="XMLID_328_" class="st1" d="M407.2,369.5c0.7,0.1,1.5,0.1,2.2,0.1c0.4-0.3,0.9-0.3,1.3,0l0,0c0.1,0,0.1,0,0.1,0
			c0.3-0.1,0.5-0.3,0.8-0.4c0.1,0,0.3-0.1,0.4-0.1c2.3-1.9,2-6.5,2-9.4c0-1.8,0.3-4-0.4-5.9c-0.1,0-0.3-0.1-0.4-0.1
			c-4-2.7-8.6-2.3-13.2-1.9c2.3,4.7,2.4,11.7,0.8,16.8C403.2,368.9,405.2,369.4,407.2,369.5z"/>
		<path id="XMLID_327_" class="st6" d="M432.8,320.8c-2.3-7.4-3-14.4-6.9-21.6c-0.9-1.8-2-3.5-3.1-5.1c-0.5,1.2-1.2,2.3-1.9,3.2
			c0,0.1,0,0.1,0,0.3c-0.7,7.5-1.6,15.4-2.2,23.2c0.1,0.9,0,2,0,2.8c0,1.5,0,3.1-0.4,4.6c-0.1,3.9-0.3,7.9-0.3,11.9
			c0.7-2,1.8-3.8,2.8-5.3c2-2.7,4.9-4.4,7.4-6.6C431,325.8,432.1,323.6,432.8,320.8z"/>
		<path id="XMLID_326_" class="st7" d="M268.7,227.7c0.1-0.1,0.1-0.1,0.3-0.3c1.5-1.3,1.5-4-0.7-4.9c-1.3-0.5-3.2,0-4.3,0.9
			c-0.9,0.7-1.6,2.3-1.3,3.5C263.3,229.6,267.2,228.9,268.7,227.7z"/>
		<path id="XMLID_325_" class="st1" d="M323.4,284.4c-9.3-0.9-18.6-1.3-27.9-2c4.2,4.6,4,10.9,6.9,16.2c7.7,13.9,29,7.3,42,10.9
			c-0.1-7.3,0.3-14.6,1.3-22C338.6,287.4,330.7,285.2,323.4,284.4z"/>
		<path class="st1" d="M271.4,286.6c-2.4,2.8-3.9,6.3-5.8,9.4c-2.4,3.9-4.9,6.9-9.4,8.1c-6.2,1.8-13.2,1.9-19.5,2.4
			c-5.7,0.4-11.5,1.9-17.1,2.2c1.6,1.2,3.2,2.6,4.9,3.9c3.2,2.6,7,4.9,10,7.8c11.2-1.5,23-0.5,34.4-0.5c11.7,0,23.6,0,35.3,0.3
			c16.2,0.4,32.5,0.4,48.6,1.2c-0.9-0.9-1.9-1.9-2.8-2.8c-1.8-1.8-3.8-3.6-5.1-5.8c-12.4-2.3-25.6-0.7-37.2-5.9
			c-4.3-1.9-7.1-4.4-8.6-8.9c-1.6-4.7-2-10-5.7-13.9c-2.2-2.3-4.9-3.2-7.7-3.9C280,280.9,275.3,282,271.4,286.6z M303.3,307.7
			c0.4,0.1,0.3,0.7-0.1,0.7c-5.1,0.5-10.5-0.5-15.6-0.7c-5.5-0.1-11,0-16.6,0.3c-0.8,0-0.8-1.2,0-1.3
			C281,305.8,293.6,304.9,303.3,307.7z M297.8,303.8c0.3,0.1,0.3,0.7-0.1,0.7c-11.2-0.7-22.5-0.1-33.7-0.9c-0.5,0-0.5-0.8,0-0.9
			C274.5,301.6,287.6,300.3,297.8,303.8z M277.5,289.9c0.4-2.7,2.7-5,5.4-5.9c1.2-0.4,2.4-0.3,3.4,0.3c1.6,0.9,2.6,2.8,2.3,4.7
			c-0.3,3.5-3.8,7.5-7.7,6.9C278,295.3,277.1,292.5,277.5,289.9z"/>
		<path id="XMLID_320_" class="st0" d="M285.5,291.5c0.7-1.1,1.2-2.6,0.9-3.8c-0.3-0.8-1.1-2.6-3.5-1.9c-3,0.8-5.8,4.6-3.1,7.5
			C281.6,295.3,284.6,293.2,285.5,291.5z"/>
		<path class="st1" d="M317.9,223.6c-3.9-0.3-7.9-0.5-11.9-1.1c-4.4,9.3-9.8,17.5-13.2,27.5c-3.1,8.9-4.9,18.2-7.8,26.9
			c0.9,0,2,0.1,3,0.4c0.5,0.1,0.7,0.4,0.8,0.7c1.8,0.5,3.4,1.3,4.9,2.4c10.5-0.4,21.6,1.1,31.9,2.2c5.5,0.5,14.8,0.3,20.7,2.6
			c1.9-12,5-23.8,8.9-34.9c3-8.6,6.9-16.7,11.9-24.4c1.8-2.6,3.5-5.5,5.7-8.1C355.3,223.2,335.5,224.6,317.9,223.6z M315.7,263.2
			c-0.9,4.2-1.2,8.6-2.7,12.5c0,0.4-0.3,0.7-0.7,0.8c-2.7,0.4-5.5,0.3-8.4,0.1c-2.4-0.1-5.1,0-7.3-0.9c-0.3-0.1-0.4-0.4-0.4-0.7
			c-0.1-0.1-0.3-0.3-0.3-0.5c-0.5-4.2,1.2-8.9,2.3-12.8c0.1-0.7,0.8-0.8,1.3-0.5c2.3-0.9,5.4-0.4,7.8-0.3c1.8,0.1,4.6,0,6.5,0.8
			C314.8,261.4,316,262,315.7,263.2z M320.4,247.5c-1.1,3.2-2.2,6.6-3.1,10c-0.3,1.1-1.5,1.1-2,0.5c-1.9,0.3-4.2-0.5-5.9-0.7
			c-2.6-0.3-5.7,0.1-8.1-0.9c-0.3-0.1-0.5-0.4-0.5-0.7c-0.3-0.1-0.4-0.5-0.3-0.8c1.1-3.2,2.3-6.5,3.8-9.6c0.3-0.5,0.7-0.5,0.9-0.3
			c2.2-0.8,5-0.3,7.1-0.1c2,0.3,4.6,0.3,6.5,1.2C319.8,245.7,320.8,246.4,320.4,247.5z M320.6,241.4c-1.9,0.1-4.2-0.5-5.9-0.8
			c-2.4-0.3-5.3,0-7.5-0.9c-0.4-0.1-0.4-0.8-0.1-1.1c0-0.1,0-0.3,0-0.4c0.9-3.5,2.3-7.7,5.3-10c0.3-0.3,0.5-0.3,0.8-0.3
			c2-0.8,4.4-0.4,6.6-0.3c2.3,0.1,5.3-0.1,7.3,1.1c0.4,0.3,0.5,0.9,0,1.2l0,0c0,0.1,0,0.1,0,0.3c-1.2,3.6-2.8,7.1-4.2,10.6
			C322.3,242,321.1,242,320.6,241.4z M341.2,263.2c-0.8,3.1-1.5,6.1-1.8,9.2c-0.3,2.2-0.4,4.3-1.6,6.2c-0.3,0.5-0.8,0.4-1.2,0.1
			c-2.2-0.3-4.3-0.7-6.5-0.8c-2-0.1-4.2,0-6.2-0.5c-0.7-0.1-0.9-0.9-0.7-1.5c-0.4-4.6,1.5-10,2.7-14.4c0-0.1,0.1-0.3,0.1-0.4
			c0.3-0.4,0.7-0.5,1.1-0.4c2-0.4,4.3-0.1,6.3,0c2.2,0.1,4.7,0.1,6.7,1.1c0.1,0,0.1,0.1,0.3,0.1
			C340.9,262.2,341.3,262.6,341.2,263.2z M337.8,228.9c2.2-0.5,4.4-0.4,6.6-0.4s4.6,0,6.6,0.8c0,0,0.1,0,0.1,0.1
			c0.7,0.1,1.2,0.7,0.9,1.3c-3.6,8.6-7.3,16.8-9.2,26c-0.3,1.1-1.8,0.9-2.2,0.3c-1.9-0.3-3.8-0.5-5.7-0.7c-2-0.1-4.2,0-6.2-0.5
			c-0.1,0-0.1-0.1-0.3-0.1c-0.5,0-1.1-0.4-0.8-1.1c2.7-8.2,4.3-17.1,9.3-24.1C336.9,229.7,337.1,229,337.8,228.9z"/>
		<path id="XMLID_313_" class="st8" d="M356.3,256.6c-5.5,17.8-8.5,35.3-9.7,53.9c0.1,0.1,0.1,0.4,0.1,0.5c1.9,2,3.8,4,5.7,5.9
			c0.9,0.9,2.3,2,3.2,3.4c3.2-21.2,6.2-42.3,10.9-63.2c3.1-13.7,5.5-29.1,12.8-41.5c-5.7,3.6-10,12-13.2,17.5
			C361.9,240.5,358.8,248.6,356.3,256.6z"/>
		<path id="XMLID_312_" class="st0" d="M401,279.3c-0.9,1.8-3.8,3.1-5.3,3.8c-1.5,0.5-3.1,0.9-4.7,0.8c0.9,1.5,2,2.8,3.2,4
			c1.3,1.5,3,3.1,4.7,4.4c1.5-0.1,2.8-0.3,4.3-0.9c0.9-0.5,1.9-1.2,2.6-2.2c0.5-0.8,0.7-1.8,1.2-2.6l0.1-0.1
			C404.5,284.5,402.4,281.7,401,279.3z"/>
		<path id="XMLID_311_" class="st5" d="M408.4,165.2c-1.3,0.1-2.7,0.4-4,0.7c-0.1,0-0.3,0-0.4,0c-2.6,5-5.5,9.7-9.2,14
			c1.8-1.6,3.5-3.2,5.3-5C402.8,171.9,405.3,167.7,408.4,165.2z"/>
		<path class="st7" d="M270.7,266.2c4-6.6,5.9-16.2,8.6-23.8c-3.6-0.3-7.3-0.4-10.9-0.8c-4-0.4-8.8-0.5-12.4-2.2
			c-0.9,4.2-3.5,7.7-5.4,11.6c-2.6,5.5-5.5,11-6.9,17c5.4,0.3,10.8,0.3,16.2,0.7C264.7,269.2,268.2,270.7,270.7,266.2z"/>
		<path id="XMLID_309_" class="st1" d="M267,338.4c8.2,0.4,16.3,0.4,24.5,0.7c3.2,0.1,6.6-0.1,10.1-0.1c18.5-1.3,36.5-0.7,55-4.6
			c18.6-3.9,39.2-8.5,55.9-17.6l0,0c0.3-2.7,0.9-5.5,1.5-8.2c0.4-2.3,0.4-5,0.8-7.3c-6.1,1.2-13.5-2.4-19.1-7.3
			c-14.3-12.3-16.7-31.9-16-49.6c0.7-15.8,5.7-37.6,22.1-44.6c11.5-4.9,27.2,6.5,21.6,18.7c1.3,0.4,2.7,1.1,4,1.6
			c1.6-10,4.4-19.5,10.5-27.8c4-5.4,7.3-7.7,12.8-7.3c-2.8-2.4-6.1-4.6-9.6-6.2c-8.4-4-17.4-4.9-26-7.9H415
			c-7.7,9.3-17,16.8-27.3,23c3.1,1.9,4.7,5.7,4.4,9.4c-0.5,5.8-4.6,8.6-9.4,10.8c0,0.1,0,0.1,0,0.3c-6.7,15.2-10.5,30.7-14.1,46.9
			c-2.6,11.3-4.3,22.8-6.3,34.1c-1.6,9-1.6,19.4-4.4,28c-0.3,0.8-0.9,1.1-1.5,0.9c-0.1,0-0.1,0.1-0.3,0.1c-5.8,0.9-12-0.1-17.8-0.3
			c-10.9-0.3-21.8-0.4-32.6-0.8c-12.3-0.4-24.5-0.4-36.9-0.5c-11.2,0-22.8,0.8-34-0.5c-0.3,0.5-1.1,0.9-1.9,0.5
			c-3.4-1.9-6.5-4.6-9.6-7c-0.9-0.7-1.9-1.3-2.8-2.2c-0.5,6.1-0.3,12.1-0.7,18.2c6.5-0.1,12.8,2.3,19.1,3.4
			C248.2,336.4,257.5,337.9,267,338.4z"/>
		<path id="XMLID_308_" class="st1" d="M379.7,193.6c-3,2-6.1,3.8-9.3,5.3c2.7-1.1,5.5-2.2,8.2-3.5c14.4-7.3,27.5-17.6,37-30.9
			c-0.8,0.1-1.6,0.1-2.4,0.3c-5.8,4-9.8,10.5-14.8,15.5c-5.7,5.8-11.6,9-18.3,13.3C380.1,193.6,379.9,193.6,379.7,193.6z"/>
		<path id="XMLID_307_" class="st1" d="M259.1,206.7c-0.8-0.5-1.6-1.1-2.4-1.6c-6.9,9.7-11.7,20.5-15.8,31.5
			c6.1-10,12.7-19.3,20.2-28.6C260.5,207.6,259.8,207.2,259.1,206.7z"/>
		<path id="XMLID_306_" class="st7" d="M300.1,263c-0.8,3.6-1.6,7.3-1.9,11c2.2-0.3,4.3,0.1,6.5,0.1c2.3,0.1,4.7,0,7,0.4
			c-0.1-3.5,0.5-7,1.3-10.4c-1.8,0-3.8-0.5-5.4-0.7C305.2,263.2,302.4,263.5,300.1,263z"/>
		<path id="XMLID_305_" class="st0" d="M237.7,228.6c-0.9-0.7-2.2-1.2-3.2-1.6c-2.8-0.9-5.8,0-8.6,0.5c-1.1,3.5-2,7-2.7,10.6
			c2.2-1.1,5.1-0.9,7.3-0.4c1.6,0.3,4.3,1.2,5.7,2.8c1.1-3.2,2.3-6.6,3.5-9.8C239.2,230,238.7,229.2,237.7,228.6z"/>
		<path class="st1" d="M224,280.4c16.6-2.3,34.4-2.4,50.9-0.8c2.3-1.5,5-2.4,8.1-2.6c2.6-18.7,9.7-39.2,20.7-54.7
			c-14.1-1.9-28.4-5.8-40.4-12.9c-4.4,6.7-10,12.8-14.6,19.5c-5,7.4-9.2,15.4-13.3,23.2C230.4,261.1,226.9,270.5,224,280.4z
			 M283.4,223.8c1.1,0.3,2.2,0.8,2.8,1.6c1.3,1.5,1.9,3.5,1.3,5.5c-0.5,1.8-2,3.2-3.8,3.9c-2.2,0.7-5.1,0.3-6.6-1.5
			c-0.7-0.9-1.1-2-0.9-3.2C276.4,226.5,279.5,223,283.4,223.8z M267.8,219.9c1.1,0.3,2.2,0.8,2.8,1.6c1.3,1.5,1.9,3.5,1.3,5.5
			c-0.5,1.8-2,3.2-3.8,3.9c-2.2,0.7-5.1,0.3-6.6-1.5c-0.7-0.9-1.1-2-0.9-3.2C260.8,222.4,264,219.1,267.8,219.9z M245.5,254.4
			c2.7-5.8,5-12.4,9.7-16.8l0,0c0.3-0.4,0.8-0.7,1.3-0.5c7.9,1.5,16.6,1.1,24.4,3.4c1.1-0.1,2.3,0.5,1.9,2c-1.6,5.8-4,11.6-6.1,17.2
			c-1.1,3.1-2.6,9.8-4.9,12.4c-1.5,1.8-2.7,1.3-4.9,1.5c-8.2,0.3-17.1-1.5-25.3-1.9c-0.8,0-1.8-0.8-1.6-1.6
			C240.9,264.2,243.2,259.5,245.5,254.4z"/>
		<path id="XMLID_300_" class="st7" d="M335.5,253.4c1.9,0.1,3.9,0.3,5.8,0.8c1.6-4.3,3.1-8.6,4-13.1c0.7-3.2,1.9-6.6,3.8-9.6
			c-1.6-0.1-3.4-0.4-5-0.4c-2,0-4.2,0.1-6.2-0.3c-3.5,7.3-6.1,14.7-8.1,22.5C331.6,253.1,333.6,253.3,335.5,253.4z"/>
		<path id="XMLID_299_" class="st0" d="M327.7,263.1c-0.7,3.9-1.1,8.2-2.3,12.1c1.6-0.1,3.4,0,5,0.1c2,0.1,4.2,0.3,6.1,0.8
			c0.5-4,1.1-8.1,1.9-12.1c-1.8-0.3-3.6-0.5-5.4-0.7C331.4,263.4,329.5,263.5,327.7,263.1z"/>
		<path id="XMLID_298_" class="st7" d="M305.3,246.8c-1.1,2.6-2,5.1-3,7.8c2.2-0.5,4.7,0,6.9,0.1c1.8,0.1,4.2,0.1,5.9,0.8
			c0.7-2.4,1.5-5,2.3-7.4c-1.9,0-3.9-0.7-5.7-0.9C309.8,247.1,307.4,247.3,305.3,246.8z"/>
		<path id="XMLID_297_" class="st0" d="M313.4,229.7c-1.9,2.6-2.8,5.4-4,8.1c1.9-0.3,4,0.1,5.8,0.4c1.6,0.1,4,0.1,5.8,0.8
			c1.1-2.8,2.2-5.5,3.5-8.2c-1.3,0-2.8-0.3-4.3-0.4C318.1,230.1,315.6,230.2,313.4,229.7z"/>
		<path id="XMLID_296_" class="st5" d="M342.4,354.5c-3.4,0.5-6.9,0.9-10.4,1.2c-1.3,5-3.4,9.8-4.4,15c-0.8,4-0.9,8.1-1.5,12.3
			c3.2,2.8,6.1,6.5,7.9,10.4c0.5-6.7,1.2-13.2,2.7-19.9C338.2,367.5,339.3,360,342.4,354.5z"/>
		<path class="st3" d="M308.4,381.1c-10.9,3.4-12.7,17.4-9.3,26.8c7.4,1.2,14.3,2.7,21.8,0.5c5.1-1.3,9-3.6,13.2-6.5
			C330.4,391.6,321.5,377.1,308.4,381.1z M315,395c-1.5,1.5-4,1.9-5.7,0.8c-1.8-1.3-2.6-3.9-1.8-6.2c0.9-2.3,3.5-4,5.8-3.2
			C316.7,387.6,317.9,392.4,315,395z"/>
		<path id="XMLID_293_" class="st4" d="M310.6,388.5c-1.8,1.3-1.9,3.9-0.4,5.4c1.2,1.2,3.2,0.8,4.2-0.7
			C315.9,390.7,313.3,386.4,310.6,388.5z"/>
		<path id="XMLID_292_" class="st1" d="M296.6,408.3c-0.7-1.3-1.1-2.7-1.5-4c-2.6-1.8-5-3.6-7.1-5.8c-0.5,3.4-4.3,5.8-7.7,6.5
			c-0.4,0-0.7,0.1-1.1,0.1c8.4,3.8,16.3,9,20.6,16.3c1.5-1.3,3-2.4,4.2-4.2c0.7-1.1,1.2-2.3,1.3-3.6c0-0.5,0-0.9,0-1.5
			c-2.7-0.4-5.4-1.1-7.9-2C296.6,409.7,296.5,409,296.6,408.3z"/>
		<path id="XMLID_291_" class="st1" d="M442.9,504.5c-1.3-4.4-2.4-9.4-3.1-14.4c-5.3,3-8.2,7.3-11.6,12.9c2.2,4.9,4.7,9.6,7.9,14.1
			c2.6,3.6,5.5,6.6,8.9,8.5c3.6-0.5,7-1.6,10.1-3C448.8,518.8,445.1,511.5,442.9,504.5z"/>
		<path id="XMLID_290_" class="st1" d="M296.1,420.9c0-0.1,0-0.3,0.1-0.4c-4.4-4-9-7.5-14.4-10.6c-6.6-3.8-13.3-5.5-20.1-8.6
			c0,0,0,0-0.1,0c-4.4,0.7-9.2,0-13.6-0.8c-3.5-0.5-7.3-1.5-9-4.9v-0.1c-2.2,1.1-5.3,0.5-7.5,0.5c-2.4,0.1-4.6,0.5-6.7,1.2
			c2.7,11.5,3.9,23.3,6.7,34.8c1.6,6.5,3.6,12.7,6.1,18.6c4.7,1.8,7.9,2.3,13.3,1.8c5.3-0.7,10.4-2.2,15.5-3.1
			c6.6-1.2,16.7-5.3,23.2-1.6c7.7,4.3,4.7,13.7-0.4,18.6c-9.7,9-25.9,16.2-39.1,11c3.2,6.1,6.9,11.9,10.6,17.5
			c9.2,3.1,18.3,5,28,2.7c12.3-3,21.7-13.3,24.4-25.5c-0.5-0.9-1.1-1.9-1.6-2.8c-4.3-7.9-8.1-16.6-10.8-25.2
			C298.2,437.2,295.4,428,296.1,420.9z"/>
		<path id="XMLID_289_" class="st1" d="M456.9,521.9c11.7-6.1,18.1-17.6,19.3-32.3c-9.6-4.4-19.8-5.1-29.9-2.2
			c-1.8,0.5-3.2,1.1-4.7,1.8C443,501.8,446.5,514.4,456.9,521.9z"/>
		<path id="XMLID_288_" class="st1" d="M439.5,488.5c-0.5-4.2-0.8-8.4-0.7-12.1c-4.4,2.2-9.2,3.5-13.9,3.4c-1.2,0.1-2.4,0.1-3.5,0.1
			c1.3,7.7,3.4,15.1,6.3,22.1C430.1,495.9,434.1,491.5,439.5,488.5z"/>
		<path id="XMLID_287_" class="st1" d="M360.5,379.6c-5,1.2-11.2,0-11.3-6.3c0-0.3,0-0.7,0-0.9c-1.8,1.5-3.6,2.8-4.6,3.8
			c-3.2,3.4-5.4,7.5-7.7,11.6c-0.3,3-0.7,6.1-1.3,8.9c0.7,1.8,1.1,3.4,1.3,5.1c0,0,0,0,0,0.1l0,0v0.1v0.1c0,0.3-0.1,0.5-0.3,0.8
			c0.7,1.2,0.4,1.8,1.9,0.5c1.2-1.1,2-3.1,3-4.4c2-3,4.3-5.9,6.7-8.6C352.1,386.2,356.1,382.7,360.5,379.6z"/>
		<path id="XMLID_286_" class="st1" d="M275.7,516.9c1.9,2.6,3.6,5.3,5.5,7.8c0.3,0,0.5,0,0.8,0.1c9.2,5.4,23.4,2.4,32.2-2.3
			c10.6-5.8,12.8-16.4,15.6-26.9c-1.9-2.6-3.9-5-5.8-7.5C323.8,510.9,295.8,522.9,275.7,516.9z"/>
		<path id="XMLID_285_" class="st0" d="M273,473.1c4.6-1.6,10.2-3.5,13.6-7.3c3.5-3.9,8.4-14.3,0.9-16.8c-7.7-2.7-20.2,3.1-27.9,4.7
			c-6.9,1.6-14.1,3.2-20.7,0.7c1.8,4.3,3.8,8.6,5.8,12.9c1.1,2.3,2.2,4.4,3.2,6.6C255.6,476.9,265.3,475.8,273,473.1z"/>
		<path id="XMLID_284_" class="st1" d="M229.5,393.5c2.7-0.1,6.7-0.7,9.3,0.5v-0.1c3.2-6.9,2.7-15.8,1.2-23
			c-8.8-1.2-25.2-3.6-25.5,9.6c-0.1,6.5,0.8,16,7.7,18.2c0-0.1,0-0.4,0-0.5c-0.9,0.3-1.6-1.1-0.9-1.8
			C223.2,394.1,226.7,393.7,229.5,393.5z"/>
		<path id="XMLID_283_" class="st0" d="M220.3,346.9c1.9,0.5,3.6,0.9,5.5,1.3c-0.8-2.3-0.5-5.5-0.4-7.1c0.1-1.9,0.4-4.3,1.5-6.1
			c-2.6-0.4-5.3-0.9-7.8-1.3c-0.7,0.1-1.2,0.1-1.8,0.8c-0.4,0.5-0.5,1.3-0.8,2c-0.4,1.3-0.4,2.8-0.4,4.3c0,1.1-0.5,3.2,0.3,4.2
			c0.8,0.9,2.7,0.9,3.6,1.6C220.2,346.8,220.3,346.9,220.3,346.9z"/>
		<path id="XMLID_282_" class="st1" d="M297,531.2c-4.9,0.3-9.7-0.5-13.9-2.6c0.3,6.5-3.6,13.5-5.8,19.5c-0.4,1.1-0.7,2.2-1.1,3.2
			c4.3-2.6,10-3.4,15.2-3.5C294,542.8,296.3,537.4,297,531.2z"/>
		<path id="XMLID_281_" class="st1" d="M477.9,493.9c-2.3,15.5-12.4,32.6-29.2,33.7c8.8,3.4,18.7,0.9,25.9-8.4
			c8.4-10.9,8.9-27.1,8.1-40.3c-0.8-12.1-4-26.7-10-37.5c-1.1-1.2-2.4-2-3.9-2.7C478.5,454.1,480.4,476.9,477.9,493.9z"/>
		<path id="XMLID_280_" class="st1" d="M292.4,499.1c-7.7,3-20.5,4.3-29,0.3c3.1,4.6,6.2,9,9.4,13.5c8.6,3.4,19.5,2.6,28-0.4
			c12.4-4.3,18.6-13.9,20.5-26.3c0-0.4,0.3-0.7,0.5-0.8c-2.6-3.2-5-6.6-7.1-10C312.9,486.5,302.8,495.2,292.4,499.1z"/>
		<path id="XMLID_279_" class="st1" d="M283.3,587.9c-3.9-5.5-3.6-12.9-1.8-19.3c2.2-7.4,6.1-13.6,9.4-20.1
			c-5.8,0.5-11.3,2.3-15.6,5.1c-1.8,5.5-3.2,11.2-3.8,17c-0.5,5.3-0.8,11.2,1.6,15.9C276.4,588.1,279.9,588.3,283.3,587.9z"/>
		<path id="XMLID_278_" class="st1" d="M316,525.6c-4.9,2.8-11.2,5-17.6,5.5c-0.1,5.7-2.3,11.2-5,16.7c1.3,0,2.7,0,3.9,0
			c7.8,0,20.6,3.8,21.7,13.2c0,0.5-0.7,0.5-0.9,0.1c-3.8-9.3-14.4-13.1-25.1-12.5c-6.6,13.1-16.3,25.9-8.4,39.3
			c7.5-1.1,15.4-5.1,20.2-8.9c7.1-5.7,14.1-12.4,18.9-20.1c8.6-14,15.1-31.8,15.8-48.5l0,0c-0.3-0.3-0.3-0.7-0.3-0.9
			c-2.3-3.9-5-7.5-7.7-11.3C333.2,508.7,324.6,520.4,316,525.6z"/>
		<path id="XMLID_277_" class="st1" d="M322.7,564.5c-7,8.2-15.2,17.9-25.6,22c-5.7,2.2-14.8,4.4-21.7,3.1c5.7,6.3,15.5,5.3,23,3
			c26.7-7.8,55.6-49,43.9-77.1c-0.1,6.7-3.2,14.4-4.7,20.1C335,545.9,329.7,556.5,322.7,564.5z"/>
		<path id="XMLID_276_" class="st6" d="M419.1,348.8c-0.3-0.4-0.5-0.7-0.8-1.1c0.5,8.2,1.9,16.4,4.4,24.1c5-6.6,7.5-16,9.8-23.8
			C427.8,350.5,422,351.8,419.1,348.8z"/>
		<path id="XMLID_275_" class="st1" d="M470,370.1c2-0.8,3.1-1.9,4.3-3.5c-0.4-2.4-1.1-5.1-1.8-7.7c-1.2,1.5-3.4,2.6-4.6,3.1
			c-3,1.3-6.2,1.3-8.8-0.5c0.1,0.7,0.3,1.3,0.4,2c0.4,1.6,0.9,3.5,1.5,5.5C464.1,370.4,466.7,371.3,470,370.1z"/>
		<path id="XMLID_274_" class="st1" d="M452.9,465.6c-3.4,3.8-7.7,7.3-12.4,10c0.3,3.9,0.5,7.9,0.9,12.1c1.3-0.7,3-1.2,4.4-1.8
			c9.2-2.8,22.2-3.8,30.4,2.3c0.9-16-0.7-37.5-10.9-50.7c-1.5-0.4-3.1-0.7-4.7-0.9C466.1,445.9,459.3,458.5,452.9,465.6z"/>
		<path id="XMLID_273_" class="st1" d="M464.6,351.2c2.3-0.5,3.4-1.9,4.7-3.4c-0.1-0.4-0.1-0.7-0.3-1.1c-0.1-0.5,0.1-1.1,0.4-1.3
			c0-0.1,0-0.1,0-0.3c-0.1-0.9,1.2-1.8,1.8-0.7c0.5,0.9,1.1,2,1.6,3c1.9-0.1,3.5-0.1,5.3-1.3c1.1-0.7,1.9-1.6,2.4-2.7
			c0.3-0.5,0.4-1.3,0.5-1.9c-1.2-1.6-2.2-3.4-2.6-5.4c-0.1-0.8,0.8-1.6,1.5-0.9c0.9,0.9,1.9,1.9,2.7,3c0.3-0.1,0.5-0.1,0.8-0.4
			c0.5-0.4,1.1-0.8,1.5-1.5c0.4-0.5,0.7-1.2,0.9-1.9c0.1-0.5,0.1-0.9,0.5-1.3l0,0c-1.5-2.2-3.1-4.3-4.4-6.6
			c-2.2-3.5-5.5-7.8-6.5-12.1h-0.1c-0.7,0.8-1.5,1.6-2.3,2.3c3.5,8.4-0.7,18.3-9.8,20.5c-9.7,2.4-16.6-6.1-18.6-14.7l0,0
			c-3.4-0.3-6.3-0.8-8.9-1.5c-0.4,3-1.9,5.3-4,7.4c0,0.5,0,0.9,0,1.6c0,1.5,0.1,3,1.1,4.3c0.8,1.3,2.2,2.6,3.6,3.2
			c1.1,0.4,2,0.5,3.1,0.5c0.1-0.1,0.3-0.3,0.4-0.3c0.5-0.4,1.2-0.1,1.3,0.5c0.1,0.1,0.4,0.4,0.4,0.7c0.1,1.5-0.3,4.9-0.7,8.8
			c0,0,0.1,0,0.1,0.1c1.6,2,4,3.4,6.6,3.8c1.5,0.3,3,0.3,4.4-0.1c0.8-0.3,1.5-0.8,2.2-1.3c0-1.6,0.1-3.4,0.9-4.4
			c0.4-0.7,1.3-0.7,1.8,0c0.7,0.9,0.9,2.6,0.9,4.2c0,0.1,0,0.1,0,0.3C459.9,351.4,462,351.9,464.6,351.2z"/>
		<path id="XMLID_272_" class="st4" d="M203.2,117.5c-0.5,1.9,0.9,3.6,2.8,3.9c1.6,0.1,2.8-1.2,2.7-2.8
			C208.5,116.1,204,114.6,203.2,117.5z"/>
		<path id="XMLID_271_" class="st1" d="M467.6,360.4c2-0.9,3-2.2,4.2-3.9c-0.7-2.4-1.5-4.6-1.9-6.5c-1.3,1.5-3.5,2.6-5.1,3
			c-2.3,0.5-5,0.4-6.9-0.9c0.4,2.6,0.7,5.1,1.1,7.7l0,0C461.9,361.5,464.5,361.9,467.6,360.4z"/>
		<path id="XMLID_270_" class="st1" d="M492.6,344.9c-0.9,1.3-2.2,2.3-3.8,2.7c0.8,1.6,1.5,3.2,2,4.9c7.7-1.3,5.5-6.2,2.8-9.8
			C493.4,343.5,493,344.3,492.6,344.9z"/>
		<path id="XMLID_269_" class="st1" d="M487.6,352.3c-0.5,1.6-1.9,3.2-3.1,4.2c-1.6,1.3-3.6,2.2-5.7,2c0.4,0.7,0.9,1.3,1.3,2
			c1.5,2,5.9,7.1,8.8,3.8c1.1-1.2,0.5-4,0.4-5.5C489,356.6,488.3,354.3,487.6,352.3z"/>
		<path id="XMLID_268_" class="st1" d="M471.2,371.6c-2.8,1.2-6.3,1.2-9.2-0.3c1.3,3.2,3.2,5.9,6.5,6.3c5.1,0.7,6.3-3.1,6.1-8.2
			C473.5,370.4,472.1,371.2,471.2,371.6z"/>
		<path id="XMLID_267_" class="st1" d="M485.6,352.3c0.4-0.8,0.7-1.6,0.9-2.6c-0.1-0.4-0.3-0.7-0.5-1.1c-0.9-1.9-2.4-3.5-3.8-5.3
			c-0.5,1.5-1.9,3-2.8,3.8c-1.3,1.1-3.8,2.2-5.8,2.2c1.3,2.4,2.6,4.9,4,7.3c2,0,4-0.5,5.7-1.8C484.3,354.3,485.1,353.4,485.6,352.3z
			"/>
		<path id="XMLID_266_" class="st1" d="M439.5,359.4c-0.1,2.8-0.3,5.7,0,8.2c1.8,0.8,3.1,2,5.3,2.3c1.3,0.3,2.7,0.1,3.9-0.3
			c0.9-0.3,1.6-1.2,2.6-1.3c0.5-2.7,0.8-5.4,1.1-7.3c-1.9,1.2-4.4,1.8-6.3,1.6C443.4,362.7,441,361.5,439.5,359.4z"/>
		<path id="XMLID_265_" class="st1" d="M408.5,372.5c-0.4,0-0.7,0-1.1,0c-2.6-0.1-5.1-0.5-7.5-1.3c-0.1,0.1-0.1,0.3-0.3,0.4
			c-0.3,0.4-0.7,0.5-0.9,0.4c-6.2,3.5-16.6,4.9-22.9,1.3c-0.1,0-0.3,0-0.4,0c-3,1.3-5.8,3-8.9,4.2c-5.4,4-10.9,8.2-15.4,13.5
			c-3.2,3.8-5.9,8.6-9.3,12.5l0.1,0.1c2.4,8.8,2.4,18.1,4.9,26.8c3.2,11.7,10.4,19.8,20.2,26.8c6.2,4.4,13.5,8.2,21.2,11.2
			c0.1-0.3,0.5-0.4,0.9-0.3c12.3,2.4,24-2.7,33-11c10.4-9.7,11-19,10.2-32.2v-0.1c-1.6-1.2-3.4-2.6-5-3.8c-0.3-0.3-0.5-0.5-0.8-0.8
			c-1.3,16.7-28.4,35.6-43.2,25.7c-5.4-3.6-5.1-7.9-0.3-11.9c5.8-4.6,12.9-6.9,18.2-12.3c3.4-3.5,7.5-9.4,9.2-14
			c0.9-2.6,1.1-4.9,2-7.3C408.5,391.5,406.8,381.5,408.5,372.5z"/>
		<path id="XMLID_264_" class="st1" d="M439.7,369.9c0.7,3.9,2.2,6.6,5.1,6.5s4.6-2.6,5.7-5.4C448,372.6,442.4,372.1,439.7,369.9z"
			/>
		<path id="XMLID_263_" class="st1" d="M396,471.3c4.7,1.5,9.6,2.7,14.3,3.6c20.5-3.1,37.9-21,33.4-42.7c0-0.1,0-0.3,0.1-0.4
			c-3.4-1.6-6.6-3.5-9.6-5.7C442.5,447.3,417.3,471.7,396,471.3z"/>
		<path id="XMLID_262_" class="st1" d="M439.7,460.8c-5.5,7.1-13.3,13.5-22.2,15.4c2.8,0.4,5.5,0.8,8.2,1.1c0.1,0,0.1,0,0.3,0.1
			c19.5-2.2,38-21,32.3-41.1c-2.4-0.4-5-0.8-7.3-1.5c-2-0.7-3.9-1.3-5.8-2.3C450.3,440.9,445.2,453.6,439.7,460.8z"/>
		<path id="XMLID_261_" class="st0" d="M389.3,432.5c-2.6,1.5-7.5,6.6-6.6,10c0.4,1.3,4.6,3,5.8,3.4c6.1,1.8,12.4-0.7,17.5-3.8
			c8.8-5.3,16.7-13.5,18.5-23.7c-4.4-4.3-8.2-9.8-11.2-15.9c-1.8,6.6-3.6,11.9-8.2,17.6C400.7,425.7,395.3,429,389.3,432.5z"/>
		<path id="XMLID_260_" class="st1" d="M432,336.5c-1.3-1.6-2.2-4-2-6.3c-1.1,0.9-2.3,1.9-3.5,3c-0.5,0.4-0.9,0.8-1.5,1.2
			c-0.3,2.7,0.4,5,2.3,7c1.5,1.8,3.4,2,5.4,2.4c1.6-1.2,3.2-2.7,4.9-4C435.4,339.6,433.2,338,432,336.5z"/>
		<path id="XMLID_259_" class="st1" d="M263.7,293.4c2.8-4.7,5.5-9.3,9.3-12.5c-16.4,0.7-32.9-0.5-49.4,0.7
			c-2.4,7.9-3.8,16.4-6.2,24.4c7.4-0.8,14.7-2.2,22.2-2.8C249.2,302.4,258.3,302.6,263.7,293.4z"/>
		<path id="XMLID_258_" class="st5" d="M416,331.3c-0.8,0.7-1.9,1.1-3,1.2c-0.1,0.1-0.1,0.3-0.4,0.4c0,0-0.1,0-0.1,0.1
			c0,3.4,0,6.7-0.1,10.2c-0.1,2,0,4.3-0.8,6.2c5.7,1.2,4.7,7.4,4.6,12.7c-0.1,3.5-0.4,11.2-5.1,10.1c-0.1,2.4-0.3,5-0.1,7.4
			c4.4-0.9,7.8-3.4,10.6-6.6C416.4,360.4,415.3,345.8,416,331.3z"/>
		<path id="XMLID_257_" class="st1" d="M447.8,353.8c-2.8-0.3-5.7-1.6-7.4-3.9c-0.3,2.6-0.5,5.3-0.8,7.9c2.2,1.3,3.6,3,6.2,3.4
			c2.8,0.4,4.7-0.7,6.7-2c0.4-2.2,0.8-4.2,1.2-6.3c0,0,0-0.1,0-0.3C452.1,353.6,449.6,353.9,447.8,353.8z"/>
		<path id="XMLID_256_" class="st1" d="M175.2,148.2c0.3-2.6,0.7-5.1,1.1-7.8c0.1-1.3,0.5-3.8,0.7-6.6c-3.4-5.5-13.9-5.5-18.9-2.4
			c-0.4,4.9,0.3,10,1.1,14C164,142.8,172.1,143.3,175.2,148.2z"/>
		<path id="XMLID_255_" class="st4" d="M206.3,95.6c-2.4,0.7-3,5.5,0,5.7c2,0.1,3.4-1.6,3.2-3.5C209.4,96,207.9,95.1,206.3,95.6z"/>
		<path id="XMLID_254_" class="st1" d="M114.7,176.1c-1.6-3.6-1.5-8.8,1.8-11c-3.1-1.5-5.7-3.6-7.4-6.3c-8.1,3.2-2.8,12,1.6,15.1
			C112,174.9,113.2,175.5,114.7,176.1z"/>
		<path id="XMLID_253_" class="st1" d="M177.1,131.2c0.3-8.4-1.3-18.2-11.5-13.5c-4.4,2.2-6.6,6.6-7.4,11.6
			C163.6,126.8,172.6,126.8,177.1,131.2z"/>
		<path id="XMLID_252_" class="st1" d="M121.3,166.6c-1.1-0.1-2-0.4-3-0.8c-0.1,0-0.3,0.1-0.4,0.1c-3.6,1.9-3.4,7.9-1.1,10.8v0.1
			c1.8,0.5,3.6,0.7,5.5,0.8c3.1,0,6.5-0.4,9.6-1.5c-2.4-3-2.4-6.5-0.7-9.7C127.6,167,123.9,167.2,121.3,166.6z"/>
		<path id="XMLID_251_" class="st1" d="M138.2,151c-1.2-0.7-2.6-0.9-3.9-1.2c-4.6,2.3-5.3,9.8-2.8,13.9c0,0.1,0,0.1,0.1,0.3
			c0.5-0.1,1.1-0.3,1.6-0.4C139.1,161.8,146.4,155.1,138.2,151z"/>
		<path id="XMLID_250_" class="st1" d="M142.6,161.7c-2.2,2-5.4,3.5-8.9,4.3c-2.2,3.1-2.6,6.7,0.1,9.6c0.5-0.3,1.1-0.5,1.5-0.8
			c1.6-0.9,3.4-2,4.6-3.4C141.9,169.3,143.4,164.9,142.6,161.7z"/>
		<path id="XMLID_249_" class="st1" d="M131.3,185.9c0.1,0.1,0.3,0.3,0.3,0.5c5.9-2,10.1-6.1,8.1-11.2c-2.7,1.8-6.1,3-9.3,3.8
			C129.3,181.2,129.3,184.4,131.3,185.9z"/>
		<path class="st3" d="M203.8,91.5c-5.9,4.6-6.7,14.7-6.5,22c0.3,10.6,4.3,16.2,14.1,19.8c1.3,0.5,2.8,1.1,4.2,1.8
			c-0.9-4.7-1.6-9.4-2-14.1c-0.9-12.8,0.4-25.6,4.2-37.6C213.7,86.8,208.3,88,203.8,91.5z M210.5,119.4c-0.3,1.9-1.9,3.5-3.8,3.6
			c-2.2,0.1-4.3-1.2-5-3.2s0.1-4.7,2.3-5.3C207.1,113.6,210.9,116.1,210.5,119.4z M208.9,102.2c-1.9,1.1-4.6,0.7-5.7-1.2
			c-1.5-2.8,0.3-7,3.6-7.3c1.9-0.1,3.8,1.1,4.3,3C211.7,98.7,210.8,101.2,208.9,102.2z"/>
		<path id="XMLID_245_" class="st0" d="M235.6,225.8c1.1,0.4,3.6,1.6,4.9,3.1c1.2-3.1,2.6-6.2,3.9-9.2c-0.9-0.5-1.3-1.5-2.2-2.2
			c-1.1-0.8-2.4-1.5-3.6-1.9c-2.7-0.8-5.3-0.7-7.8,0c-0.1,0-0.3,0-0.3,0c-0.3,0.5-0.4,1.1-0.7,1.5c-1.2,2.8-2.4,5.8-3.4,8.8
			C229.2,225,232.7,224.6,235.6,225.8z"/>
		<path class="st5" d="M312.2,204.8c5.3,0.7,10.5,0.9,15.8,0.8c0.1,0,0.1,0,0.3-0.1c2.8-0.1,5.5-0.3,8.2-0.4
			c15.2-1.5,30-6.3,42.7-15.1c18.3-12.7,28.3-35,32.6-56.3c3.4-16.6,1.2-31.9-0.5-48.4c-2.4-8.8-6.3-17-13.3-24.5
			c-10.2-11.2-26.3-17.2-40.6-21.4c-27.5-8.2-62-12.9-90.1-5c-32.7,9.3-49.8,42-51.1,74.2c-0.4,10.1,0.5,20.6,3.2,30.6
			c0.1,0.5,0.4,1.1,0.4,1.6l0,0c1.9,6.3,4.3,12.4,7.7,17.9c7.7,12.7,18.2,19.7,29.2,28.6C273,197.5,293.6,202.5,312.2,204.8z
			 M356.9,172.7c6.5-6.3,15.1-10.5,22-16.6c2.8-2.4,14.1-9,15.8-3.2c0.7,0,1.3,0.4,1.3,1.3c-0.9,10.6-6.6,17-14.3,23.8
			c-5.5,4.9-13.5,12-21.6,11.3C349.9,188.5,351.4,178.1,356.9,172.7z M234.2,93.5c4.3-19.3,16.6-41.6,35.4-50c0-0.3,0.1-0.7,0.5-0.8
			c6.3-2.2,23.6-7.1,28.3,0.8c3.1,5.3-4,11.7-7.1,15c-10.6,11.2-17.2,22.9-22.5,37.3c-3.5,9.2-6.2,21.8-12.9,29.4
			c-5.3,6.1-12.9,6.7-18.3,0.4C230.7,117.3,232.1,103.1,234.2,93.5z M242.6,140.9c5.3-7,16.7,0.9,19.8,6.7c3.5,6.3,2,14.7-4.9,17.8
			C244.5,171.2,231.7,149.1,242.6,140.9z"/>
		<path id="XMLID_240_" class="st0" d="M263.7,206.9c5.8,3.2,12.1,5.5,18.5,7.5c12.3,4,24.5,5.8,37.3,6.5
			c12.7,0.7,25.6-0.4,38.1-2.6c5.8-1.1,11.5-2.4,17-4.3c6.5-2.2,24.3-11,10.4-18.5c-1.5,0.8-3,1.6-4.6,2.4
			c-12.7,6.3-25.1,8.8-38.3,9.6c-10.9,1.6-22,1.5-32.9,0c-17.5-2.6-36.2-7.1-51.3-17c-0.3,0.1-0.7,0.1-0.9-0.1
			c-0.7-0.5-1.5-0.9-2.2-1.5c-6.5,1.9,0.1,11.5,2.3,13.6C259,204.4,261.4,205.7,263.7,206.9z"/>
		<path id="XMLID_239_" class="st0" d="M231.1,253.9c-2.8-1.9-5.8-0.7-8.9,0c0.3,4.7,1.2,9.3,2.8,13.9
			C226.8,263,228.8,258.4,231.1,253.9z"/>
		<path id="XMLID_238_" class="st0" d="M253.5,204.6c0.3-0.4,0.5-0.8,0.9-1.2c0-0.1,0.1-0.1,0.1-0.1c-1.9-1.6-3.5-3.4-4.3-5.5
			c-2-1.2-4-1.2-5.9-0.5c1.8,0.1,3.4,0.8,4.9,1.9C250.7,200.1,252.9,202.3,253.5,204.6z"/>
		<path id="XMLID_237_" class="st0" d="M239.3,214.5c1.8,0.5,5.1,2.4,5.5,4.6c1.2-2.4,2.4-4.9,3.8-7.1c-2.2-1.6-3.6-3.5-6.3-4.4
			c-2.3-0.8-4.7-0.9-7.1-0.8c-1.6,2.7-3.1,5.7-4.2,7.9C233.5,213.3,236.8,213.7,239.3,214.5z"/>
		<path id="XMLID_236_" class="st0" d="M248.9,211.4c1.1-1.9,2.3-3.6,3.5-5.5c-0.4-1.1-0.7-2-1.3-3s-1.6-1.8-2.6-2.4
			c-1.9-1.3-4.4-2.3-6.7-1.9c-2.2,1.6-4.2,4-5.9,6.7C240.8,204.6,247.7,206.4,248.9,211.4z"/>
		<path id="XMLID_235_" class="st1" d="M182.5,190.9c-1.9-2.7-3.4-5.7-4.6-8.6c-2.3,7.8-10.5,15.4-16.7,19.3
			c-5.1,3.2-13.6,6.5-20.3,5.4c1.2,1.8,2.2,3.8,2.8,6.3c0.1,0.7,0.4,1.3,0.5,1.9C162.1,216.1,173.9,205.7,182.5,190.9z"/>
		<path id="XMLID_234_" class="st1" d="M154.7,202.2c0,0,0-0.1-0.1-0.1c-3.2-8.5-8.1-22.1,1.1-29.1c7.4-5.8,15,2.6,19.1,8.5
			c0.5-1.3,0.9-2.6,1.3-3.9c0,0,0,0,0-0.1c-1.8-6.3-2.3-13.2-2-20.5c0.1-1.9,0.3-3.8,0.5-5.7c-0.1-0.1-0.3-0.3-0.3-0.4
			c-1.5-5.9-10.4-6.5-15.1-3.8c0,0.4-0.5,0.7-0.8,0.5c-5.1,3.5-12.9,0.8-17.8-2c-6.6-3.8-12.4-8.4-20.5-7.1
			c-9.4,1.3-13.3,10.9-9.6,18.1c0-5.8,4.4-12.1,10.2-11c0.3-0.1,0.5-0.3,0.9-0.1c5.9,2.3,21.3-0.1,23.2,8.5c0.4,1.9,0.3,3.6-0.4,5.1
			c3.9,6.2,1.9,11.2-2.6,14.8c2.3,3.1,0.8,7.9-1.5,10.8c-0.8,0.9-1.6,1.8-2.6,2.4c0.9,2.3-0.4,4.9-2,6.9s-3.8,3.4-6.2,4
			c3.5,2,6.5,3.9,8.8,6.3C144.1,205.2,149.6,204.4,154.7,202.2z"/>
		<path id="XMLID_233_" class="st1" d="M113.2,187.4c-0.5,4.4,4.6,7.4,10,7.9c-0.5-1.5-0.5-3,0.1-4.4
			C120.6,190.6,116.6,189.3,113.2,187.4z"/>
		<path id="XMLID_232_" class="st1" d="M116.6,179.7c-2.4-0.7-5.1-1.8-7.4-3.4c-0.1,5.4,3,8.8,7.1,10.4
			C115.5,184.3,115.4,181.6,116.6,179.7z"/>
		<path id="XMLID_231_" class="st0" d="M153.8,178.6c-3.4,8.1-0.4,15.2,2.6,22.9c7.7-3.8,14.3-10.8,17.9-18.3
			C169.4,176.6,158.8,166.4,153.8,178.6z"/>
		<path id="XMLID_230_" class="st1" d="M135.5,188.5c-3.2,1.6-6.9,2.4-10.4,2.4c-0.8,1.6-0.8,3.1,0,4.6
			C130.1,195.5,134.9,193.3,135.5,188.5z"/>
		<path id="XMLID_229_" class="st1" d="M128.5,179.6c-3.6,0.7-7.3,0.9-10.1,0.5c-1.6,1.8-0.9,5.1,0,7.1c3.6,0.8,7.8,0.7,11.6-0.3
			C128,185.1,127.5,182.1,128.5,179.6z"/>
		<path id="XMLID_228_" class="st0" d="M231.2,253.5c0-0.1,0.1-0.1,0.1-0.3c0.7-1.2,1.2-2.3,1.9-3.5c0-0.1,0-0.4,0.1-0.7
			c0.7-2.3,1.5-4.4,2.2-6.7c-1.5-1.8-2.8-2.7-5.4-3.2c-2.4-0.4-5-0.4-7.1,0.5c-0.7,4.2-0.9,8.5-0.8,12.7c1.3-0.7,2.7-1.2,4.2-1.2
			C228.4,251.1,229.8,252.5,231.2,253.5z"/>
		<path id="XMLID_227_" class="st1" d="M229.6,211.2c-13.3,2.3-27.5-2-38-10.5c-1.9,17.4-25.5,31.4-42.2,29.5
			c2.7,6.1,6.1,11.9,10.6,16.8c0.5,0.5,1.2,1.1,1.8,1.8c15.5-13.7,47.3-7.3,52.1,14c2.2-0.5,4.3-1.3,6.1-2.4
			c-3.1-15.9,2-33.8,8.9-47.8C229.2,212,229.4,211.6,229.6,211.2z"/>
		<path id="XMLID_226_" class="st1" d="M189.3,198.7c-1.9-1.8-3.6-3.5-5.1-5.4c-4.3,15.5-24,25.6-39.3,24.1
			c1.1,3.4,2.2,6.9,3.5,10.2C167.1,227,184.1,217.6,189.3,198.7z"/>
		<path id="XMLID_225_" class="st0" d="M162.9,249.6c7.4,6.7,16.7,10.9,26.5,12.8c6.3,1.2,14.6,2,21.8,0.8
			C206.1,242.6,178.8,240.5,162.9,249.6z"/>
		<path id="XMLID_224_" class="st1" d="M120.6,147.1c-5.8-1.1-9.8,7.5-7.5,12.7c0.7,0.7,1.3,1.2,2.2,1.8c4,2.7,9.6,3.4,14.6,2.7
			c-2.3-4.3-1.8-11.5,2-14.8c-3.6-0.4-7.4-0.5-10.8-1.9C120.8,147.4,120.6,147.2,120.6,147.1z"/>
	</g>
	<path id="XMLID_223_" class="st9" d="M473.5,129.3c-0.1-1.1-0.4-2.2-0.5-3.1c-2.4-4.2-3.9-8.9-6.1-13.2c-3.4-6.5-7.5-11.9-12.7-17
		c-0.7,0.1-1.5,0-2-0.4c-0.7-0.4-1.2-0.8-1.9-1.2c-0.9-0.8-1.5-1.6-2-2.7c-2.8-1.3-5.9-2.3-9.2-2.7c-4-0.5-4.4,5-1.9,6.9
		c7.1,5,14.1,8.1,19.4,15.5c5.7,7.9,7.7,17.4,8.2,27.1c0.4,8.4,0.1,17-0.7,25.2c-0.9,9.8-4.3,18.5-6.5,27.9
		c-1.1,4.6,4.9,6.9,7.4,3.1c0.1-0.1,0.1-0.3,0.3-0.3c1.2-3.6,2.3-7.3,3.2-10.9c1.3-5.3,1.9-10.8,4.6-15.6c0-0.1,0.1-0.1,0.1-0.1
		c0.1-0.9,0.1-1.8,0.3-2.6C474.8,153.3,475.2,141,473.5,129.3z"/>
	<path class="st0" d="M349.8,318.5c-1.8-1.8-3.8-3.6-5.1-5.8c-12.4-2.3-25.6-0.7-37.2-5.9c-0.8-0.4-1.5-0.7-2.2-1.1
		c-4.6-0.3-9.2-0.9-13.5-1.5c-9-0.3-18.1-0.1-27.1-0.7c-2.7,0.1-5.3,0.3-7.9,0.5c-0.1,0-0.4,0.1-0.5,0.1c-6.2,1.8-13.2,1.9-19.5,2.4
		c-5.7,0.4-11.5,1.9-17.1,2.2c1.6,1.2,3.2,2.6,4.9,3.9c3.2,2.6,7,4.9,10,7.8c11.2-1.5,23-0.5,34.4-0.5c11.7,0,23.6,0,35.3,0.3
		c16.2,0.4,32.5,0.4,48.6,1.2C351.8,320.4,350.8,319.4,349.8,318.5z M303.3,308.4c-5.1,0.5-10.5-0.5-15.6-0.7
		c-5.5-0.1-11,0-16.6,0.3c-0.8,0-0.8-1.2,0-1.3c10-0.8,22.6-1.6,32.3,1.1C303.7,307.7,303.6,308.2,303.3,308.4z"/>
	<path id="XMLID_220_" class="st5" d="M441.3,178.9c-8.4-4-17.4-4.9-26-7.9h-0.1c-7.7,9.3-17,16.8-27.3,23c3.1,1.9,4.7,5.7,4.4,9.4
		c-0.1,1.8-0.7,3.2-1.5,4.6c0.1,0,0.1,0.1,0.3,0.1c2.8-3.5,6.3-6.3,10.8-8.2c11.5-4.9,27.2,6.5,21.6,18.7c1.3,0.4,2.7,1.1,4,1.6
		c1.6-10,4.4-19.5,10.5-27.8c4-5.4,7.3-7.7,12.8-7.3C448,182.7,444.8,180.5,441.3,178.9z"/>
	<path id="XMLID_219_" class="st1" d="M418.8,299.3c-0.5,0.4-0.9,0.7-1.5,0.9c0.4,2.3-0.1,4.9-0.5,7.1c-0.5,3-1.1,6.1-1.9,8.9
		c0.7,0,1.5,0.1,2,0.5C417.6,310.9,418.2,305,418.8,299.3z"/>
	<path id="XMLID_218_" class="st1" d="M416,331.3c-0.8,0.7-1.9,1.1-3,1.2c-0.1,0.1-0.1,0.3-0.4,0.4c0,0-0.1,0-0.1,0.1
		c0,3.4,0,6.7-0.1,10.2c-0.1,2,0,4.3-0.8,6.2c5.7,1.2,4.7,7.4,4.6,12.7c-0.1,3.5-0.4,11.2-5.1,10.1c-0.1,2.4-0.3,5-0.1,7.4
		c4.4-0.9,7.8-3.4,10.6-6.6C416.4,360.4,415.3,345.8,416,331.3z"/>
	<path id="XMLID_217_" class="st1" d="M428.5,187.9c-7.3-2.8-14.6-5.5-21.8-8.1c-5.8,5.4-12.1,10.1-18.9,14c3.1,1.9,4.7,5.7,4.4,9.4
		c-0.1,1.8-0.7,3.2-1.5,4.6c0.1,0,0.1,0.1,0.3,0.1c2.8-3.5,6.3-6.3,10.8-8.2c11.5-4.9,27.2,6.5,21.6,18.7c1.3,0.4,2.7,1.1,4,1.6
		c1.6-10,4.4-19.5,10.5-27.8l0.1-0.1C435,190.6,431.7,189.1,428.5,187.9z"/>
	<path id="XMLID_216_" class="st1" d="M443,312.7c0-0.5-0.1-1.1-0.3-1.6c-0.1-0.5-0.1-1.1-0.4-1.8c-1.3-5-3.8-10-6.6-14.3
		c-6.7-10.2-16-15.9-27.9-16.2c0,1.1,0.4,2,1.5,2.7c11.7,7.1,31.4,27.5,22,43.5c-3.4,5.8-11.2,9.2-14,15c0.1,0.1,0.1,0.4,0.3,0.5
		c0.7,2.2,0.7,4.3,2.2,6.2c0.4,0.5,0.9,0.9,1.5,1.3c2.3-2.8,3.9-6.1,6.5-8.8c2.4-2.4,5.3-4.4,7.7-6.9
		C441,327.2,443.7,320.6,443,312.7z"/>
	<path id="XMLID_215_" class="st1" d="M449,373.9c-9.4,0.7-6.6-10.9-6.1-16.8c0.5-5.7,0.8-10.6-0.4-16.2c-0.4-1.6-2.7-1.1-2.8,0.4
		c-0.8,10-4.3,22.1-0.7,31.8c1.8,4.9,7.7,8.2,11.3,3.4C451.1,375.3,450.2,373.7,449,373.9z"/>
	<path id="XMLID_214_" class="st1" d="M473.2,377c0.8-0.8,1.3-1.8,1.8-2.8c-2-0.5-3.9,0.8-5.8,0.3c-3.6-1.1-4.9-6.5-5.8-9.7
		c-1.8-5.8-1.6-13.3-5-18.3c-0.8-1.2-2.8-1.1-3.2,0.4c-1.3,4.4,0.4,8.9,1.5,13.3c1.1,4.2,1.9,8.5,3.8,12.5c1.6,3.5,5,6.9,8.8,7.7
		C470.7,379.2,472,378.2,473.2,377z"/>
	<path id="XMLID_213_" class="st1" d="M490.2,364.2c0.4-0.9,0.5-1.9,0.8-2.8l0,0c-1.3,0.3-2.7,1.2-4,1.1c-2.7-0.3-4.9-3.6-6.3-5.7
		c-3-4-5.1-8.6-8.4-12.5c-1.2-1.3-3.4,0.1-3,1.8c1.2,4.2,3.4,7.8,5.5,11.5c1.9,3.2,3.9,6.9,7.1,9c1.1,0.7,3.1,1.2,5.1,1.2
		C488.4,366.8,489.5,365.6,490.2,364.2z"/>
	<path id="XMLID_212_" class="st1" d="M406.5,248.2c4.9,7.5,12.5,12.7,19.5,18.3c10.1,8.4,19.3,18.5,23.2,31
		c3.9,12.5,1.6,27.6-8.4,36.1c-4.4,3.9-10.4,6.5-13.3,11.7c-0.5,0.9-1.1,2-1.9,2.8c-2.3,2-6.3,0-7-3s0.8-6.1,3-8.2
		c2.2-2.2,4.7-3.8,6.9-6.1c5.8-6.1,6.5-15.8,3.9-23.8c-2.7-8.1-8.1-14.8-13.3-21.4c-2.8,2.7-7.4,2.6-10.8,0.7
		c-3.4-2-5.5-5.4-7.3-8.9c-7.3-14.7-8.5-37.2,1.3-51.2c1.9,1.8-0.1,7.3,0,10C402.8,240.5,404.2,244.7,406.5,248.2z"/>
	<path id="XMLID_211_" class="st1" d="M493.4,354.2c0.8-1.3,1.8-2.6,2.2-4c0.4-0.9,0.4-2,0.4-3c-0.3,0-0.5,0.1-0.8,0.3
		c-0.9,0.5-1.9,1.5-3,1.1c-1.3-0.5-2.7-3.1-3.5-4.2c-2.3-2.8-4.6-5.7-7-8.4c-1.3-1.5-3.5,0.4-2.7,2c1.6,3,3.4,5.8,5.1,8.6
		c1.3,2.2,2.8,5,5,6.5C490.5,353.9,491.9,354.2,493.4,354.2z"/>
	<path id="XMLID_210_" class="st1" d="M384.4,220.9c1.3-3.6,2.7-7.3,4-10.9C386.7,213.5,385.4,217.2,384.4,220.9z"/>
	<path id="XMLID_209_" class="st1" d="M480.5,457.1c-1.6-7.8-3.9-16.7-11.2-19.9c-2.8-1.2-5.9-1.5-9-1.9c-14.1-1.9-27.6-9.2-37-19.9
		c-9.4-10.8-14.7-25.1-14.6-39.5c0-0.8,0-1.5,0.4-2.2c0.3-0.5,0.5-0.9,0.9-1.2c-2.3-0.5-4.6-1.6-7-2c-5.3-0.9-9.6,4.3-14.4,4.7
		c-1.5,13.3,0.4,27.2,5.5,39.6c2.4,5.9,5.7,11.5,10.1,16c7.5,7.5,17.9,11.2,27.9,14.7c14.8,5.1,29.8,10.2,44.6,15.4
		c1.1,0.4,2.4,0.7,3.2,0C480.9,459.8,480.8,458.3,480.5,457.1z"/>
	<path id="XMLID_208_" class="st1" d="M412.3,316.7c2.6-5.7,3.6-11.9,3.2-18.1c-9.3,2.6-19.4-3.1-24.8-11.2s-6.9-18.1-7.8-27.8
		c-1.2-12.4-1.9-26.3,1.3-38.8c-3.6,10.2-6.5,20.6-7.7,31.7c-1.1,9.4-1.1,19.3,2.2,28.2c3,8.4,8.8,15.8,10.6,24.5
		c1.8,7.8,0.4,15.9,0.9,23.8c0.4,5.3,1.6,10.5,1.9,15.8c0,0.7,0,1.5,0,2.2c2.7-0.1,4.3,1.5,5.9,3.5c3.4-2.2,7.5-2.4,11.6-1.5
		c0-1.6,0.1-3.4,0.5-4.9c-0.4-1.3-0.7-2.8-0.5-4.3c0.1-2.7,1.2-5.4,3.1-7.3c1.2-1.2,2.6-2.2,3.6-3.4
		C420.1,325.2,417.6,317.8,412.3,316.7z"/>
	<path id="XMLID_207_" class="st1" d="M219.1,246.8c-14,5.7-31.4,1.5-41.4-9.8c-10.6-12.1-12.5-30.2-22.8-42.7
		c-2.2-2.7-4.9-5.3-6.2-8.5c-3.8-9.6,5.4-20.7,1.3-30.2c-2-4.6-6.9-7.5-11.9-8.4c-0.4-0.1-0.9-0.1-1.5-0.3c0,0,0.1,0,0.1,0.1
		c2.7,1.5,4.6,3.6,5.3,6.6c0.4,1.6,0.1,3.6,0.5,5.3c0.4,1.8,1.6,3.5,1.9,5.4c0.1,2.6-0.7,3.9-1.3,6.2c-0.9,3.2-0.7,5.7-1.3,8.8
		c-0.8,3.8-3.6,6.5-5.5,9.7c-2.7,4.4-4.7,7.1-8.6,7.9c0,0,0.1,0,0.3,0c5.3,1.8,9,6.5,11.3,11.5s3.4,10.5,5.3,15.8
		c5.1,14.7,16.2,27.2,30.2,34.1c14,6.9,30.7,7.9,45.4,3.1L219.1,246.8z"/>
	<path id="XMLID_206_" class="st1" d="M147.9,158.3c0.9,4.7,0.1,9.4-0.8,14.1c-0.9,4.9-1.8,9.8-2.7,14.7c-0.3,1.3-0.5,2.8-1.1,4
		c-1.3,2.8-4.2,4.6-6.9,6.2c-1.5,0.8-3,1.8-4.6,1.9c-1.6,0.1-3.5-0.5-4.2-2.2c2.8-0.9,5.9-2.2,7.8-4.6c1.5-2,1.8-4.7,2.7-7
		c1.5-3.6,4.7-7.1,3.2-10.8c-0.3-0.5-0.5-1.1-0.5-1.6c0-0.7,0.7-1.3,1.2-1.9c2.7-2.8,3.5-7.4,1.9-11c-0.3-0.7-0.7-1.3-0.7-2
		s0.3-1.2,0.4-1.9c0.8-3.1-1.5-5.3-2.4-7.4C144.8,150.2,147,154.7,147.9,158.3z"/>
	<path id="XMLID_205_" class="st1" d="M164.3,245.3c15.4,12.1,37.5,14.8,55.2,6.7c0.5,3,0.9,5.8,1.5,8.8c0.1,0.7,0.3,1.5-0.1,2
		c-0.4,0.5-1.1,0.8-1.6,0.9c-15.4,4.4-32.5,2.6-46.5-5.3c-13.2-7.4-25.9-21.6-28.7-36.8c3.5,0.7,6.6,8.5,8.8,11.3
		C156.1,237.6,159.8,241.8,164.3,245.3z"/>
	<path id="XMLID_204_" class="st1" d="M267,400.5c1.3,0.1-0.8,31.9,6.7,52.9c9,24.9,23.3,45.4,41.5,63.9
		c9.6,9.7,20.2,18.7,26.9,30.6c6.9-9.8,5.4-23.6,0.3-34.4c-5.3-10.8-13.6-19.7-20.6-29.5c-10.6-15-18.2-32.1-21.8-50.1
		c-2.2-10.2-1.6-15-10-22C283.3,406.5,275.7,401.5,267,400.5z"/>
	<path id="XMLID_203_" class="st10" d="M313.2,230.9c-0.8,1.5-1.8,3-1.3,4.7c0.3,1.3,2.2,2.2,3.2,1.3c1.5-1.1,1.8-2.7,2.3-4.3
		C317.9,230.2,314.2,228.6,313.2,230.9z"/>
	<path id="XMLID_202_" class="st10" d="M309.7,246.4c-1.1-0.4-2.3-0.1-3.1,0.5c-0.5,0.4-0.9,0.8-1.1,1.5c-0.1,0.3-0.1,0.5-0.3,0.9
		c0,0.3,0,0.4,0,0.7c0,0.4,0,0.4,0,0.1c-0.1,2.3,3.2,3.2,4.4,1.3c0.3-0.3,0.5-0.7,0.8-0.9c0.1-0.3,0.3-0.5,0.4-0.9
		c-0.1,0.4,0,0,0.1-0.1C311.4,248.2,311,246.9,309.7,246.4z"/>
	<path id="XMLID_201_" class="st10" d="M304.5,262.3c-1.2-0.7-2.7-0.3-3.5,0.9c-0.9,1.5-2.4,4-1.5,5.8c0,0.3,0.1,0.5,0.3,0.8
		c0.4,0.8,1.6,1.1,2.4,0.7c0.3-0.1,0.4-0.4,0.7-0.5c1.2-0.9,1.8-2.7,2.6-4C306.2,264.6,305.6,263,304.5,262.3z"/>
	<path id="XMLID_200_" class="st10" d="M339.6,230.5c-2.4,3-2.8,6.5-4,10.1c-0.9,3-2.8,7.3-1.5,10.4c0.4,0.9,1.3,1.1,2,0.3
		c1.8-2.6,1.5-6.2,2.4-9.2c1.1-3.5,3.5-6.1,4.6-9.6C343.7,230.6,340.8,228.9,339.6,230.5z"/>
	<path id="XMLID_199_" class="st10" d="M332.2,261.8c-1.3-0.4-2.6,0.4-3,1.8c-0.4,1.2-0.8,2.4-0.9,3.6c-0.1,1.1,0,2.7,1.3,3.1
		c2.6,0.7,3.8-3.8,4.3-5.4C334.3,263.5,333.4,262.2,332.2,261.8z"/>
	<path id="XMLID_198_" class="st10" d="M264.9,223.2c-2.7,0-2.7,4.2,0,4.2C267.6,227.5,267.6,223.2,264.9,223.2z"/>
	<path id="XMLID_197_" class="st10" d="M282.2,226.2c-2.8,0-2.8,4.4,0,4.4C285,230.5,285,226.2,282.2,226.2z"/>
	<path id="XMLID_196_" class="st11" d="M247.7,196.7c-9,7-14,17.5-17.4,28.3c-2.8,8.9-9.6,25.3-4.2,33.7c0.8,1.2,2.7,0.9,3.1-0.4
		c1.9-5.4,1.6-11.3,2.8-17c0.9-4.6,2-9.2,3.4-13.6c3.1-10.6,7.7-19.9,15-28.2C252.1,197.5,249.6,195.2,247.7,196.7z"/>
	<path id="XMLID_195_" class="st11" d="M409.8,199.9c-16.6,2.8-24.1,23-25.7,37.6c-0.9,9-1.2,17.9,0.1,27.1
		c1.1,7.1,2.7,16.3,8.9,20.7c0.9,0.7,2.3-0.3,2.3-1.2c-0.5-6.3-4.2-12-5.4-18.3c-1.2-6.9-1.1-14-0.4-21c0.8-8.1,2.7-17.1,6.5-24.5
		c3.6-7.1,9.3-11.6,15.5-16.4C413.4,202.3,412.2,199.4,409.8,199.9z"/>
	<path id="XMLID_194_" class="st11" d="M333.2,341.7c-5.5-1.5-11-0.1-16.7,0.3c-5.4,0.4-10.8,0.5-16.2,0.5
		c-12.4,0.1-24.8-0.7-37.2-2c-12.1-1.3-23.7-4.7-35.7-6.3c-5.9-0.8-12.4,0.5-13.5,7.4c-0.4,3.4,4.2,4.9,5.3,1.5
		c2-7,26.5,0.9,31.9,1.9c9.3,1.6,18.7,2.8,28.2,3.4c9.7,0.7,19.4,0.9,29.1,0.7c8.1-0.3,17.9,0.8,25.3-3.1
		C335.5,344.8,335,342.2,333.2,341.7z"/>
	<path id="XMLID_193_" class="st11" d="M393.1,332.6c-7.7-0.1-14.7,2.3-22.2,3.8c-7,1.5-15.6,1.3-21.8,5.1c-0.8,0.5-0.7,1.8,0.3,2
		c6.6,1.9,14.7-0.7,21.3-1.9c7.9-1.6,15.9-3,22.8-7.5C393.9,333.6,393.7,332.6,393.1,332.6z"/>
	<path id="XMLID_192_" class="st10" d="M237.2,371.8c-4.6-2.2-10.1-1.9-14.8-0.3c-3.6,1.2-10,4.4-9.4,8.9c0.1,1.1,0.9,2.3,2.2,2.2
		c2.7-0.1,3.9-2,6.1-3.4c2.4-1.5,5.1-2.4,8.1-2.6c2.8-0.1,9.3,2.6,9.6-2.3C238.7,373.4,238.1,372.2,237.2,371.8z"/>
	<path id="XMLID_191_" class="st10" d="M276.8,383.3c-2.6-1.8-5.3-3-8.4-3.2c-2.4-0.3-3,3.2-1.2,4.3c2.2,1.3,4.6,2.4,6.7,3.9
		c1.8,1.2,3.8,2.8,6.1,2.3c0.4-0.1,0.8-0.5,0.9-0.9C281.5,386.7,278.9,384.6,276.8,383.3z"/>
	<path id="XMLID_190_" class="st10" d="M316.5,381.3c-3.2-5.4-10.8-0.3-13.3,3.1c-3.6,4.7-6.3,11.9-3.8,17.5
		c0.7,1.6,3.4,1.2,3.8-0.5c0.9-4.3,1.1-8.2,3.5-12.1c1.1-1.8,2.6-3.5,4.6-4.3c1.6-0.5,3.1-0.3,4.6-1.2
		C316.8,383.3,317.1,382.1,316.5,381.3z"/>
	<path id="XMLID_189_" class="st10" d="M351.2,374.5c-3-1.9-7.1,3.5-8.8,5.5c-2.4,3.1-5.1,7-4.9,11.2c0.1,1.3,1.8,2.3,2.8,1.2
		c3.1-3.2,4.7-7.5,7.8-10.8C349.4,380.1,354.4,376.5,351.2,374.5z"/>
	<path id="XMLID_188_" class="st10" d="M369.5,357.3c-5.3,1.8-9.8,5.7-13.5,9.6c-2,2.2,1.1,5.3,3.2,3.2c3.8-3.4,7.9-5.4,12.4-7.7
		C374.3,360.9,372.6,356.3,369.5,357.3z"/>
	<path id="XMLID_187_" class="st10" d="M415,354.6c-2.8-3.5-9.6-3.5-13.3-2c-2.3,0.9-2,4.2,0.5,4.4c1.9,0.1,3.8,0.3,5.7,0.7
		c1.8,0.4,3.5,1.2,5.4,1.2C415.6,358.9,416.4,356.2,415,354.6z"/>
	<path id="XMLID_186_" class="st11" d="M270.1,454.8c-3.6-3-7.9-1.1-12.3-0.7c-5.1,0.5-10.2,1.2-15.4-0.1c-2-0.5-4.4,1.9-3,3.9
		c3.4,4.6,9.2,3.9,14.3,3.6c5-0.3,13.7,0.3,16.6-4.6C270.7,456.3,270.7,455.2,270.1,454.8z"/>
	<path id="XMLID_185_" class="st11" d="M396.3,427.2c-2.6,1.2-4.4,3.6-6.7,5.3c-2.3,1.5-5,2.6-6.7,4.7c-0.9,1.1-0.7,3.1,0.9,3.5
		c3.4,0.8,6.7-0.8,9.7-2.6s6.1-4.2,7.3-7.5C401.4,427.9,398.4,426.3,396.3,427.2z"/>
	<g>
		<path id="XMLID_184_" d="M264,303.4c11.2,0.8,22.5,0.4,33.7,0.9c0.4,0,0.4-0.5,0.1-0.7c-10.1-3.5-23.3-2.2-33.8-1.2
			C263.4,302.6,263.4,303.4,264,303.4z"/>
		<path id="XMLID_183_" d="M271,306.6c-0.8,0-0.8,1.3,0,1.3c5.5-0.3,11-0.4,16.6-0.3c5.3,0.1,10.5,1.2,15.6,0.7
			c0.4,0,0.5-0.5,0.1-0.7C293.6,304.9,281,305.8,271,306.6z"/>
		<path class="st5" d="M497.2,343.5c-2.3-5.4-7.1-10-10.4-15c-3.4-5.3-6.7-10.6-9-16.4c0-0.1-0.1-0.1-0.1-0.3
			c2.7-16.6-3.1-35.7-11.2-51.3c0,0,0-0.1-0.1-0.1c-1.9-3.5-3.8-6.9-5.8-10c-0.4-0.7-0.9-1.3-1.3-2c0.1-0.1,0.3-0.3,0.4-0.4
			c7.7-13.3,9.4-34.1,4.3-49.2c0.1-0.1,0.4-0.3,0.5-0.5c9.7-22,16.2-48.2,9.3-71.9c-2.8-9.8-6.7-17.9-13.9-25.3
			c-5.5-5.7-13.6-13.2-22.1-13.5c-4.4-36.8-29.5-67.6-66.6-79.4c-40.6-12.8-92.3-7.3-121,26.9c-0.3,0.3-0.3,0.5-0.3,0.8
			c-6.7,4.6-12.7,10.6-17.4,18.3c-5.8,7.1-10.1,15.1-13.3,23.4c-0.1,0.1-0.1,0.1-0.3,0.3c-5.4,8.2-16.8,7-21,15.6
			c-2.7,5.4-3.4,12.8-3.4,18.7c0,6.3,0.9,13.6,5.4,18.6c4.6,5.1,12.4,4.4,16.8,9.7c2.2,7.7,5.3,15,9.6,21.7
			c6.9,10.6,15.8,18.2,25.7,25.1c-1.9,1.2-2.7,3.8-2.8,6.6c0,0.1,0,0.3,0,0.5c-7.7-3.1-14.4,6.5-18.3,13.9c-0.1,0-0.4-0.1-0.7,0
			c-13.9,2.8-28.7-2.7-39.2-11.7c-12.3-10.5-15.1-24-14.3-39.6c0.5-8.2,10.4-46.7-9.4-42.3c-12.7,2.8-13.3,21.2-9.7,31.4
			c-10.1,5.4-20.9-7.4-29.9-10.1c-7.1-2.2-13.1-0.8-17.9,5.1c-4.3,5.3-4.4,11.2-2.2,16c-4.4,0.7-6.3,5.9-5.5,10.2
			c0.5,3.2,2.7,6.1,5.5,8.2c-3.2,4.2-0.8,8.1,3.2,10.8c-3.4,6.9,7.1,11.9,12.7,12.1c0.9,0,1.9,0,2.8-0.1l0,0
			c6.1,4.9,12,7.5,14.1,15.6c1.5,5.4,3.1,10.6,5.4,15.8c4.7,10.5,10.8,20.2,20.5,26.8c8.4,5.7,18.3,8.8,28.4,9.7
			c7.8,0.7,18.3,0.9,25.6-2.8c0.7,2.7,1.8,5.4,3,7.9c-0.9,2.6-1.8,5.3-2.6,7.9c-2.8,8.9-6.1,18.2-6.5,27.6c-0.3,0.4-0.4,0.8-0.1,1.2
			c0.1,0.1,0.1,0.3,0.3,0.4c0,0,0,0.1,0.1,0.1c1.1,1.3,2.4,2.6,3.8,3.6c-0.8,6.3-1.5,12.9-1.1,19.4c-0.9,0.3-1.9,0.9-2.6,1.8
			c-1.3,2-1.5,4.7-1.5,7.1c-0.1,1.9-0.5,4.4,0.7,6.2c0.7,1.1,1.9,1.6,3.2,1.9c-0.4,3.5-0.3,7.1-0.3,10.6c0,3.4-0.1,6.9,0.7,10.1
			c-3.4,1.9-5.8,5-6.3,9.4c-0.8,7,1.1,23.2,10.9,22.2c5.9,47.7,26.7,91.5,58.1,127.9c-4.6,17.1-15.9,34.9-12.1,53.1
			c3.2,15.2,17.1,18.9,30.9,13.9c17.8-6.5,30.4-20.1,39.5-36.4c7.7-13.9,15.8-37.7,3.6-51.3l-0.1-0.1c-1.9-3.4-4.6-6.5-7.1-9.6
			c-6.2-7.8-12.4-15.9-17.5-24.5c-9.3-15.4-16.8-33.4-19.3-51.3c0.1,0.1,0.3,0.3,0.5,0.4c0.1,0.5,0.4,0.9,1.1,0.9
			c2.8-0.1,5.4-3.4,6.7-5.8c0.7-1.3,1.9-4,1.5-5.9c4.6,0.4,9.2,0.1,13.7-1.1c4.2-1.2,10-2.8,13.5-6.2c0.5,0.7,1.2,1.2,2.2,1.8
			c0.4,0.3,0.9,0.1,1.3-0.1c0.4-0.4,0.8-0.7,1.2-1.1c1.2,19.9,5.5,39.1,22,51.9c9.2,7.1,18.7,11.7,29.9,15
			c8.6,2.4,17.8,6.3,27.1,7.3c-1.3,24.1,25.6,69.5,52.9,47.2c11-9,13.5-23.8,14-37.3c0.4-9-0.4-17.8-2.7-26.5
			c-1.6-6.9-3.1-14.3-6.5-20.5c-0.4-3.9-3.9-6.1-7.7-7.4c-8.5-3-17-2.8-25.3-7.1c-9.7-5-19.7-12-25.1-21.7c-4-7.3-6.5-15.4-7.3-23.6
			c16.6-2,21.3-24.4,25.3-37.6c0.8-0.7,1.6-1.5,2.3-2.3c-1.2,6.7-1.6,13.9-2,20.6c-0.4,5.5-0.5,16.3,7.9,15.9c7-0.4,9-8.8,9.8-14.1
			c0.3-1.5,0.9-3.9,1.5-6.5c1.6,11,5.1,24.4,15.1,21.7c8.1-2,7-11.7,4.6-20.6c1.5,2.6,3,5.3,5.5,7c3.1,2.2,8.2,3,10.4-0.9
			c1.8-3.1,0.9-7.4-0.1-11C497.1,354.2,499.4,348.8,497.2,343.5z M490.9,339.2c0.4,0.4,0.8,0.9,1.5,1.6c-0.3,0.9-0.4,1.9-0.8,2.7
			c-0.8,1.3-2,2.2-3.2,2.7c-1.3-2.4-3-4.7-4.7-6.9c0.9-0.4,1.8-1.1,2.3-1.8c0.5-0.5,1.3-1.9,1.5-3c0.3,0.4,0.5,0.7,0.8,1.1
			C489,337.1,489.9,338.2,490.9,339.2z M473.8,349.5c2,0,4.4-1.1,5.8-2.2c0.9-0.8,2.3-2.3,2.8-3.8c1.3,1.8,2.7,3.4,3.8,5.3
			c0.1,0.4,0.3,0.7,0.5,1.1c-0.4,0.8-0.5,1.8-0.9,2.6c-0.5,1.1-1.3,1.9-2.2,2.7c-1.6,1.3-3.6,1.8-5.7,1.8
			C476.3,354.5,475,352,473.8,349.5z M481.8,326.8c1.3,2.3,3,4.4,4.4,6.6l0,0c-0.4,0.4-0.4,0.8-0.5,1.3c-0.1,0.7-0.5,1.3-0.9,1.9
			c-0.4,0.5-0.8,1.1-1.5,1.5c-0.3,0.1-0.5,0.3-0.8,0.4c-0.9-1.1-1.8-2-2.7-3c-0.7-0.7-1.8,0-1.5,0.9c0.4,2,1.3,3.6,2.6,5.4
			c-0.1,0.7-0.3,1.3-0.5,1.9c-0.5,1.1-1.5,2-2.4,2.7c-1.8,1.1-3.4,1.2-5.3,1.3c-0.5-0.9-1.1-2-1.6-3c-0.5-0.9-1.9-0.3-1.8,0.7
			c0,0.1,0,0.1,0,0.3c-0.4,0.3-0.5,0.8-0.4,1.3c0,0.3,0.1,0.7,0.3,1.1c-1.3,1.5-2.3,2.8-4.7,3.4c-2.4,0.7-4.7,0.1-7-0.8
			c0-0.1,0-0.1,0-0.3c0-1.8-0.3-3.2-0.9-4.2c-0.4-0.7-1.3-0.7-1.8,0c-0.8,1.1-0.8,2.8-0.9,4.4c-0.7,0.5-1.3,0.9-2.2,1.3
			c-1.5,0.5-3,0.4-4.4,0.1c-2.6-0.5-4.9-1.9-6.6-3.8c0,0-0.1,0-0.1-0.1c0.5-4,0.8-7.3,0.7-8.8c0-0.3-0.1-0.5-0.4-0.7
			c-0.1-0.7-0.8-0.9-1.3-0.5c-0.1,0.1-0.3,0.3-0.4,0.3c-1.1-0.1-2-0.1-3.1-0.5c-1.5-0.7-2.8-1.9-3.6-3.2c-0.8-1.3-1.1-2.7-1.1-4.3
			c0-0.5,0-1.1,0-1.6c2.2-2.2,3.6-4.4,4-7.4c2.4,0.7,5.5,1.1,8.9,1.5l0,0c2,8.6,8.8,17.1,18.6,14.7c9.2-2.3,13.3-12.1,9.8-20.5
			c0.8-0.7,1.6-1.5,2.3-2.3h0.1C476.3,319,479.7,323.3,481.8,326.8z M458.9,359.8c-0.4-2.6-0.7-5.1-1.1-7.7c1.9,1.3,4.6,1.5,6.9,0.9
			c1.6-0.4,3.8-1.5,5.1-3c0.5,1.8,1.2,4,1.9,6.5c-1.1,1.8-2.2,2.8-4.2,3.9C464.5,361.9,461.9,361.5,458.9,359.8L458.9,359.8z
			 M451.1,368.5c-0.9,0.1-1.6,0.9-2.6,1.3c-1.2,0.4-2.7,0.4-3.9,0.3c-2-0.3-3.5-1.6-5.3-2.3c-0.1-2.4-0.1-5.3,0-8.2
			c1.6,1.9,3.9,3.2,6.3,3.4c2,0.1,4.4-0.4,6.3-1.6C451.9,363.1,451.8,365.8,451.1,368.5z M440.5,349.9c1.8,2.3,4.6,3.6,7.4,3.9
			c1.8,0.1,4.3-0.1,6.1-1.1c0,0.1,0,0.1,0,0.3c-0.3,2.2-0.8,4.2-1.2,6.3c-2,1.3-3.9,2.3-6.7,2c-2.7-0.3-4.2-2-6.2-3.4
			C439.8,355.1,440.2,352.4,440.5,349.9z M386.9,373c-3.6,0.1-7.1-0.8-10.6-1.6c-1.6-3-2.8-5.9-3.1-9.4c-0.4-3.4,0.5-6.5,1.2-9.7
			c6.2-3.8,15.5-4.9,22.5-2.6c3.1,6.6,3,13.7,1.2,20.6C394.1,371.6,390.9,372.8,386.9,373z M351.7,372c1.1-4.6,6.5-8.5,10.1-11
			c2.8-2,5.8-3.8,9-5.1c-0.3,2-0.3,4-0.3,5.5c0.3,3.5,1.1,7.1,3.1,10.1C368.3,374.1,349.1,383.1,351.7,372z M400.2,351.6
			c4.6-0.4,9.2-0.9,13.2,1.9c0.1,0.1,0.3,0.1,0.4,0.1c0.7,1.9,0.5,4.2,0.4,5.9c-0.1,3,0.3,7.5-2,9.4c-0.1,0-0.3,0.1-0.4,0.1
			c-0.3,0.1-0.5,0.3-0.8,0.4h-0.1l0,0c-0.4-0.3-0.9-0.3-1.3,0c-0.8,0-1.5,0-2.2-0.1c-1.9-0.3-3.9-0.7-6.1-1.1
			C402.6,363.3,402.5,356.3,400.2,351.6z M409.8,341.4c-0.1,2.6-0.8,5.4-0.4,7.9c-3.2-0.4-6.7,0.1-10.2,0.4l0,0
			c-0.3-0.4-0.7-0.8-1.1-1.2l0,0c0-0.1-0.1-0.1-0.3-0.3c-6.2-4.2-19.3-1.2-24.9,3c-0.3,0.3-0.4,0.5-0.4,0.8
			c-0.3,0.4-0.7,0.9-0.8,1.5c-4.4,1.5-8.6,3.9-12.5,6.7c-1.9,1.3-4,3-5.8,5c-1.6,0.4-3.9,3.6-5.1,4.9c-1.9,1.8-3.9,3.5-5.7,5.5
			c-2.2,2.7-3.6,5.7-5,8.6c0.3-2.4,0.7-4.9,1.2-7.3c1.9-7.7,3.9-16,7.4-23.2c3.5-0.8,7-1.8,10.1-3.2c6.2-1.2,12.4-2.7,18.5-4.4
			c11.5-3.2,24.9-6.3,35.7-11.9C409.9,336.5,409.8,338.8,409.8,341.4z M326.2,382.7c0.5-4,0.7-8.2,1.5-12.3c0.9-5.1,3-10,4.4-15
			c3.5-0.3,7-0.7,10.4-1.2c-3.1,5.5-4.3,13.1-5.5,18.9c-1.5,6.7-2.2,13.2-2.7,19.9C332.2,389.3,329.5,385.6,326.2,382.7z
			 M264.9,380.3c0.4,2.8,0.3,6.1-0.3,8.9c-0.7,3.4-1.9,6.5-3,9.7c-7.7-1.2-14.6-0.5-21.8-4c0,0,0,0-0.1,0c0,0,0.1,0,0.1-0.1
			c4.6-5.5,5.1-17.9,1.6-24.5c7.9-0.4,17.5-1.1,22.9,6.5C264.4,378,264.8,379,264.9,380.3z M274,402.7c-3.2-0.9-6.6-2.3-9.8-3.5
			c3.4-5.4,4.3-12.9,3.4-19.4c1.8,0.8,3.5,1.5,5.1,2.4c1.2,0.5,2.3,1.2,3.4,2c0.8,0.5,1.5,1.2,2.3,1.6c2.3,4,5,7.8,8.2,11.2
			C286.2,403.2,278.7,404,274,402.7z M280.6,383.8c-4.3-8.8-6.3-17.1-7.3-26.7c3.5,0.3,7,0.4,10.4,0.5c-0.8,10.9,3.5,26.1,12.1,33.1
			c-1.1,3.1-1.5,6.5-1.2,9.7c-2-1.6-4-3.1-6.1-5C285,392.2,282.6,388.1,280.6,383.8z M227.9,348.8c-0.4-2.2-0.9-4.2-0.9-6.5
			c0-2,0.3-5,1.5-6.9c4.4,0.8,8.9,1.8,13.3,2.6c-0.9,1.9-1.2,4.4-1.2,6.5c0,1.6,0,4.2,0.7,6.2C236.9,350.1,232.5,349.6,227.9,348.8z
			 M243.4,350.9c-0.5-2-1.1-3.9-1.1-6.1c0-2.3,0.3-4.6,1.1-6.6c4.7,0.9,9.3,1.8,14.1,2.3c-1.2,3.8-1.3,8.6,0.1,12.4
			C252.8,352,248.1,351.5,243.4,350.9z M259.3,353.2c-0.3-1.9-0.9-3.6-1.1-5.7c-0.1-2.3,0.1-4.6,0.7-6.7c2.2,0.3,4.3,0.5,6.6,0.7
			c2.7,0.3,5.5,0.3,8.4,0.4c-0.5,1.6-0.7,3.4-0.5,5.1c0.1,2.2,0.4,4.9,1.1,7.1C269.2,353.8,264.3,353.5,259.3,353.2z M407.7,322.5
			c0,1.6,0.8,3.4,0.9,5c0.1,1.1,0.1,2.3-0.1,3.4c-0.1,0.5-0.4,1.1-0.7,1.6c-4.2,1.3-8.2,2.8-12.4,4.2c0.3-1.3,0.1-2.7,0.1-3.8
			c-0.1-1.6-0.5-3.5-1.5-5C398.8,326.4,403.4,324.7,407.7,322.5z M392.5,328.5c0.5,1.8,1.2,3.2,1.3,5.1c0.1,1.2-0.1,2.4-0.1,3.6
			c-4.9,1.6-9.6,3.2-14.4,4.9c0.4-1.3,0.3-3,0-4.2c-0.3-1.9-0.7-3.6-1.6-5.4C382.7,331.4,387.7,330.1,392.5,328.5z M376.5,332.9
			c0.4,1.5,0.8,3,1.1,4.4c0.3,1.8,0,3.5,0.1,5.3c-1.2,0.4-2.4,0.8-3.8,1.1c-3,0.8-5.9,1.6-9,2.4c0.1-1.3-0.1-3-0.3-3.9
			c-0.3-2.2-1.1-4.4-2.4-6.2C366.9,335.1,371.6,334,376.5,332.9z M360.7,336.4c1.1,2,2,3.9,2.4,6.3c0.3,1.2-0.1,2.7,0,3.9
			c-5.9,1.3-11.9,2.6-17.8,3.6c0.5-3.4,0-7.7-1.2-10.6c4.4-0.7,8.9-1.5,13.2-2.4C358.4,336.8,359.5,336.5,360.7,336.4z M342.7,339.8
			c0.4,2.3,0.9,4.4,1.1,6.7c0,1.3-0.1,2.7-0.1,4c-0.5,0.1-1.1,0.1-1.6,0.3c-2.2,0.4-4.4,0.7-6.6,0.9c-2.4,0.3-5,0.5-7.4,0.7
			c0.1-1.2-0.1-2.7-0.1-3.8c-0.1-2.4-0.7-4.9-0.9-7.1C332,341.1,337.4,340.4,342.7,339.8z M325.3,341.5c0,2,0.5,3.9,0.7,5.9
			c0.1,1.6-0.1,3.4,0,5.1c-4.7,0.4-9.3,0.9-14,1.3c-0.1-1.6-0.8-3.2-1.1-4.9c-0.4-2.4-0.4-4.9,0-7.1
			C315.7,342.1,320.4,341.9,325.3,341.5z M309.7,341.9L309.7,341.9c-0.9,3.6-1.1,8.9,0.9,12.1c-0.4,0-0.7,0-1.1,0.1
			c-5.1,0.5-10.2,0.7-15.4,0.7c-0.3-1.3-0.9-2.8-1.2-4c-0.5-2.8-0.9-5.8,0.4-8.5C298.7,342.6,304.4,343,309.7,341.9z M291.2,348.9
			c0.3,1.5,0.5,3.9,1.2,5.8c-5.7-0.1-11.2-0.4-16.8-0.7c0-1.5-0.4-3-0.7-4.4c-0.3-2.7-0.4-5.3,0.4-7.8c4.9,0.1,9.7,0.1,14.6,0.3
			c0.7,0,1.2,0,1.9,0.1C290.8,344.2,290.9,346.8,291.2,348.9z M297,387.9c-2.8-4.4-5.8-8.4-7.5-13.6c-1.9-5.4-2.4-10.9-3-16.6
			c8.4,0.1,16.7,0,24.7-0.8c5.7-0.5,12-0.7,18.3-1.1c-3.5,7.7-5.3,16.7-5.5,25.2c-5-3.5-11-5-17.2-2.4
			C302.2,380.3,299,383.8,297,387.9z M411.1,331.4l-0.1,0.1l0,0c-0.4,0.1-0.8,0.3-1.1,0.4c0.3-1.1,0.3-2.3,0.3-3.2
			c0-1.9-0.1-5-1.2-6.7c1.8-0.8,3.4-1.8,5-2.7c0.1,0,0.1-0.1,0.3-0.3c0.5-0.1,0.9-0.1,1.5,0.3c0.4,0.4,0.5,1.6,0.5,2.2
			c0.1,1.3,0.3,2.7,0.1,3.9c0,0.3,0,0.5,0,0.8c-0.1,1.1-0.4,2.3-1.2,3.1C413.9,330.3,412.3,330.5,411.1,331.4z M432.5,225.9
			c-3.1,2.7-3.4,7.5-3.6,11.3c-0.5,6.9,0.5,12.8,5.1,18.2c5.9,7.1,21.3,14.1,30.2,8.4c3,6.7,5.4,13.7,7,20.9c-1.8,1.9-3,4.2-5.1,5.9
			c-3.2,2.8-7.1,4.9-11.2,6.2c-3.8,1.3-7.8,2.6-11.7,3.4c-4.6,0.9-8.8,0.1-13.3-0.3c-0.5-1.2-1.2-2.3-1.8-3.2
			c-3.9-7-10.4-16.4-18.9-17.9c-1.2-0.3-1.9,1.3-0.8,2c2.7,1.8,5.3,3.6,7.4,5.7c-14.7,4.2-18.7-28.3-18.3-36.1
			c0.4-7.3,1.9-14.4,5.3-20.9c0.9-1.8,4.6-7.9,8.5-11c0.1,0.1,0.3,0.3,0.5,0.3C419.5,219.7,426.3,222.3,432.5,225.9z M474.4,310.7
			c-10.4,10.6-24.8,8.9-38.7,8.4c0.1-2.4-0.3-5-0.9-7.5c10.6,3.2,31.7-0.4,39.2-10.4C474.2,304.5,474.4,307.6,474.4,310.7z
			 M461.2,335.9c-8.6,1.1-12.7-6.2-15.5-13.1c8.6,0.5,18.9-0.4,25.5-4.6C472.5,326.2,470.9,334.8,461.2,335.9z M458.1,306.9
			c-7.9,2.6-16.2,3.8-24.1,2c-0.8-2.3-1.8-4.6-2.8-6.6c9.4,1.9,18.5-0.1,27.3-4c3.6-1.6,10.8-5.1,13.5-9.7c0.5,2.6,0.9,5.3,1.3,7.8
			C469,301.2,464.9,304.7,458.1,306.9z M416.8,296.7c0.3-0.8,0.4-1.6,0.5-2.3c0.3-1.5,0.3-4-0.8-5.3c0.5-0.1,0.9-0.4,1.5-0.7
			c0.9,0.9,1.9,2,2.8,3.1C419.6,293.8,418.2,295.4,416.8,296.7z M395.1,246.3c-0.4,3-0.5,6.1-0.4,9.3c-3.1,1.5-8.8,3.2-11.7,0.8
			c-0.1-1.9-0.1-3.6-0.1-5.5c0-2.4,0-4.9,0.1-7.3c1.9-1.1,4.9-1.2,6.7-0.9c1.5,0.1,3.1,0.4,4.4,1.2c0.5,0.3,0.8,0.7,1.3,0.9
			C395.2,245.2,395.2,245.7,395.1,246.3z M395.7,242.5c-1.6-1.2-4.7-1.5-6.1-1.6c-2.4-0.1-5,0.3-6.7,1.8c0.3-4.2,0.8-8.4,1.6-12.4
			c2.3-1.9,5-2.7,8.1-2c1.3,0.3,2.8,0.8,3.9,1.6s1.3,2,2,3C397.4,235.9,396.3,239.3,395.7,242.5z M421.5,217.8
			c-0.3-0.1-0.7-0.3-0.9-0.3c-1.2-2.8-3-4-4.9-4.2c0.3-2.8-1.8-6.7-2.8-8.1c-1.3-1.8-3.5-3.2-5.8-4c1.8-0.3,3.5-0.1,5.3,0.4
			C420,204,421.5,211.1,421.5,217.8z M402.8,202.6c3.5-0.3,6.5,0.9,8.8,3.9c1.2,1.5,2,3.2,2.3,5.1c0.1,0.7-0.1,1.5-0.3,2.2
			c-1.9,0.5-3.8,1.9-5.4,3.6c-0.7,0.7-1.2,1.3-1.8,2c-0.7-3-3.6-5.8-6.1-7c-2.3-1.1-5-1.5-7.5-0.9
			C395.1,208,398.7,204.5,402.8,202.6z M391,213.9c3-1.2,5.9-1.6,9,0.3c3.1,1.8,3.6,4.2,4.9,7c-2.2,2.8-3.9,5.9-5.4,9.2
			c-1.1-2-4.9-3.6-6.5-3.9c-2.8-0.5-5.7,0-7.9,1.3C386.5,223,388.3,218.2,391,213.9z M394.7,256.9c0.1,3.5,0.7,7.1,1.5,10.5
			c-2,0.7-3.8,1.9-6.1,2.2c-1.9,0.3-3.6,0-5.4-0.4c-0.8-3.6-1.3-7.3-1.8-11C386.3,259.7,391.8,258.8,394.7,256.9z M396.6,268.5
			c0.8,3.1,2,6.2,3.5,9c-0.5,0.4-0.8,0.9-1.2,1.5c-0.9,1.1-2.3,1.8-3.6,2.3c-1.8,0.7-3.6,0.9-5.5,0.7c-2-3.5-3.5-7.3-4.6-11.3
			C389,271.7,394.1,271.5,396.6,268.5z M395.7,282.9c1.5-0.5,4.3-1.9,5.3-3.8c1.5,2.4,3.6,5.3,6.1,7.3l-0.1,0.1
			c-0.5,0.8-0.7,1.8-1.2,2.6c-0.7,0.9-1.6,1.6-2.6,2.2c-1.3,0.7-2.8,0.8-4.3,0.9c-1.8-1.5-3.4-3-4.7-4.4c-1.2-1.3-2.3-2.7-3.2-4
			C392.5,283.9,394.3,283.6,395.7,282.9z M404.4,292.7c1.8-0.9,3.9-3.1,3.8-5.3c2.2,1.5,4.4,2.3,6.7,1.9c0.5,1.6,0.9,3,0.7,4.7
			c-0.1,1.2-0.5,2.6-1.1,3.6c-4.2,1.5-9.2-0.5-13.6-3.6C402.2,293.8,403.4,293.3,404.4,292.7z M418.8,299.3
			c-0.5,5.7-1.2,11.6-1.8,17.5c-0.7-0.4-1.3-0.7-2-0.5c0.8-3,1.3-5.9,1.9-8.9c0.4-2.3,0.9-4.9,0.5-7.1
			C417.7,300,418.2,299.8,418.8,299.3z M418.2,328.2c0.4-1.5,0.4-3,0.4-4.6c0-0.9,0.1-1.9,0-2.8c0.5-7.9,1.5-15.6,2.2-23.2
			c0-0.1,0-0.1,0-0.3c0.7-0.9,1.3-2,1.9-3.2c1.1,1.6,2.2,3.2,3.1,5.1c3.9,7.1,4.6,14.3,6.9,21.6c-0.5,2.8-1.6,5-4.6,7.4
			c-2.6,2.2-5.4,4-7.4,6.6c-1.1,1.3-2.2,3.2-2.8,5.3C418,336.1,418,332.2,418.2,328.2z M421.3,339.1c0.5-1.1,1.2-2.2,2-3
			c-0.1,2.3,0.5,4.7,2.4,6.3c1.2,1.1,3.1,2.3,5,2.8c-1.1,0.7-2.3,1.3-3.6,1.8C421.6,348.9,418.9,344.2,421.3,339.1z M432.7,343.9
			c-1.9-0.4-3.8-0.7-5.4-2.4c-1.9-2-2.6-4.4-2.3-7c0.5-0.4,0.9-0.8,1.5-1.2c1.2-1.1,2.4-2,3.5-3c-0.1,2.3,0.7,4.7,2,6.3
			c1.2,1.5,3.4,3.1,5.5,3.4C435.9,341.4,434.3,342.7,432.7,343.9z M462.8,260.7c-8.8,2.7-18.2,0.9-25.3-5.7
			c-6.2-5.8-9.3-20.6-3.1-28C446.7,234.8,456.2,246.9,462.8,260.7z M457.5,246c-7.3-10-17-19.5-28.3-25.1c2-12.5,7.7-35.7,23-34.5
			c3.4,3.4,6.2,7.3,7.9,12C466.2,213.8,462.6,230.9,457.5,246z M462.7,195.6c-0.1-0.3-0.3-0.7-0.4-0.9c-3-6.2-7.3-10.9-12.5-14.7
			c0.4-0.7,0.7-1.5,1.1-2.3c1.5,3.1,4.4,5.3,7.9,6.1c2.7,0.7,6.1,0.5,8.5-1.1C465.8,187.3,464.3,191.4,462.7,195.6z M378.6,195.3
			c-2.8,1.3-5.5,2.6-8.2,3.5c3.2-1.6,6.3-3.4,9.3-5.3c0.1,0,0.3,0,0.4,0c6.7-4.2,12.5-7.5,18.3-13.3c5-5,9-11.5,14.8-15.5
			c0.8-0.1,1.6-0.1,2.4-0.3C406.3,177.6,393.1,188.1,378.6,195.3z M417.2,103.5c0.9,1.2,2.2,2.2,3.6,3c3.2,1.9,7,2.2,10.1,4.3
			c6.2,4.2,6.1,11.5,4.7,18.1c-1.6,7.7-4.2,17.1-7.8,24.1c-2.2,4.2-5,6.1-8.4,7.3c-0.3,0-0.7,0.1-0.9,0.3c-4,1.2-8.6,1.2-13.1,2.3
			c3.5-7.4,6.2-15.2,8.4-23.2C416.8,128.5,418.1,115.7,417.2,103.5z M404,165.8c0.1,0,0.3,0,0.4,0c1.3-0.3,2.7-0.5,4-0.7
			c-3.1,2.6-5.7,6.7-8.4,9.7c-1.6,1.8-3.4,3.4-5.3,5C398.3,175.5,401.3,170.8,404,165.8z M420.7,163.4c2.4-0.8,4.7-2,6.6-4.2
			c5.3-5.8,7-15.4,9.2-22.6c0.5-1.8,1.1-3.6,1.5-5.5c1.2-3.8,2-8.1,2-12.3c20.5,11.2,14.8,41.5,7.3,59.4c-9-5.5-20.1-8.1-30.6-9.3
			C418,167.2,419.3,165.4,420.7,163.4z M472.1,133.5c0.9,5.4,1.3,10.8,1.2,16.2c-0.3,0.5-0.7,1.2-1.2,1.8c-1.3,1.5-3.2,2.6-5.1,3
			c-3.4,0.8-7.1-0.1-9.7-2.6c0.3-4.6,0.1-9-0.7-13.3c3.6,1.2,7.5,0.1,10.9-1.6c1.6-0.8,3.4-2.3,4.6-3.9
			C472,133.2,472.1,133.4,472.1,133.5z M471.9,164.2c-2.2,1.6-4.2,3.2-7,3.8c-3.8,0.7-6.7-0.7-9.6-3c0.8-3.5,1.5-7.1,1.9-10.9
			c2.7,2.2,6.3,2.3,9.8,1.3c1.8-0.4,4.4-1.5,6.3-3.1C472.9,156.3,472.5,160.3,471.9,164.2z M468,180.7c-3,1.5-5.5,2.7-9,1.5
			c-3.2-1.1-5.7-3.5-7.1-6.5c1.2-2.8,2.2-5.8,3.1-9c4.4,3.9,12.3,3.9,16.6-0.1C470.5,171.4,469.3,176.1,468,180.7z M466.1,135.4
			c-2.8,1.5-6.6,2.6-9.8,1.8c-0.9-4.4-2.6-8.6-5.1-12.1c3.4-0.1,6.6-2.4,8.9-4.7c1.6-1.6,4.2-4.7,4.7-7.5c3,5.5,5.3,11.6,6.6,17.2
			C470.4,132.3,468.8,134,466.1,135.4z M463.5,110.6c-0.4,1.1-0.7,2.3-1.1,3.5c-0.8,1.8-1.9,3.4-3.2,4.7c-2.4,2.4-5.5,4.4-8.9,5
			c-2-2.4-4.4-4.6-7.4-6.2c4.7-2.2,8.1-7,9.2-11.9c0.5-2,1.2-5.7,0.7-8.6C456.9,100.9,460.6,105.6,463.5,110.6z M449.6,95
			c2,3,1.5,7.4,0.7,10.8c-1.3,5-4.7,8.6-9.2,11c-0.4-0.1-0.9-0.4-1.3-0.5c-0.3-2-0.8-4-1.8-5.8v-0.1c0.8-7,0.8-13.9,0.1-20.6
			C442.2,90.7,446.1,92.5,449.6,95z M368.4,10.6c42.8,12.8,69.2,51.7,66.3,95.8c-3.4-3.1-7.4-5.4-10-9.6c-3.1-5.3-3.8-11.6-5.5-17.2
			c-3.5-11.9-8.8-22.4-18.6-30c-9.6-7.5-21-12.9-32.7-16.4c-32.1-9.6-79.5-17.8-111.6-0.9C285.1,3.9,330.8-0.7,368.4,10.6z
			 M290.5,25.6c24.3-1.8,50.7,2.8,74,9.3c11.6,3.2,22.6,7.8,32.5,14.8c11.3,8.2,16.8,19.9,20.3,33.1c2,7.4,3.2,14.7,8.9,20.2
			c2,2,4.3,3.6,6.1,5.3c-0.5-0.4-1.1-0.7-1.8-1.1c-1.9-0.9-3.9-1.3-5.8-2.2c-5.3-2.3-6.9-4.9-8.5-9c-0.7-4-1.5-7.9-2.7-11.7
			c0-0.1-0.1-0.4-0.3-0.5C409,68.6,399.7,55.4,383.5,47c-24.7-12.7-52.4-17.6-80-18.6c-22.5-0.8-46.9,2.4-63.9,18.6
			c-1.3,1.3-2.7,2.7-4,4.2C248.2,34.6,270.5,27.1,290.5,25.6z M211.4,133.2c-9.8-3.6-13.7-9.2-14.1-19.8c-0.3-7.3,0.5-17.4,6.5-22
			c4.6-3.5,9.8-4.7,13.9-8.4c-3.8,12-5,24.9-4.2,37.6c0.4,4.7,0.9,9.6,2,14.1C214.3,134.3,212.8,133.8,211.4,133.2z M227.6,158.6
			c-3.4-5.5-5.8-11.6-7.7-17.9l0,0c-0.1-0.5-0.3-1.1-0.4-1.6c-2.7-10-3.6-20.6-3.2-30.6c1.2-32.2,18.3-64.9,51.1-74.2
			c28.2-7.9,62.6-3.2,90.1,5c14.1,4.2,30.3,10.2,40.6,21.4c7,7.5,10.9,15.8,13.3,24.5c1.8,16.4,3.9,31.8,0.5,48.4
			c-4.3,21.4-14.1,43.8-32.6,56.3c-12.8,8.8-27.6,13.5-42.7,15.1c-2.7,0.1-5.4,0.3-8.2,0.4c-0.1,0-0.1,0-0.3,0.1
			c-5.3,0.1-10.5-0.1-15.8-0.8c-18.6-2.3-39.2-7.1-55.4-17.6C245.8,178.2,235.3,171.4,227.6,158.6z M254.7,189
			c0.7,0.5,1.5,0.9,2.2,1.5c0.3,0.3,0.7,0.3,0.9,0.1c15.1,10,33.7,14.6,51.3,17c10.9,1.5,22,1.6,32.9,0c13.2-0.8,25.7-3.2,38.3-9.6
			c1.5-0.8,3.1-1.6,4.6-2.4c14,7.4-3.9,16.3-10.4,18.5c-5.5,1.9-11.2,3.4-17,4.3c-12.5,2.2-25.5,3.4-38.1,2.6
			c-12.8-0.7-25.1-2.4-37.3-6.5c-6.2-2-12.7-4.4-18.5-7.5c-2.3-1.2-4.7-2.7-6.6-4.4C254.8,200.5,248.2,190.9,254.7,189z
			 M234.5,320.4c-3-3-6.7-5.3-10-7.8c-1.6-1.2-3.2-2.7-4.9-3.9c5.7-0.3,11.5-1.8,17.1-2.2c6.3-0.5,13.3-0.7,19.5-2.4
			c4.4-1.2,7-4.3,9.4-8.1c1.9-3.2,3.4-6.6,5.8-9.4c3.9-4.6,8.6-5.8,14.1-6.6c2.8,0.7,5.5,1.6,7.7,3.9c3.6,3.9,3.9,9.2,5.7,13.9
			c1.5,4.4,4.4,7,8.6,8.9c11.7,5.3,24.8,3.8,37.2,5.9c1.3,2.2,3.4,4,5.1,5.8c0.9,0.9,1.9,1.9,2.8,2.8c-16.2-0.8-32.5-0.8-48.6-1.2
			c-11.7-0.3-23.4-0.3-35.3-0.3C257.5,319.8,245.7,319,234.5,320.4z M235.4,252.1c4.3-7.8,8.4-15.8,13.3-23.2
			c4.4-6.7,10.1-12.8,14.6-19.5c12.1,7.1,26.4,11,40.4,12.9c-11,15.5-18.2,36-20.7,54.7c-3.1,0.1-5.8,1.1-8.1,2.6
			c-16.6-1.6-34.5-1.6-50.9,0.8C226.9,270.5,230.4,261.1,235.4,252.1z M235.2,206.7c2.4-0.1,4.9,0,7.1,0.8c2.7,0.9,4.2,2.8,6.3,4.4
			c-1.3,2.3-2.7,4.7-3.8,7.1c-0.4-2.2-3.8-3.9-5.5-4.6c-2.6-0.9-5.8-1.2-8.4,0.1C232.1,212.2,233.4,209.4,235.2,206.7z M256.7,205
			c0.8,0.5,1.6,1.1,2.4,1.6c0.7,0.4,1.3,0.9,2,1.3c-7.5,9.2-14.1,18.6-20.2,28.6C245,225.5,249.8,214.7,256.7,205z M230.4,215.8
			c0.1,0,0.1,0,0.3,0c2.7-0.7,5.3-0.9,7.8,0c1.2,0.4,2.6,1.1,3.6,1.9c0.8,0.7,1.3,1.6,2.2,2.2c-1.5,3-2.7,6.1-3.9,9.2
			c-1.2-1.5-3.8-2.7-4.9-3.1c-2.8-1.2-6.3-0.8-9.3,0.3c0.9-3,2.2-5.9,3.4-8.8C229.9,216.9,230.2,216.4,230.4,215.8z M225.9,227.5
			c2.8-0.5,5.8-1.5,8.6-0.5c1.1,0.4,2.3,0.9,3.2,1.6c0.9,0.7,1.3,1.3,2,2c-1.2,3.2-2.4,6.5-3.5,9.8c-1.3-1.6-4-2.4-5.7-2.8
			c-2.2-0.4-5.1-0.5-7.3,0.4C224,234.5,224.8,230.9,225.9,227.5z M222.9,239.8c2.3-0.9,4.9-1.1,7.1-0.5c2.6,0.5,3.9,1.5,5.4,3.2
			c-0.8,2.3-1.5,4.4-2.2,6.7c-0.1,0.3-0.1,0.4-0.1,0.7c-0.7,1.2-1.2,2.3-1.9,3.5c0,0.1-0.1,0.1-0.1,0.3c-1.5-1.1-3-2.4-4.9-2.3
			c-1.5,0-2.8,0.7-4.2,1.2C222,248.3,222.2,244,222.9,239.8z M344.6,309.5c-13.1-3.6-34.5,3-42-10.9c-2.8-5.3-2.7-11.6-6.9-16.2
			c9.3,0.7,18.6,1.1,27.9,2c7.3,0.7,15.1,3,22.5,3.1C344.8,294.9,344.4,302.2,344.6,309.5z M346.3,285.2c-5.9-2.3-15.2-1.9-20.7-2.6
			c-10.5-1.1-21.4-2.7-31.9-2.2c-1.5-1.1-3.1-1.9-4.9-2.4c-0.1-0.3-0.4-0.5-0.8-0.7c-1.1-0.3-2-0.3-3-0.4c3.1-8.9,4.7-18.2,7.8-26.9
			c3.4-9.8,8.8-18.2,13.2-27.5c4,0.5,7.9,0.8,11.9,1.1c17.6,0.9,37.5-0.4,54.7-5.8c-2.2,2.6-4,5.5-5.7,8.1
			c-5,7.7-8.9,15.8-11.9,24.4C351.3,261.4,348.1,273.2,346.3,285.2z M355.6,320.2c-0.9-1.2-2.3-2.4-3.2-3.4
			c-1.9-1.9-3.8-3.9-5.7-5.9c0-0.1-0.1-0.4-0.1-0.5c1.2-18.5,4.2-36.1,9.7-53.9c2.6-8.1,5.5-16,9.8-23.4c3.2-5.7,7.5-13.9,13.2-17.5
			c-7.3,12.4-9.8,27.8-12.8,41.5C361.9,278.1,358.8,299.2,355.6,320.2z M250.2,197.8c0.8,2.2,2.4,3.9,4.3,5.5l-0.1,0.1
			c-0.3,0.4-0.5,0.8-0.9,1.2c-0.4-2.3-2.7-4.6-4.3-5.7c-1.5-0.9-3.1-1.8-4.9-1.9C246.2,196.4,248.1,196.6,250.2,197.8z M241.9,198.6
			c2.3-0.5,4.9,0.4,6.7,1.9c0.9,0.7,1.8,1.6,2.6,2.4c0.8,0.9,1.1,2,1.3,3c-1.2,1.8-2.4,3.6-3.5,5.5c-1.2-5-8.2-6.7-13.1-6.1
			C237.7,202.6,239.6,200.1,241.9,198.6z M189.3,198.7c-5.3,18.9-22.4,28.3-41,29c-1.3-3.4-2.4-6.7-3.5-10.2
			c15.4,1.5,35-8.6,39.3-24.1C185.7,195.2,187.5,197,189.3,198.7z M159.2,145.4c-0.8-4-1.5-9.2-1.1-14c5-3.1,15.5-3.1,18.9,2.4
			c-0.1,2.8-0.5,5.3-0.7,6.6c-0.4,2.6-0.7,5.3-1.1,7.8C172.1,143.3,164,142.8,159.2,145.4z M165.6,117.7c10.1-4.7,11.7,5,11.5,13.5
			c-4.4-4.4-13.3-4.4-18.7-1.9C159,124.3,161.1,119.9,165.6,117.7z M108.9,158.7c1.8,2.7,4.3,4.9,7.4,6.3c-3.1,2.3-3.4,7.4-1.8,11
			c-1.3-0.5-2.7-1.3-4-2.2C106.1,170.8,100.8,161.9,108.9,158.7z M120.6,147.1c0.1,0.1,0.3,0.3,0.4,0.4c3.4,1.5,7.1,1.5,10.8,1.9
			c-3.9,3.4-4.3,10.5-2,14.8c-5,0.7-10.5,0-14.6-2.7c-0.8-0.5-1.5-1.2-2.2-1.8C110.8,154.5,114.8,146,120.6,147.1z M131.7,186.4
			c0-0.1-0.1-0.4-0.3-0.5c-2-1.5-2-4.7-0.9-6.7c3.4-0.8,6.6-2.2,9.3-3.8C141.7,180.4,137.5,184.4,131.7,186.4z M125.1,195.5
			c-0.9-1.5-0.8-3,0-4.6c3.5,0,7.1-0.8,10.4-2.4C134.9,193.3,130.1,195.5,125.1,195.5z M116.9,176.7c-2.3-2.8-2.4-8.9,1.1-10.8
			c0.1,0,0.3,0,0.4-0.1c0.9,0.3,1.9,0.7,3,0.8c2.4,0.4,6.2,0.4,10.1-0.3c-1.6,3.2-1.6,6.9,0.7,9.7c-3.1,1.1-6.5,1.5-9.6,1.5
			C120.6,177.7,118.8,177.4,116.9,176.7C117,176.9,117,176.9,116.9,176.7z M118.3,187.3c-1.1-2-1.8-5.5,0-7.1
			c2.8,0.4,6.3,0.3,10.1-0.5c-0.8,2.6-0.4,5.5,1.6,7.4C126.3,187.9,122.1,188.1,118.3,187.3z M139.9,171.5c-1.3,1.3-3,2.4-4.6,3.4
			c-0.5,0.3-0.9,0.5-1.5,0.8c-2.6-2.8-2.3-6.5-0.1-9.6c3.5-0.8,6.7-2.2,8.9-4.3C143.4,164.9,141.9,169.3,139.9,171.5z M133.2,163.5
			c-0.5,0.1-1.1,0.3-1.6,0.4c0-0.1,0-0.1-0.1-0.3c-2.3-4-1.6-11.6,2.8-13.9c1.3,0.3,2.7,0.7,3.9,1.2
			C146.4,155.1,139.1,161.8,133.2,163.5z M109.2,176.3c2.3,1.6,5,2.8,7.4,3.4c-1.1,1.9-0.9,4.6-0.3,6.9
			C112,185,109.1,181.7,109.2,176.3z M113.2,187.4c3.5,1.9,7.4,3.1,10.1,3.4c-0.7,1.5-0.7,3.1-0.1,4.4
			C117.7,194.8,112.6,191.8,113.2,187.4z M129.8,197.6c2.4-0.7,4.6-2,6.2-4c1.6-2,3-4.6,2-6.9c0.9-0.7,1.9-1.5,2.6-2.4
			c2.3-2.8,3.8-7.7,1.5-10.8c4.4-3.6,6.3-8.6,2.6-14.8c0.7-1.5,0.8-3.1,0.4-5.1c-1.9-8.6-17.1-6.2-23.2-8.5c-0.4-0.1-0.7,0-0.9,0.1
			c-5.8-1.1-10.4,5.3-10.2,11c-3.8-7.1,0.3-16.7,9.6-18.1c8.1-1.2,13.7,3.4,20.5,7.1c4.9,2.8,12.7,5.5,17.8,2
			c0.4,0.1,0.8-0.1,0.8-0.5c4.7-2.7,13.6-2.2,15.1,3.8c0,0.3,0.1,0.4,0.3,0.4c-0.3,1.9-0.4,3.8-0.5,5.7c-0.3,7.3,0.3,14.1,2,20.5
			c0,0,0,0,0,0.1c-0.4,1.3-0.8,2.6-1.3,3.9c-4.3-5.9-11.7-14.3-19.1-8.5c-9.2,7-4.2,20.6-1.1,29.1c0,0,0,0.1,0.1,0.1
			c-5.1,2.3-10.8,3.1-16.3,1.9C136.3,201.7,133.3,199.8,129.8,197.6z M156.2,201.4c-2.8-7.7-5.9-14.8-2.6-22.9
			c5.1-12.3,15.8-2,20.5,4.6C170.5,190.8,164,197.6,156.2,201.4z M140.8,206.9c6.7,1.1,15.4-2.2,20.3-5.4
			c6.2-3.9,14.3-11.5,16.7-19.3c1.2,3,2.7,5.9,4.6,8.6c-8.6,14.8-20.3,25.2-38.3,24.3c-0.1-0.7-0.4-1.3-0.5-1.9
			C143,210.7,141.9,208.7,140.8,206.9z M189.5,262.4c-9.8-1.9-19.1-6.1-26.5-12.8c15.9-9.2,43.1-7,48.4,13.6
			C204,264.5,195.7,263.6,189.5,262.4z M214,262.7c-4.9-21.3-36.6-27.6-52.1-14c-0.5-0.5-1.2-1.1-1.8-1.8c-4.7-5-8.1-10.6-10.6-16.8
			c16.7,1.9,40.3-12.1,42.2-29.5c10.5,8.5,24.5,12.8,38,10.5c-0.3,0.4-0.4,0.9-0.7,1.3c-6.7,14-11.9,31.9-8.9,47.8
			C218.3,261.4,216.3,262.2,214,262.7z M222.2,253.8c3.1-0.7,6.1-1.8,8.9,0c-2.3,4.4-4.3,9-6.1,13.7
			C223.4,263.2,222.5,258.5,222.2,253.8z M223.6,281.6c16.6-1.2,33,0,49.4-0.7c-3.6,3.1-6.5,7.8-9.3,12.5c-5.4,9.2-14.6,9-24.1,9.8
			c-7.5,0.7-14.8,1.9-22.2,2.8C219.8,298.1,221.1,289.6,223.6,281.6z M223.4,315.7c3.1,2.4,6.1,5.1,9.6,7c0.8,0.4,1.5,0,1.9-0.5
			c11.2,1.3,22.8,0.5,34,0.5c12.3,0,24.5,0,36.9,0.5c10.9,0.4,21.8,0.5,32.6,0.8c5.8,0.1,12.1,1.3,17.8,0.3c0.1,0,0.1,0,0.3-0.1
			c0.5,0.1,1.2-0.1,1.5-0.9c2.8-8.6,3-19,4.4-28c2-11.5,3.8-22.8,6.3-34.1c3.6-16.2,7.4-31.7,14.1-46.9c0-0.1,0-0.1,0-0.3
			c4.9-2.2,8.9-4.9,9.4-10.8c0.3-3.8-1.3-7.4-4.4-9.4c10.4-6.2,19.7-13.7,27.3-23h0.1c8.6,3,17.6,3.8,26,7.9
			c3.5,1.8,6.7,3.8,9.6,6.2c-5.5-0.4-8.8,1.9-12.8,7.3c-6.1,8.2-8.9,17.8-10.5,27.8c-1.3-0.5-2.7-1.1-4-1.6
			c5.7-12.3-10.2-23.6-21.6-18.7c-16.4,6.9-21.6,28.7-22.1,44.6c-0.7,17.8,1.8,37.5,16,49.6c5.5,4.7,13.1,8.5,19.1,7.3
			c-0.5,2.4-0.4,5-0.8,7.3c-0.5,2.7-1.2,5.4-1.5,8.2l0,0c-16.7,9.3-37.3,13.7-55.9,17.6c-18.5,3.9-36.5,3.2-55,4.6
			c-3.4,0-6.7,0.1-10.1,0.1c-8.2-0.3-16.3-0.1-24.5-0.7c-9.3-0.5-18.6-2-27.9-3.5c-6.3-0.9-12.7-3.4-19.1-3.4
			c0.4-6.1,0.3-12.1,0.7-18.2C221.5,314.3,222.5,315,223.4,315.7z M216.2,340.8c0.1-1.5,0.1-2.8,0.4-4.3c0.1-0.7,0.3-1.5,0.8-2
			s1.1-0.7,1.8-0.8c2.6,0.4,5.3,0.8,7.8,1.3c-1.1,1.8-1.3,4.2-1.5,6.1c-0.1,1.8-0.4,5,0.4,7.1c-1.9-0.4-3.6-0.8-5.5-1.3
			c0-0.1-0.1-0.1-0.3-0.1c-1.1-0.7-3-0.7-3.6-1.6C215.8,344.1,216.2,342.1,216.2,340.8z M219.8,358.4c0-3.2,0.3-6.5-0.3-9.7h0.1
			c5.8,2.7,12.3,3.6,18.6,4.7c5.7,0.9,11.6,2.2,17.4,1.9c5.1,0.7,10.2,1.3,15.4,1.8c-0.3,8.5,1.6,17,5.1,24.7
			c-0.7-0.4-1.2-0.7-1.8-0.9c-2.4-1.2-4.9-2-7.3-2.7c-0.1-0.7-0.3-1.3-0.5-2c0-0.1-0.1-0.4-0.3-0.4c-3.9-8.4-18.5-9.3-26-6.7
			c-5.7-2.4-14-3-20.2-0.5C220.1,365,219.8,361.6,219.8,358.4z M214.5,380.3c0.3-13.2,16.7-10.8,25.5-9.6c1.5,7.3,2,16.2-1.2,23v0.1
			c-2.6-1.2-6.6-0.7-9.3-0.5c-2.8,0.1-6.3,0.7-8.4,2.8c-0.7,0.7,0,2,0.9,1.8c0,0.1,0,0.4,0,0.5C215.4,396.4,214.4,386.9,214.5,380.3
			z M238.9,454.6c6.6,2.6,13.9,0.9,20.7-0.7c7.5-1.8,20.1-7.4,27.9-4.7c7.4,2.6,2.6,12.9-0.9,16.8c-3.4,3.8-8.9,5.7-13.6,7.3
			c-7.5,2.7-17.4,3.8-25.1,0.8c-1.1-2.2-2.3-4.4-3.2-6.6C242.6,463,240.7,458.9,238.9,454.6z M282,525c-0.3-0.1-0.5-0.1-0.8-0.1
			c-1.9-2.7-3.6-5.3-5.5-7.8c20.1,5.9,48.1-6.1,48.4-28.7c1.9,2.6,3.9,5,5.8,7.5c-2.8,10.6-5,21.3-15.6,26.9
			C305.5,527.4,291.2,530.4,282,525z M283.1,528.7c4,2,8.9,2.8,13.9,2.6c-0.7,6.2-2.8,11.6-5.5,16.7c-5.3,0.3-10.9,1.1-15.2,3.5
			c0.4-1.1,0.7-2.2,1.1-3.2C279.5,542.1,283.3,535.1,283.1,528.7z M271.8,570.8c0.5-5.8,2-11.5,3.8-17c4.3-2.8,9.8-4.6,15.6-5.1
			c-3.4,6.5-7.3,12.8-9.4,20.1c-1.9,6.2-2.2,13.7,1.8,19.3c-3.5,0.4-6.9,0-9.8-1.2C271,582,271.3,576.1,271.8,570.8z M298.5,592.6
			c-7.5,2.2-17.4,3.4-23-3c6.9,1.3,16-0.9,21.7-3.1c10.4-4,18.6-13.7,25.6-22c6.9-8.1,12.3-18.6,15-29c1.5-5.7,4.6-13.3,4.7-20.1
			C354.1,543.6,325,584.8,298.5,592.6z M339.3,509.3c0,0.3,0,0.7,0.3,0.9l0,0c-0.5,16.7-7.1,34.5-15.8,48.5
			c-4.9,7.8-11.7,14.4-18.9,20.1c-4.9,3.9-12.7,7.8-20.2,8.9c-7.9-13.5,1.6-26.3,8.4-39.3c10.5-0.5,21.3,3.2,25.1,12.5
			c0.1,0.4,0.9,0.4,0.9-0.1c-1.1-9.4-13.9-13.2-21.7-13.2c-1.2,0-2.6,0-3.9,0c2.7-5.5,4.9-11,5-16.7c6.5-0.5,12.8-2.6,17.6-5.5
			c8.6-5.1,17.2-17,15.6-27.6C334.4,501.7,337,505.3,339.3,509.3z M321.8,485.4c-0.3,0.1-0.5,0.4-0.5,0.8
			c-1.9,12.4-8.1,22-20.5,26.3c-8.5,3-19.4,3.9-28,0.4c-3.2-4.4-6.3-8.9-9.4-13.5c8.5,4,21.3,2.7,29-0.3c10.4-4,20.5-12.7,22.2-23.8
			C316.9,478.8,319.4,482,321.8,485.4z M300.2,443.9c2.7,8.6,6.5,17.2,10.8,25.2c0.5,0.9,1.1,1.9,1.6,2.8
			c-2.7,12.1-12.1,22.5-24.4,25.5c-9.7,2.3-18.9,0.4-28-2.7c-3.8-5.7-7.3-11.5-10.6-17.5c13.2,5.1,29.5-1.9,39.1-11
			c5.1-4.9,8.2-14.3,0.4-18.6c-6.5-3.5-16.4,0.4-23.2,1.6c-5.1,0.9-10.2,2.4-15.5,3.1c-5.4,0.7-8.5,0.1-13.3-1.8
			c-2.4-6.1-4.4-12.1-6.1-18.6c-2.7-11.5-4-23.3-6.7-34.8c2.2-0.7,4.3-1.1,6.7-1.2c2.3-0.1,5.5,0.5,7.5-0.5v0.1
			c1.8,3.4,5.5,4.3,9,4.9c4.4,0.7,9.2,1.3,13.6,0.8c0,0,0,0,0.1,0c6.7,3.1,13.5,4.9,20.1,8.6c5.4,3.1,10,6.6,14.4,10.6
			c0,0.1-0.1,0.3-0.1,0.4C295.4,428,298.2,437.2,300.2,443.9z M305.3,413.5c-0.1,1.3-0.7,2.6-1.3,3.6c-1.1,1.9-2.7,2.8-4.2,4.2
			c-4.3-7.1-12.3-12.5-20.6-16.3c0.4,0,0.7,0,1.1-0.1c3.4-0.5,7.1-3,7.7-6.5c2.2,2.2,4.6,4,7.1,5.8c0.4,1.3,0.8,2.8,1.5,4
			c-0.3,0.5,0,1.2,0.7,1.5c2.6,0.9,5.3,1.6,7.9,2C305.3,412.4,305.3,412.9,305.3,413.5z M321,408.5c-7.5,2-14.4,0.5-21.8-0.5
			c-3.4-9.3-1.6-23.3,9.3-26.8c13.1-4,22,10.5,25.7,20.9C330,404.8,326.1,407.1,321,408.5z M338.9,403.6c-1.5,1.2-1.2,0.7-1.9-0.5
			c0.1-0.3,0.3-0.5,0.3-0.8v-0.1V402l0,0c0,0,0,0,0-0.1c-0.3-1.6-0.8-3.4-1.3-5.1c0.7-3,0.9-5.9,1.3-8.9c2.4-3.9,4.6-8.2,7.7-11.6
			c0.9-0.9,2.7-2.3,4.6-3.8c0,0.3,0,0.5,0,0.9c0,6.3,6.3,7.5,11.3,6.3c-4.4,3.1-8.5,6.6-12.1,10.9c-2.3,2.8-4.7,5.7-6.7,8.6
			C340.9,400.5,340.1,402.5,338.9,403.6z M465.3,437.6c10.2,13.2,12,34.6,10.9,50.7c-8.2-6.2-21.2-5.1-30.4-2.3
			c-1.6,0.5-3.1,1.1-4.4,1.8c-0.4-4-0.7-8.2-0.9-12.1c4.7-2.6,9-6.2,12.4-10c6.5-7.1,13.1-19.7,7.7-29.1
			C462.2,436.9,463.8,437.2,465.3,437.6z M456.9,521.9c-10.4-7.5-13.9-20.1-15.4-32.7c1.3-0.7,3-1.2,4.7-1.8
			c10.1-3,20.3-2.3,29.9,2.2C475.1,504.3,468.6,516,456.9,521.9z M439.5,488.5c-5.5,3-9.6,7.4-11.9,13.3c-3-7-5-14.3-6.3-22.1
			c1.2,0,2.4,0,3.5-0.1c4.7,0.1,9.6-1.1,13.9-3.4C438.9,480.2,439.1,484.3,439.5,488.5z M436.2,517.2c-3.1-4.6-5.8-9.3-7.9-14.1
			c3.2-5.8,6.3-10,11.6-12.9c0.7,5,1.8,10.1,3.1,14.4c2.2,7,5.9,14.3,12.1,18.3c-3,1.3-6.3,2.3-10.1,3
			C441.7,523.8,438.7,521,436.2,517.2z M472.5,441.5c5.9,10.8,9.2,25.3,10,37.5c0.9,13.2,0.3,29.4-8.1,40.3
			c-7.1,9.4-17.1,11.9-25.9,8.4c16.8-1.1,27.1-18.2,29.2-33.7c2.4-17.1,0.7-39.9-9.3-55.1C470.1,439.5,471.5,440.4,472.5,441.5z
			 M458.3,436.2c5.7,20.1-12.9,38.9-32.3,41.1c-0.1,0-0.1-0.1-0.3-0.1c-2.7-0.3-5.4-0.5-8.2-1.1c8.9-2,16.7-8.2,22.2-15.4
			s10.8-19.8,5.5-28.3c1.9,0.8,3.8,1.6,5.8,2.3C453.3,435.4,455.7,435.8,458.3,436.2z M443.8,431.8c-0.1,0.1-0.1,0.3-0.1,0.4
			c4.3,21.7-13.1,39.6-33.4,42.7c-4.7-0.9-9.6-2.2-14.3-3.6c21.3,0.3,46.5-24.1,38.3-45.1C437.2,428.3,440.5,430.2,443.8,431.8z
			 M432.3,424.8v0.1c0.8,13.3,0,22.6-10.2,32.2c-9,8.4-20.6,13.5-33,11c-0.4-0.1-0.7,0.1-0.9,0.3c-7.7-3-15-6.6-21.2-11.2
			c-9.7-7-17-15.1-20.2-26.8c-2.4-8.8-2.4-18.1-4.9-26.8c0,0,0-0.1-0.1-0.1c3.4-3.9,6.1-8.9,9.3-12.5c4.4-5.1,10-9.3,15.4-13.5
			c3-1.2,5.9-2.8,8.9-4.2c0.1,0,0.3,0,0.4,0c6.5,3.5,16.7,2.3,22.9-1.3c0.4,0,0.8-0.1,0.9-0.4c0.1-0.1,0.1-0.3,0.3-0.4
			c2.4,0.8,5,1.2,7.5,1.3c0.4,0,0.7,0,1.1,0c-1.8,8.9,0,19,4,28c-0.9,2.4-1.1,4.7-2,7.3c-1.6,4.6-5.8,10.5-9.2,14
			c-5.3,5.4-12.4,7.7-18.2,12.3c-4.9,3.9-5.1,8.2,0.3,11.9c14.7,10,41.9-8.9,43.2-25.7c0.3,0.3,0.5,0.5,0.8,0.8
			C428.9,422.4,430.6,423.6,432.3,424.8z M424.4,418.4c-1.8,10.2-9.7,18.5-18.5,23.7c-5.1,3.1-11.6,5.5-17.5,3.8
			c-1.2-0.4-5.5-2-5.8-3.4c-0.9-3.4,4-8.5,6.6-10c6.1-3.6,11.5-6.7,15.9-12.4c4.6-5.8,6.3-10.9,8.2-17.6
			C416.2,408.6,420.1,414.1,424.4,418.4z M411,379.8c-0.1-2.4-0.1-5,0.1-7.4c4.7,0.9,5-6.6,5.1-10.1c0.1-5.4,1.1-11.5-4.6-12.7
			c0.8-1.9,0.7-4.2,0.8-6.2c0.1-3.4,0.1-6.7,0.1-10.2c0,0,0.1,0,0.1-0.1c0.1-0.1,0.3-0.3,0.4-0.4c1.1-0.1,2-0.7,3-1.2
			c-0.7,14.6,0.4,29.1,5.7,41.8C418.9,376.4,415.4,378.8,411,379.8z M422.7,371.7c-2.6-7.7-3.9-15.8-4.4-24.1
			c0.3,0.4,0.5,0.8,0.8,1.1c3,3.1,8.6,1.9,13.5-0.9C430.4,355.7,427.7,365.1,422.7,371.7z M444.9,376.4c-3.1,0.3-4.6-2.4-5.1-6.5
			c2.6,2.2,8.4,2.6,10.8,0.9C449.5,373.9,447.9,376.1,444.9,376.4z M459.2,361.5c2.6,1.9,5.8,1.8,8.8,0.5c1.2-0.5,3.4-1.6,4.6-3.1
			c0.7,2.6,1.3,5.3,1.8,7.7c-1.1,1.5-2.2,2.7-4.3,3.5c-3.1,1.2-5.9,0.3-8.8-1.1c-0.7-1.9-1.1-3.9-1.5-5.5
			C459.5,362.8,459.3,362.1,459.2,361.5z M468.5,377.8c-3.2-0.4-5.1-3.2-6.5-6.3c2.8,1.5,6.3,1.5,9.2,0.3c0.9-0.4,2.3-1.1,3.4-2
			C474.8,374.7,473.5,378.4,468.5,377.8z M488.8,364.3c-2.8,3.2-7.3-1.9-8.8-3.8c-0.5-0.7-0.9-1.3-1.3-2c2,0.1,4-0.7,5.7-2
			c1.2-0.9,2.6-2.6,3.1-4.2c0.8,2.2,1.3,4.3,1.6,6.5C489.4,360.2,489.9,362.9,488.8,364.3z M491,352.6c-0.5-1.6-1.2-3.2-2-4.9
			c1.5-0.4,2.8-1.3,3.8-2.7c0.4-0.5,0.8-1.3,1.1-2.3C496.4,346.2,498.7,351.1,491,352.6z"/>
		<path d="M280.8,295.8c3.9,0.7,7.4-3.4,7.7-6.9c0.1-1.9-0.8-3.8-2.3-4.7c-0.9-0.5-2-0.7-3.4-0.3c-2.7,0.9-5,3.2-5.4,5.9
			C277.1,292.5,278,295.3,280.8,295.8z M283,285.9c2.4-0.7,3.2,1.1,3.5,1.9c0.4,1.3-0.3,2.7-0.9,3.8c-0.9,1.6-3.9,3.8-5.7,1.9
			C277.3,290.5,280.2,286.7,283,285.9z"/>
		<path d="M206.9,93.6c-3.4,0.3-5.1,4.4-3.6,7.3c1.1,2,3.8,2.3,5.7,1.2c1.9-1.1,2.7-3.5,2.3-5.5C210.6,94.8,208.8,93.6,206.9,93.6z
			 M206.3,101.3c-3-0.1-2.4-5,0-5.7c1.5-0.4,3.1,0.5,3.2,2.2C209.8,99.6,208.3,101.4,206.3,101.3z"/>
		<path d="M204.2,114.4c-2.2,0.7-3.1,3.4-2.3,5.3c0.7,2,2.8,3.4,5,3.2c1.9-0.1,3.5-1.8,3.8-3.6C210.9,116.1,207.1,113.6,204.2,114.4
			z M206.1,121.4c-1.9-0.1-3.4-2-2.8-3.9c0.8-2.8,5.3-1.3,5.5,1.1C208.9,120.2,207.7,121.5,206.1,121.4z"/>
		<path d="M427,126c2-1.2,3-3.8,2.4-5.9c-0.5-2-2.6-3.4-4.6-3.2c-3.6,0.3-5.5,4.7-3.9,7.8C422,126.8,425,127.2,427,126z M424.2,119
			c1.6-0.5,3.4,0.5,3.5,2.3c0.1,2-1.3,3.9-3.5,3.8C421.1,124.7,421.6,119.6,424.2,119z"/>
		<path d="M417.7,148.5c1.6,1.2,4,1.1,5.7-0.4c3-2.6,2-7.4-1.1-8.8c-2.2-0.9-5,0.7-5.9,2.8C415.4,144.4,416,147.1,417.7,148.5z
			 M419.3,141.3c2.8-1.9,5.1,2.6,3.5,4.9c-1.1,1.5-3.1,1.8-4.3,0.4C417.2,145.1,417.4,142.5,419.3,141.3z"/>
		<path d="M259.8,375.5c-0.3-3.5-11.3-4-13.1-3.5c-0.4,0.1-0.7,0.5-0.8,0.9c0,1.6,0.3,3.1,0.5,4.7c0.1,0.8,0,1.6,0.1,2.3
			c-0.1,0.4-0.1,0.9-0.1,1.3c0,0.7-0.3,1.6-0.3,2.4c-0.3,0.1-0.4,0.5-0.5,0.9c-0.3,2.4-1.5,4.6-1.9,6.9c-0.1,0.1-0.3,0.5-0.1,0.8
			c2.4,4.3,12.3,5,15.6,1.6c4.2-4.3,4-13.3,0.7-18.1C260.1,375.6,259.9,375.5,259.8,375.5z M250,380.7c0.8,0.3,1.6,0.5,2.3,0.8
			c0.9,0.3,3.8,1.3,1.9,2.3c-1.1,0.5-2.7,0.4-4.2,0.3C250.1,382.9,250.1,381.8,250,380.7z M258.5,390.7c-2.4,3.9-8.5,2.2-12.4,0.9
			c0.9-1.1,1.3-2.6,1.6-4c0.3,0.3,0.8,0.1,1.1,0c0.4-0.4,0.7-0.9,0.9-1.5c3,0.4,6.5,0.5,7.4-2c0.8-2-1.1-3.5-2.7-4.3
			c-1.5-0.7-3-0.7-4.4-0.5v-0.1c0-0.7-0.4-0.9-0.9-1.1V378c0-0.1-0.1-0.3-0.3-0.3c-0.1-1.3-0.5-2.8-0.7-3.9c2.2-0.3,4.3,0.4,6.3,0.9
			c0.8,0.1,1.6,0.4,2.3,0.8c0.5,0.3,0.9,0.8,1.5,1.2c0.1,2.7,1.6,5.1,1.6,7.9C259.8,386.5,259.5,388.9,258.5,390.7z"/>
		<path class="st1" d="M255.9,125.1c6.6-7.5,9.4-20.2,12.8-29.4c5.3-14.4,12-26.1,22.5-37.3c3.1-3.2,10.2-9.7,7.1-15
			c-4.7-7.9-22-3-28.3-0.8c-0.4,0.1-0.5,0.5-0.5,0.8c-18.9,8.4-31.1,30.7-35.4,50c-2.2,9.6-3.5,23.8,3.4,31.9
			C243,131.9,250.7,131.1,255.9,125.1z"/>
		<path class="st1" d="M257.5,165.4c6.9-3.1,8.4-11.5,4.9-17.8c-3.2-5.8-14.6-13.7-19.8-6.7C231.7,149.1,244.5,171.2,257.5,165.4z"
			/>
		<path class="st1" d="M360.2,189.3c8.1,0.7,15.9-6.3,21.6-11.3c7.7-6.9,13.3-13.2,14.3-23.8c0.1-0.9-0.7-1.3-1.3-1.3
			c-1.6-5.8-13.1,0.8-15.8,3.2c-6.9,6.1-15.4,10.1-22,16.6C351.4,178.1,349.9,188.5,360.2,189.3z"/>
		<path d="M396.3,360.4c-0.3-2.8-0.1-5.8-2-8.1c0-0.3,0-0.5-0.3-0.7c-4-2.3-13.3-1.6-17,1.6c-1.5,1.3-1.5,4-1.6,5.8
			c-0.1,1.6,0,3.2,0.3,4.9c0.4,1.9,1.5,3.1,2.4,4.9c0,0.1,0.1,0.1,0.3,0.1l0.1,0.1l0,0l0,0c2.2,1.6,5,1.2,7.5,0.8
			c2.4-0.4,7.1-0.3,8.8-2.3c0.3-0.4,0.3-0.7,0.3-1.1C396.7,365.2,396.4,362.3,396.3,360.4z M394.1,359.2c-1.1-0.1-2,0.1-3.2,0.4
			c-1.1,0.1-5.1,0.7-5.5-0.4c-0.4-1.2,5.8-1.1,8.6-1.1C394.1,358.4,394.1,358.8,394.1,359.2z M378.8,368.2
			C378.6,368.2,378.6,368.2,378.8,368.2c-0.8-2-1.1-5.1-1.2-7.1c-0.1-2.3-0.3-5.9,2-6.7c2.3-0.8,4.9-1.1,7.3-1.1
			c1.9,0,3.8,0.3,5.7,0c0.1,0.7,0.4,1.2,0.7,1.9c0.3,0.5,0.4,1.2,0.5,1.8c-1.8-0.8-4-1.1-5.8-0.7c-1.3,0.3-4.3,0.9-4.3,2.8
			c0,1.6,1.6,1.2,2.8,1.3c2.7,0.1,5.1,0.7,7.7-0.1c0,0.9,0,1.8,0,2.7c-0.1,0.9-0.4,1.9-0.5,3l0,0
			C389.1,367.8,383.5,367.9,378.8,368.2z"/>
		<path d="M268.2,230.9c1.8-0.7,3.2-2.2,3.8-3.9c0.5-2,0-4-1.3-5.5c-0.8-0.8-1.8-1.3-2.8-1.6c-3.9-0.8-7,2.7-7.1,6.3
			c0,1.1,0.3,2.3,0.9,3.2C263,231.2,266,231.6,268.2,230.9z M264.1,223.6c1.1-0.9,3-1.3,4.3-0.9c2.2,0.8,2,3.5,0.7,4.9
			c-0.1,0.1-0.1,0.1-0.3,0.3c-1.6,1.2-5.4,1.9-5.9-0.7C262.5,225.9,263.2,224.3,264.1,223.6z"/>
		<path d="M283.8,234.8c1.8-0.7,3.2-2.2,3.8-3.9c0.5-2,0-4-1.3-5.5c-0.8-0.8-1.8-1.3-2.8-1.6c-3.9-0.8-7,2.7-7.1,6.3
			c0,1.1,0.3,2.3,0.9,3.2C278.7,235.1,281.6,235.6,283.8,234.8z M279.6,227.5c1.1-0.9,3-1.3,4.3-0.9c2.2,0.8,2,3.5,0.7,4.9
			c-0.1,0.1-0.1,0.1-0.3,0.3c-1.6,1.2-5.4,1.9-5.9-0.7C278.1,230,278.8,228.3,279.6,227.5z"/>
		<path d="M241.9,271.5c8.2,0.4,17.1,2.2,25.3,1.9c2-0.1,3.2,0.3,4.9-1.5c2.3-2.6,3.8-9.3,4.9-12.4c2-5.7,4.4-11.5,6.1-17.2
			c0.4-1.3-0.8-2.2-1.9-2c-7.8-2.3-16.4-1.9-24.4-3.4c-0.5-0.1-1.1,0.1-1.3,0.5l0,0c-4.7,4.4-7,11-9.7,16.8
			c-2.4,5.1-4.7,9.7-5.4,15.4C240,270.7,241.1,271.5,241.9,271.5z M250.8,251.1c1.9-3.9,4.4-7.5,5.4-11.6c3.8,1.6,8.5,1.8,12.4,2.2
			c3.6,0.4,7.3,0.5,10.9,0.8c-2.7,7.5-4.6,17.1-8.6,23.8c-2.7,4.3-6.2,3-10.8,2.6c-5.4-0.4-10.8-0.5-16.2-0.7
			C245.1,262.2,248.2,256.6,250.8,251.1z"/>
		<path id="XMLID_30_" class="st1" d="M256.7,255.6c2.2-1.6,3.4-3.9,5.5-5.4c0.8,5.5,0.5,11.5,2.4,16.7c0.4,0.9,1.3,1.2,2,0.5
			c2.2-1.8,2.8-5.1,3.6-7.7c1.3-4.2,3.9-7.9,3.9-12.4c0-0.8-1.1-1.1-1.6-0.4c-1.9,3.1-3.2,6.7-4.2,10.1c-0.5,1.9-0.8,4.6-1.9,6.6
			c-0.8-5.3-0.8-10.6-2.3-15.8c-0.3-0.8-1.1-1.1-1.8-0.7c-2.4,1.3-4,3.5-6.1,5.3c-0.4-2-0.1-4.3-0.1-6.2c0-1.6-2.4-1.6-2.4,0
			c-0.1,3-0.5,6.2,0.8,9C255,256.1,256,256,256.7,255.6z"/>
		<path d="M314,261.8c-1.9-0.8-4.7-0.7-6.5-0.8c-2.4-0.1-5.4-0.7-7.8,0.3c-0.5-0.3-1.1-0.1-1.3,0.5c-1.1,4-2.8,8.6-2.3,12.8
			c0,0.3,0.1,0.4,0.3,0.5c0,0.3,0,0.5,0.4,0.7c2.3,1.1,4.9,0.8,7.3,0.9c2.8,0.1,5.5,0.4,8.4-0.1c0.4,0,0.7-0.4,0.7-0.8
			c1.3-4,1.8-8.5,2.7-12.5C316,262,314.8,261.4,314,261.8z M304.7,274.3c-2-0.1-4.3-0.4-6.5-0.1c0.3-3.8,1.1-7.4,1.9-11
			c2.3,0.7,5.1,0.3,7.4,0.4c1.6,0.1,3.6,0.8,5.4,0.7c-0.8,3.4-1.5,7-1.3,10.4C309.3,274.3,307,274.3,304.7,274.3z"/>
		<path d="M318.8,246c-1.9-0.9-4.3-0.9-6.5-1.2c-2.3-0.3-5-0.7-7.1,0.1c-0.4-0.1-0.8-0.1-0.9,0.3c-1.3,3.1-2.7,6.3-3.8,9.6
			c-0.1,0.4,0,0.7,0.3,0.8c0,0.3,0.3,0.5,0.5,0.7c2.3,0.9,5.5,0.5,8.1,0.9c1.8,0.3,4,0.9,5.9,0.7c0.7,0.5,1.8,0.4,2-0.5
			c0.9-3.4,2-6.6,3.1-10C320.8,246.4,319.8,245.7,318.8,246z M315.2,255.6c-1.8-0.7-4.2-0.7-5.9-0.8c-2.2-0.3-4.7-0.7-6.9-0.1
			c0.8-2.7,1.9-5.3,3-7.8c2,0.5,4.4,0.3,6.6,0.5c1.8,0.1,3.8,0.8,5.7,0.9C316.7,250.6,315.9,253.1,315.2,255.6z"/>
		<path d="M327,230L327,230c0.5-0.3,0.4-0.9,0-1.2c-2-1.2-5-0.9-7.3-1.1c-2.2-0.1-4.6-0.5-6.6,0.3c-0.3,0-0.5,0-0.8,0.3
			c-3,2.3-4.3,6.5-5.3,10c0,0.1,0,0.3,0,0.4c-0.3,0.3-0.4,0.9,0.1,1.1c2.3,0.9,5.1,0.7,7.5,0.9c1.8,0.1,4,0.9,5.9,0.8
			c0.5,0.5,1.8,0.5,2.2-0.4c1.3-3.6,3-7.1,4.2-10.6C327,230.2,327,230.1,327,230z M321,238.9c-1.8-0.7-4.2-0.5-5.8-0.8
			c-1.8-0.1-3.9-0.5-5.8-0.4c1.2-2.8,2.2-5.7,4-8.1c2.2,0.7,4.7,0.4,6.9,0.7c1.3,0.1,2.8,0.4,4.3,0.4
			C323.1,233.3,322.1,236.2,321,238.9z"/>
		<path d="M340.4,261.9c-0.1,0-0.1-0.1-0.3-0.1c-2-0.8-4.6-0.9-6.7-1.1c-2-0.1-4.3-0.3-6.3,0c-0.4-0.1-0.8,0-1.1,0.4
			c-0.1,0.1-0.1,0.3-0.1,0.4c-1.2,4.4-3.2,9.7-2.7,14.4c-0.3,0.5,0,1.3,0.7,1.5c2,0.7,4.2,0.4,6.2,0.5c2.2,0.1,4.3,0.5,6.5,0.8
			c0.3,0.3,0.8,0.4,1.2-0.1c1.2-1.9,1.3-4,1.6-6.2c0.4-3.1,1.1-6.1,1.8-9.2C341.3,262.6,340.9,262.2,340.4,261.9z M325.6,275.2
			c1.1-3.9,1.5-8.1,2.3-12.1c1.8,0.3,3.6,0.3,5.3,0.4c1.9,0.1,3.6,0.4,5.4,0.7c-0.8,4-1.3,8.1-1.9,12.1c-1.9-0.7-4-0.8-6.1-0.8
			C328.9,275.2,327.2,275.1,325.6,275.2z"/>
		<path d="M351.2,229.3C351.2,229.3,351.2,229.2,351.2,229.3c-2.2-0.8-4.6-0.8-6.7-0.8s-4.6-0.1-6.6,0.4c-0.7,0.1-0.9,0.8-0.7,1.3
			c-5.1,7.1-6.7,16-9.3,24.1c-0.1,0.7,0.3,1.1,0.8,1.1c0.1,0,0.1,0.1,0.3,0.1c2,0.7,4.2,0.4,6.2,0.5c1.9,0.1,3.8,0.4,5.7,0.7
			c0.5,0.8,2,0.9,2.2-0.3c2-9.2,5.7-17.4,9.2-26C352.4,230,351.8,229.3,351.2,229.3z M341.3,254.2c-1.9-0.5-3.9-0.7-5.8-0.8
			s-3.8-0.3-5.7,0c1.9-7.8,4.6-15.2,8.1-22.5c2,0.5,4,0.3,6.2,0.3c1.8,0,3.4,0.3,5,0.4c-1.8,3-3,6.3-3.8,9.6
			C344.4,245.6,342.9,249.9,341.3,254.2z"/>
		<path d="M313.4,386.4c-2.3-0.8-4.9,0.9-5.8,3.2c-0.9,2.3-0.1,5,1.8,6.2c1.6,1.2,4.2,0.8,5.7-0.8
			C317.9,392.4,316.7,387.6,313.4,386.4z M314.2,393.1c-1.1,1.5-3.1,1.9-4.2,0.7c-1.3-1.5-1.3-4,0.4-5.4
			C313.3,386.4,315.9,390.7,314.2,393.1z"/>
	</g>
</g>
</svg>
