<?xml version="1.0" encoding="UTF-8"?>
<svg enable-background="new 0 0 600 600" version="1.1" viewBox="0 0 600 600" xml:space="preserve" xmlns="http://www.w3.org/2000/svg">
<style type="text/css">
	.st0{fill:#E8E8E8;}
	.st1{fill:#FFFFFF;}
	.st2{fill:#AEAEAE;}
	.st3{fill:#5E5C5D;}
	.st4{fill:#B5B5B5;}
	.st5{fill:#222021;}
	.st6{fill:#4E4D4D;}
	.st7{fill:#575656;}
	.st8{fill:#3D3B3C;}
	.st9{fill:#E3E3E3;}
	.st10{opacity:0.5;fill:#FFFFFF;enable-background:new    ;}
	.st11{opacity:0.3;fill:#FFFFFF;enable-background:new    ;}
</style>
		<path class="st0" d="m289.9 342.2c-4.9-0.1-9.7-0.1-14.6-0.3-0.7 2.6-0.7 5.1-0.4 7.8 0.1 1.5 0.7 3 0.7 4.4 5.7 0.3 11.2 0.5 16.8 0.7-0.8-1.9-1.1-4.3-1.2-5.8-0.3-2.2-0.4-4.7 0.5-6.7-0.5-0.1-1.2-0.1-1.8-0.1z"/>
		<path class="st0" d="m309.7 341.9c-5.3 1.1-10.8 0.7-16.2 0.4-1.3 2.6-0.9 5.7-0.4 8.5 0.3 1.2 0.9 2.7 1.2 4 5.1 0 10.2-0.1 15.4-0.7 0.4 0 0.7 0 1.1-0.1-2.2-3.2-2.2-8.3-1.1-12.1z"/>
		<path class="st0" d="m326 347.4c-0.1-2-0.7-3.9-0.7-5.9-4.9 0.3-9.6 0.4-14.4 0.4-0.4 2.4-0.4 4.9 0 7.1 0.3 1.6 0.9 3.2 1.1 4.9 4.7-0.4 9.3-0.9 14-1.3-0.2-1.7 0.1-3.5 0-5.2z"/>
		<path class="st0" d="m385.1 270.7c1.1 3.9 2.6 7.8 4.6 11.3 1.9 0.3 3.8 0 5.5-0.7 1.3-0.5 2.7-1.2 3.6-2.3 0.5-0.5 0.8-1.1 1.2-1.5-1.5-2.8-2.7-5.9-3.5-9-2.4 3-7.5 3.2-11.4 2.2z"/>
		<path class="st0" d="m243.4 338.3c-0.9 2-1.2 4.3-1.1 6.6 0 2.2 0.7 4 1.1 6.1 4.7 0.5 9.4 1.2 14.3 2.2-1.5-3.8-1.3-8.6-0.1-12.4-4.9-0.9-9.6-1.7-14.2-2.5z"/>
		<path class="st1" d="m286.5 396.9c-3.2-3.4-5.9-7.1-8.2-11.2-0.8-0.4-1.5-1.1-2.3-1.6-1.1-0.8-2.2-1.3-3.4-2-1.8-0.8-3.5-1.6-5.1-2.4 1.1 6.5 0 13.9-3.4 19.4 3.2 1.2 6.6 2.6 9.8 3.5 4.8 1.4 12.3 0.6 12.6-5.7z"/>
		<path class="st1" d="m306.7 378.6c6.2-2.4 12.3-1.1 17.2 2.4 0.3-8.5 2-17.5 5.5-25.2-6.3 0.4-12.7 0.7-18.3 1.1-8.1 0.7-16.4 0.9-24.7 0.8 0.5 5.7 1.1 11.2 3 16.6 1.8 5.3 4.7 9.2 7.5 13.6 2.1-4.1 5.3-7.6 9.8-9.3z"/>
		<path class="st0" d="m363 346.6c0-1.3 0.3-2.7 0-3.9-0.4-2.3-1.3-4.3-2.4-6.3-1.2 0.3-2.3 0.5-3.4 0.7-4.3 0.9-8.8 1.8-13.2 2.4 1.2 3.1 1.8 7.3 1.2 10.6 6-1 11.9-2.1 17.8-3.5z"/>
		<path class="st0" d="m241.5 350.7c-0.7-2-0.8-4.6-0.7-6.2 0-2 0.1-4.6 1.2-6.5-4.4-0.8-8.9-1.8-13.3-2.6-1.2 1.9-1.5 4.9-1.5 6.9-0.1 2.3 0.4 4.3 0.9 6.5 4.4 0.8 8.8 1.3 13.4 1.9z"/>
		<path class="st0" d="m420.5 217.6c0.3 0.1 0.7 0.1 0.9 0.3 0-6.9-1.5-13.9-9.2-16.3-1.8-0.5-3.5-0.7-5.3-0.4 2.3 0.8 4.3 2.4 5.8 4 1.1 1.3 3.1 5.4 2.8 8.1 2.1 0.2 3.8 1.4 5 4.3z"/>
		<path class="st0" d="m390.2 269.6c2.3-0.3 4-1.5 6.1-2.2-0.8-3.5-1.3-7-1.5-10.5-2.8 1.9-8.4 2.8-11.7 1.2 0.3 3.6 0.8 7.4 1.8 11 1.7 0.5 3.4 0.7 5.3 0.5z"/>
		<path class="st0" d="m377.6 337.3c-0.3-1.5-0.7-3-1.1-4.4-4.7 1.1-9.6 2.2-14.1 3.1 1.3 1.8 2 4 2.4 6.2 0.1 1.1 0.4 2.6 0.3 3.9 3-0.7 5.9-1.5 9-2.4 1.2-0.4 2.4-0.7 3.8-1.1-0.3-1.8-0.1-3.5-0.3-5.3z"/>
		<path class="st0" d="m399.5 230.4c1.5-3.2 3.2-6.3 5.4-9.2-1.2-2.8-1.8-5.3-4.9-7-3.1-1.8-6.1-1.5-9-0.3-2.7 4.3-4.6 9-5.8 13.9 2.3-1.5 5.1-1.9 7.9-1.3 1.6 0.2 5.3 1.8 6.4 3.9z"/>
		<path class="st0" d="m395.3 244.7c-0.4-0.3-0.8-0.7-1.3-0.9-1.3-0.7-3-1.1-4.4-1.2-1.9-0.1-4.9-0.1-6.7 0.9-0.1 2.4-0.1 4.9-0.1 7.3 0 1.8 0.1 3.6 0.1 5.5 3 2.6 8.6 0.7 11.7-0.8-0.1-3.1 0-6.2 0.4-9.3 0.2-0.5 0.2-1 0.3-1.5z"/>
		<path class="st0" d="m396.6 229.8c-1.1-0.9-2.6-1.3-3.9-1.6-3.1-0.5-5.8 0.3-8.1 2-0.9 4-1.3 8.2-1.6 12.4 1.9-1.5 4.3-1.8 6.7-1.8 1.3 0 4.3 0.4 6.1 1.6 0.7-3.4 1.6-6.6 2.8-9.8-0.8-0.9-1-2-2-2.8z"/>
		<path class="st0" d="m407.9 332.5c0.3-0.5 0.5-1.1 0.7-1.6 0.3-1.1 0.1-2.3 0.1-3.4-0.1-1.5-0.9-3.4-0.9-5-4.3 2-8.9 3.9-13.6 5.4 0.9 1.5 1.3 3.4 1.5 5 0.1 1.1 0.1 2.4-0.1 3.8 4.1-1.4 8.2-2.9 12.3-4.2z"/>
		<path class="st0" d="m408 217.4c1.6-1.8 3.5-3.1 5.4-3.6 0.1-0.7 0.3-1.5 0.3-2.2-0.1-1.9-1.1-3.6-2.3-5.1-2.3-3-5.3-4-8.8-3.9-4 1.9-7.5 5.4-10.1 8.9 2.6-0.5 5.3-0.3 7.5 0.9 2.6 1.2 5.4 4 6.1 7 0.8-0.8 1.4-1.4 1.9-2z"/>
		<path class="st0" d="m393.7 337.3c0-1.2 0.3-2.4 0.1-3.6-0.1-1.9-0.8-3.5-1.3-5.1-4.9 1.5-9.8 2.8-14.7 4 0.9 1.6 1.3 3.5 1.6 5.4 0.1 1.2 0.4 3 0 4.2 4.8-1.6 9.6-3.2 14.3-4.9z"/>
		<path class="st0" d="m341.9 350.8c0.5-0.1 1.1-0.1 1.6-0.3 0-1.3 0.1-2.7 0.1-4-0.1-2.3-0.7-4.4-1.1-6.7-5.3 0.8-10.5 1.3-15.8 1.8 0.3 2.4 0.8 4.7 0.9 7.1 0 1.1 0.3 2.4 0.1 3.8 2.4-0.3 5-0.5 7.4-0.7 2.4-0.3 4.6-0.7 6.8-1z"/>
		<path class="st0" d="m265.3 341.5c-2.2-0.1-4.3-0.4-6.6-0.7-0.5 2.3-0.8 4.4-0.7 6.7 0.1 1.9 0.8 3.8 1.1 5.7 5 0.3 10 0.5 14.8 0.8-0.7-2.3-0.8-5-1.1-7.1-0.1-1.8 0-3.5 0.5-5.1-2.4 0-5.1-0.1-8-0.3z"/>
		<path class="st2" d="m441.2 116.8c4.4-2.4 7.8-6.1 9.2-11 0.9-3.4 1.3-7.8-0.7-10.8-3.5-2.4-7.3-4.3-11.5-5.1 0.7 6.7 0.7 13.6-0.1 20.6v0.1c0.9 1.8 1.5 3.8 1.8 5.8 0.3 0.1 0.7 0.3 1.3 0.4z"/>
		<path class="st2" d="m442.8 117.7c3 1.6 5.4 3.8 7.4 6.2 3.5-0.5 6.5-2.6 8.9-5 1.3-1.3 2.4-3 3.2-4.7 0.5-1.1 0.7-2.3 1.1-3.5-3-5.1-6.6-9.7-10.9-13.3 0.5 2.8-0.1 6.6-0.7 8.6-0.9 4.7-4.3 9.6-9 11.7z"/>
		<path class="st2" d="m467.4 136.9c-3.4 1.9-7.3 2.8-10.9 1.6 0.8 4.3 0.9 8.8 0.7 13.3 2.6 2.3 6.3 3.2 9.7 2.6 2-0.4 3.8-1.5 5.1-3 0.5-0.5 0.8-1.1 1.2-1.8 0.1-5.4-0.3-10.9-1.2-16.2 0-0.1-0.1-0.4-0.1-0.5-1.1 1.7-3 3.2-4.5 4z"/>
		<path class="st2" d="m451.1 125c2.6 3.5 4.2 7.7 5.1 12.1 3.2 0.8 7.1-0.3 9.8-1.8 2.7-1.3 4.2-3.2 5.3-5.5-1.3-5.7-3.6-11.6-6.6-17.2-0.4 2.8-3 5.9-4.7 7.5-2.3 2.5-5.5 4.8-8.9 4.9z"/>
		<path class="st1" d="m368 33.1c11.7 3.5 23 8.8 32.7 16.4 9.8 7.8 15.1 18.3 18.6 30 1.8 5.7 2.4 12 5.5 17.2 2.6 4.2 6.6 6.5 10 9.6 3-44.1-23.4-83-66.3-95.8-37.6-11.2-83.1-6.6-112 21.6 32-16.9 79.4-8.5 111.5 1z"/>
		<path class="st3" d="m430.8 110.9c-3.1-2.2-6.9-2.4-10.1-4.3-1.5-0.8-2.7-1.9-3.6-3 0.9 12.3-0.4 24.9-3.4 36.2-2.2 7.9-4.9 15.8-8.4 23.2 4.4-1.1 9-1.2 13.1-2.3 0.3-0.3 0.7-0.3 0.9-0.3 3.4-1.1 6.2-3.1 8.4-7.3 3.6-7 6.2-16.4 7.8-24.1 1.5-6.7 1.5-14-4.7-18.1zm-7.4 37.2c-1.6 1.5-4.2 1.6-5.7 0.4-1.8-1.3-2.3-4-1.3-6.3 1.1-2.2 3.8-3.8 5.9-2.8 3.1 1.4 4 6.2 1.1 8.7zm3.6-22.1c-2 1.2-5 0.8-6.1-1.3-1.6-3 0.4-7.5 3.9-7.8 2-0.1 4 1.2 4.6 3.2 0.6 2.2-0.5 4.8-2.4 5.9z"/>
		<path class="st4" d="m424.2 119c-2.6 0.8-3.2 5.9 0 6.1 2.2 0.1 3.6-1.8 3.5-3.8-0.2-1.8-1.9-2.9-3.5-2.3z"/>
		<path class="st4" d="m419.3 141.3c-1.9 1.2-2.2 3.8-0.8 5.3 1.1 1.2 3.1 0.9 4.3-0.4 1.6-2.3-0.6-6.8-3.5-4.9z"/>
		<path class="st2" d="m458.8 184c-3.5-0.8-6.5-3-7.9-6.1-0.4 0.8-0.7 1.5-1.1 2.3 5.3 3.6 9.6 8.4 12.5 14.7 0.1 0.3 0.3 0.7 0.4 0.9 1.6-4.2 3.2-8.4 4.6-12.7-2.4 1.5-5.8 1.5-8.5 0.9z"/>
		<path class="st0" d="m416.8 296.7c1.5-1.1 2.8-2.8 3.9-5.3-0.9-1.1-1.9-2.2-2.8-3.1-0.5 0.3-0.9 0.5-1.5 0.7 1.2 1.3 1.1 3.8 0.8 5.3 0 0.7-0.2 1.5-0.4 2.4z"/>
		<path class="st2" d="m457 154.1c-0.4 3.6-0.9 7.4-1.9 10.9 2.8 2.2 5.8 3.6 9.6 3 2.8-0.5 4.9-2.2 7-3.8 0.7-3.9 1.1-7.8 1.3-11.7-1.9 1.6-4.6 2.6-6.3 3.1-3.3 0.8-7 0.7-9.7-1.5z"/>
		<path class="st5" d="m418.8 299.3c-0.5 0.4-0.9 0.7-1.5 0.9 0.4 2.3-0.1 4.9-0.5 7.1-0.5 3-1.1 6.1-1.9 8.9 0.7 0 1.5 0.1 2 0.5 0.7-5.8 1.3-11.7 1.9-17.4z"/>
		<path class="st0" d="m434.4 227c-6.2 7.4-3 22.4 3.1 28 7.1 6.6 16.4 8.4 25.3 5.7-6.6-13.8-16.1-25.9-28.4-33.7z"/>
		<path class="st1" d="m434 255.4c-4.6-5.4-5.7-11.3-5.1-18.2 0.3-3.9 0.5-8.8 3.6-11.3-6.2-3.6-13.1-6.2-20.6-7.4-0.3 0-0.4-0.1-0.5-0.3-3.9 3-7.5 9.3-8.5 11-3.4 6.5-5 13.6-5.3 20.9-0.4 7.8 3.6 40.4 18.3 36.1-2.3-2-4.7-3.9-7.4-5.7-1.1-0.7-0.4-2.2 0.8-2 8.6 1.5 15 10.9 18.9 17.9 0.5 0.9 1.2 2.2 1.8 3.2 4.6 0.3 8.8 1.1 13.3 0.3 3.9-0.8 7.9-2 11.7-3.4 4-1.5 7.9-3.5 11.2-6.2 2-1.8 3.4-3.9 5.1-5.9-1.6-7.1-4-14.1-7-20.9-9 5.9-24.4-0.9-30.3-8.1z"/>
		<path class="st2" d="m454.8 166.8c-0.8 3.2-1.9 6.3-3.1 9 1.3 3 3.9 5.4 7.1 6.5 3.6 1.2 6.1 0 9-1.5 1.3-4.6 2.6-9.3 3.5-14.1-4.3 4-12.1 3.9-16.5 0.1z"/>
		<path class="st0" d="m416.2 326.2v-0.8c0.1-1.3 0-2.7-0.1-3.9-0.1-0.5-0.1-1.8-0.5-2.2s-0.9-0.4-1.5-0.3l-0.3 0.3c-1.6 0.9-3.4 1.9-5 2.7 1.1 1.8 1.2 4.9 1.2 6.7 0 0.8 0 2-0.3 3.2 0.4-0.1 0.8-0.3 1.1-0.4 0 0 0-0.1 0.1-0.1 1.2-0.9 2.8-1.1 3.9-2 1-0.9 1.3-2 1.4-3.2z"/>
		<path class="st6" d="m452.2 186.4c-15.4-1.2-21 22.1-23 34.5 11.3 5.5 21 15.1 28.3 25.1 5-15.1 8.6-32.2 2.7-47.7-1.8-4.7-4.5-8.6-8-11.9z"/>
		<path class="st5" d="m239.6 47c17-16.2 41.5-19.4 63.9-18.6 27.5 0.9 55.2 5.9 80 18.6 16.2 8.4 25.5 21.6 29.9 37 0.1 0.1 0.3 0.3 0.3 0.5 1.2 3.8 2 7.7 2.7 11.7 1.6 4.2 3.2 6.7 8.5 9 1.9 0.8 3.9 1.2 5.8 2.2 0.5 0.3 1.2 0.7 1.8 1.1-1.9-1.8-4-3.2-6.1-5.3-5.7-5.7-6.9-12.8-8.9-20.2-3.5-13.2-9-24.9-20.3-33.1-9.8-7-20.9-11.7-32.5-14.8-23.4-6.5-49.7-11-74-9.3-20.1 1.3-42.3 9-55 25.5 1.2-1.6 2.6-3.1 3.9-4.3z"/>
		<path class="st5" d="m283.7 357.7c-3.5-0.1-7-0.3-10.4-0.5 0.9 9.6 3 17.9 7.3 26.7 2.2 4.4 4.4 8.5 8.1 11.9 1.9 1.8 4 3.2 6.1 5-0.3-3.2 0.1-6.6 1.2-9.7-8.7-7.3-13-22.6-12.3-33.4z"/>
		<path class="st1" d="m258.5 390.7c1.1-1.8 1.3-4.2 1.3-6.2 0-2.8-1.3-5.3-1.6-7.9-0.5-0.4-0.8-0.8-1.5-1.2s-1.5-0.5-2.3-0.8c-2-0.5-4.3-1.1-6.3-0.9 0.1 1.1 0.5 2.6 0.7 3.9l0.3 0.3v0.1c0.4 0.1 0.8 0.4 0.9 1.1v0.1c1.5-0.1 3-0.3 4.4 0.5 1.6 0.8 3.5 2.3 2.7 4.3-0.9 2.6-4.4 2.4-7.4 2-0.3 0.5-0.5 1.1-0.9 1.5-0.3 0.3-0.8 0.3-1.1 0-0.3 1.5-0.7 2.8-1.6 4 3.9 1.3 9.9 3.1 12.4-0.8z"/>
		<path class="st1" d="m378.8 368.2c4.7-0.3 10.4-0.4 14.8-2.3 0-0.9 0.4-1.9 0.5-3v-2.7c-2.6 0.7-5 0.3-7.7 0.1-1.2-0.1-2.8 0.3-2.8-1.3 0-1.9 3-2.6 4.3-2.8 1.8-0.4 4-0.1 5.8 0.7-0.1-0.5-0.3-1.1-0.5-1.8-0.3-0.7-0.5-1.2-0.7-1.9-1.9 0.3-3.8-0.1-5.7 0-2.4 0-5 0.3-7.3 1.1-2.4 0.8-2.2 4.4-2 6.7 0.1 2.1 0.5 5 1.3 7.2-0.2 0-0.2 0 0 0z"/>
		<path class="st4" d="m386.9 373c4-0.1 7.4-1.5 11-2.6 1.8-7 1.9-14.1-1.2-20.6-7-2.3-16.3-1.2-22.5 2.6-0.7 3.2-1.6 6.3-1.2 9.7 0.4 3.5 1.5 6.3 3.1 9.4 3.6 0.6 7.1 1.7 10.8 1.5zm-11.5-13.7c0.1-1.9 0.1-4.6 1.6-5.8 3.6-3.2 12.9-3.9 17-1.6 0.3 0.1 0.4 0.4 0.3 0.7 1.9 2.2 1.8 5.1 2 8.1 0.1 1.9 0.4 4.9-1.1 6.2 0 0.3 0 0.7-0.3 1.1-1.6 2-6.3 2-8.8 2.3-2.6 0.4-5.4 0.8-7.5-0.8l-0.1-0.1c-0.1 0-0.3 0-0.3-0.1-0.8-1.8-2-2.8-2.4-4.9-0.4-1.9-0.5-3.6-0.4-5.1z"/>
		<path class="st1" d="m409.2 349.2c-0.3-2.6 0.4-5.4 0.4-7.9 0.1-2.4 0.3-4.7 0.5-7-10.8 5.5-24.3 8.6-35.7 11.9-6.1 1.8-12.3 3.2-18.5 4.4-3.1 1.3-6.5 2.4-10.1 3.2-3.5 7.1-5.5 15.5-7.4 23.2-0.5 2.4-0.9 4.9-1.2 7.3 1.3-3.1 2.8-6.1 5-8.6 1.8-2 3.6-3.8 5.7-5.5 1.2-1.2 3.5-4.4 5.1-4.9 1.9-1.9 4-3.6 5.8-5 3.8-2.8 7.9-5.3 12.5-6.7 0.3-0.5 0.5-1.1 0.8-1.5 0-0.3 0.1-0.5 0.4-0.8 5.7-4 18.7-7.1 24.9-3 0.1 0 0.1 0.1 0.3 0.3 0.4 0.4 0.7 0.7 1.1 1.2 3.7-0.3 7.2-1 10.4-0.6z"/>
		<path class="st4" d="m254.2 383.7c1.9-0.9-0.8-2-1.9-2.3-0.8-0.3-1.6-0.5-2.3-0.8 0 1.1 0.1 2.2 0 3.2 1.6 0.4 3.1 0.6 4.2-0.1z"/>
		<path class="st0" d="m284.3 231.7 0.3-0.3c1.5-1.3 1.5-4-0.7-4.9-1.3-0.5-3.2 0-4.3 0.9-0.9 0.8-1.6 2.3-1.3 3.5 0.6 2.7 4.4 2 6 0.8z"/>
		<path class="st1" d="m220.1 368.2c6.2-2.4 14.7-1.9 20.2 0.5 7.5-2.6 22.1-1.6 26 6.7 0.1 0.1 0.3 0.3 0.3 0.4 0.3 0.7 0.4 1.3 0.5 2 2.6 0.7 5 1.5 7.3 2.7 0.5 0.3 1.1 0.5 1.8 0.9-3.5-7.7-5.4-16.2-5.1-24.7-5.3-0.4-10.4-1.1-15.4-1.8-5.8 0.3-11.7-0.9-17.4-1.9-6.3-0.9-12.8-1.9-18.6-4.7h-0.1c0.5 3.2 0.3 6.5 0.3 9.7-0.1 3.6 0.2 7 0.2 10.2z"/>
		<path class="st0" d="m404.4 292.7c-0.9 0.5-2.2 1.1-3.5 1.3 4.4 3.1 9.4 5.1 13.6 3.6 0.5-1.1 0.9-2.4 1.1-3.6 0.3-1.8-0.3-3.1-0.7-4.7-2.4 0.4-4.7-0.4-6.7-1.9 0.1 2.2-2.1 4.3-3.8 5.3z"/>
		<path class="st4" d="m239.7 394.9c0.2 0 0.2-0.2 0 0 7.3 3.5 14.3 2.8 22 4.2 1.2-3.2 2.4-6.3 3-9.7 0.5-2.8 0.7-6.1 0.3-8.9-0.3-1.3-0.5-2.4-0.5-3.8-5.3-7.4-14.8-6.7-22.9-6.5 3.5 6.6 2.9 18.9-1.9 24.7 0.2-0.2 0.2-0.2 0 0zm4.2-3.5c0.4-2.3 1.5-4.4 1.9-6.9 0-0.4 0.3-0.7 0.5-0.9 0-0.8 0.3-1.8 0.3-2.4 0-0.4 0.1-0.8 0.1-1.3-0.1-0.7-0.1-1.3-0.1-2.3-0.1-1.6-0.5-3.1-0.5-4.7 0-0.4 0.3-0.9 0.8-0.9 1.8-0.4 12.9 0 13.1 3.5 0.1 0.1 0.3 0.1 0.3 0.3 3.4 4.6 3.5 13.7-0.7 18.1-3.4 3.4-13.2 2.7-15.6-1.6-0.4-0.4-0.2-0.7-0.1-0.9z"/>
		<path class="st1" d="m458.5 298.3c-9 3.9-17.9 5.9-27.3 4 1.1 2.2 2 4.3 2.8 6.6 8.1 1.8 16.2 0.5 24.1-2 6.7-2.2 10.9-5.7 15.2-10.6-0.4-2.6-0.8-5.1-1.3-7.8-2.7 4.7-9.7 8.2-13.5 9.8z"/>
		<path class="st4" d="m385.4 359c0.4 1.1 4.4 0.5 5.5 0.4 1.2-0.3 2.2-0.5 3.2-0.4 0-0.4 0-0.7-0.1-1.1-2.8 0.2-9-0.1-8.6 1.1z"/>
		<path class="st1" d="m434.8 311.6c0.7 2.6 1.1 5.1 0.9 7.5 13.7 0.5 28.3 2.3 38.7-8.4 0-3.1-0.1-6.3-0.4-9.4-7.5 9.8-28.7 13.5-39.2 10.3z"/>
		<path class="st1" d="m483.5 339.5c1.8 2.2 3.4 4.4 4.7 6.9 1.3-0.7 2.6-1.5 3.2-2.7 0.4-0.8 0.5-1.8 0.8-2.7-0.5-0.7-1.1-1.2-1.5-1.6-0.9-1.1-1.9-2.3-2.8-3.4-0.3-0.4-0.5-0.7-0.8-1.1-0.1 1.1-1.1 2.3-1.5 3-0.3 0.4-1.2 1.2-2.1 1.6z"/>
		<path class="st0" d="m445.6 322.9c2.8 6.9 6.9 14 15.5 13.1 9.7-1.1 11.3-9.8 10-17.6-6.6 4.1-16.7 5.1-25.5 4.5z"/>
		<path class="st1" d="m421.3 339.1c-2.6 5.1 0.3 9.8 5.8 7.9 1.3-0.4 2.6-1.1 3.6-1.8-1.9-0.5-3.6-1.8-5-2.8-1.9-1.6-2.6-3.9-2.4-6.3-0.6 0.8-1.4 1.8-2 3z"/>
		<path class="st1" d="m361.8 360.9c-3.6 2.6-9 6.3-10.1 11-2.6 11.2 16.6 2.2 22-0.4-1.9-3-2.8-6.6-3.1-10.1-0.1-1.5-0.1-3.5 0.3-5.5-3.2 1.4-6.3 3.1-9.1 5z"/>
		<path class="st1" d="m407.2 369.5c0.7 0.1 1.5 0.1 2.2 0.1 0.4-0.3 0.9-0.3 1.3 0h0.1c0.3-0.1 0.5-0.3 0.8-0.4 0.1 0 0.3-0.1 0.4-0.1 2.3-1.9 2-6.5 2-9.4 0-1.8 0.3-4-0.4-5.9-0.1 0-0.3-0.1-0.4-0.1-4-2.7-8.6-2.3-13.2-1.9 2.3 4.7 2.4 11.7 0.8 16.8 2.4 0.3 4.4 0.8 6.4 0.9z"/>
		<path class="st6" d="m432.8 320.8c-2.3-7.4-3-14.4-6.9-21.6-0.9-1.8-2-3.5-3.1-5.1-0.5 1.2-1.2 2.3-1.9 3.2v0.3c-0.7 7.5-1.6 15.4-2.2 23.2 0.1 0.9 0 2 0 2.8 0 1.5 0 3.1-0.4 4.6-0.1 3.9-0.3 7.9-0.3 11.9 0.7-2 1.8-3.8 2.8-5.3 2-2.7 4.9-4.4 7.4-6.6 2.8-2.4 3.9-4.6 4.6-7.4z"/>
		<path class="st7" d="m268.7 227.7 0.3-0.3c1.5-1.3 1.5-4-0.7-4.9-1.3-0.5-3.2 0-4.3 0.9-0.9 0.7-1.6 2.3-1.3 3.5 0.6 2.7 4.5 2 6 0.8z"/>
		<path class="st1" d="m323.4 284.4c-9.3-0.9-18.6-1.3-27.9-2 4.2 4.6 4 10.9 6.9 16.2 7.7 13.9 29 7.3 42 10.9-0.1-7.3 0.3-14.6 1.3-22-7.1-0.1-15-2.3-22.3-3.1z"/>
		<path class="st1" d="m271.4 286.6c-2.4 2.8-3.9 6.3-5.8 9.4-2.4 3.9-4.9 6.9-9.4 8.1-6.2 1.8-13.2 1.9-19.5 2.4-5.7 0.4-11.5 1.9-17.1 2.2 1.6 1.2 3.2 2.6 4.9 3.9 3.2 2.6 7 4.9 10 7.8 11.2-1.5 23-0.5 34.4-0.5 11.7 0 23.6 0 35.3 0.3 16.2 0.4 32.5 0.4 48.6 1.2l-2.8-2.8c-1.8-1.8-3.8-3.6-5.1-5.8-12.4-2.3-25.6-0.7-37.2-5.9-4.3-1.9-7.1-4.4-8.6-8.9-1.6-4.7-2-10-5.7-13.9-2.2-2.3-4.9-3.2-7.7-3.9-5.7 0.7-10.4 1.8-14.3 6.4zm31.9 21.1c0.4 0.1 0.3 0.7-0.1 0.7-5.1 0.5-10.5-0.5-15.6-0.7-5.5-0.1-11 0-16.6 0.3-0.8 0-0.8-1.2 0-1.3 10-0.9 22.6-1.8 32.3 1zm-5.5-3.9c0.3 0.1 0.3 0.7-0.1 0.7-11.2-0.7-22.5-0.1-33.7-0.9-0.5 0-0.5-0.8 0-0.9 10.5-1.1 23.6-2.4 33.8 1.1zm-20.3-13.9c0.4-2.7 2.7-5 5.4-5.9 1.2-0.4 2.4-0.3 3.4 0.3 1.6 0.9 2.6 2.8 2.3 4.7-0.3 3.5-3.8 7.5-7.7 6.9-2.9-0.6-3.8-3.4-3.4-6z"/>
		<path class="st0" d="m285.5 291.5c0.7-1.1 1.2-2.6 0.9-3.8-0.3-0.8-1.1-2.6-3.5-1.9-3 0.8-5.8 4.6-3.1 7.5 1.8 2 4.8-0.1 5.7-1.8z"/>
		<path class="st1" d="m317.9 223.6c-3.9-0.3-7.9-0.5-11.9-1.1-4.4 9.3-9.8 17.5-13.2 27.5-3.1 8.9-4.9 18.2-7.8 26.9 0.9 0 2 0.1 3 0.4 0.5 0.1 0.7 0.4 0.8 0.7 1.8 0.5 3.4 1.3 4.9 2.4 10.5-0.4 21.6 1.1 31.9 2.2 5.5 0.5 14.8 0.3 20.7 2.6 1.9-12 5-23.8 8.9-34.9 3-8.6 6.9-16.7 11.9-24.4 1.8-2.6 3.5-5.5 5.7-8.1-17.5 5.4-37.3 6.8-54.9 5.8zm-2.2 39.6c-0.9 4.2-1.2 8.6-2.7 12.5 0 0.4-0.3 0.7-0.7 0.8-2.7 0.4-5.5 0.3-8.4 0.1-2.4-0.1-5.1 0-7.3-0.9-0.3-0.1-0.4-0.4-0.4-0.7-0.1-0.1-0.3-0.3-0.3-0.5-0.5-4.2 1.2-8.9 2.3-12.8 0.1-0.7 0.8-0.8 1.3-0.5 2.3-0.9 5.4-0.4 7.8-0.3 1.8 0.1 4.6 0 6.5 0.8 1-0.3 2.2 0.3 1.9 1.5zm4.7-15.7c-1.1 3.2-2.2 6.6-3.1 10-0.3 1.1-1.5 1.1-2 0.5-1.9 0.3-4.2-0.5-5.9-0.7-2.6-0.3-5.7 0.1-8.1-0.9-0.3-0.1-0.5-0.4-0.5-0.7-0.3-0.1-0.4-0.5-0.3-0.8 1.1-3.2 2.3-6.5 3.8-9.6 0.3-0.5 0.7-0.5 0.9-0.3 2.2-0.8 5-0.3 7.1-0.1 2 0.3 4.6 0.3 6.5 1.2 1-0.4 2 0.3 1.6 1.4zm0.2-6.1c-1.9 0.1-4.2-0.5-5.9-0.8-2.4-0.3-5.3 0-7.5-0.9-0.4-0.1-0.4-0.8-0.1-1.1v-0.4c0.9-3.5 2.3-7.7 5.3-10 0.3-0.3 0.5-0.3 0.8-0.3 2-0.8 4.4-0.4 6.6-0.3 2.3 0.1 5.3-0.1 7.3 1.1 0.4 0.3 0.5 0.9 0 1.2v0.3c-1.2 3.6-2.8 7.1-4.2 10.6-0.6 1.2-1.8 1.2-2.3 0.6zm20.6 21.8c-0.8 3.1-1.5 6.1-1.8 9.2-0.3 2.2-0.4 4.3-1.6 6.2-0.3 0.5-0.8 0.4-1.2 0.1-2.2-0.3-4.3-0.7-6.5-0.8-2-0.1-4.2 0-6.2-0.5-0.7-0.1-0.9-0.9-0.7-1.5-0.4-4.6 1.5-10 2.7-14.4 0-0.1 0.1-0.3 0.1-0.4 0.3-0.4 0.7-0.5 1.1-0.4 2-0.4 4.3-0.1 6.3 0 2.2 0.1 4.7 0.1 6.7 1.1 0.1 0 0.1 0.1 0.3 0.1 0.5 0.3 0.9 0.7 0.8 1.3zm-3.4-34.3c2.2-0.5 4.4-0.4 6.6-0.4s4.6 0 6.6 0.8c0 0 0.1 0 0.1 0.1 0.7 0.1 1.2 0.7 0.9 1.3-3.6 8.6-7.3 16.8-9.2 26-0.3 1.1-1.8 0.9-2.2 0.3-1.9-0.3-3.8-0.5-5.7-0.7-2-0.1-4.2 0-6.2-0.5-0.1 0-0.1-0.1-0.3-0.1-0.5 0-1.1-0.4-0.8-1.1 2.7-8.2 4.3-17.1 9.3-24.1 0-0.8 0.2-1.5 0.9-1.6z"/>
		<path class="st8" d="m356.3 256.6c-5.5 17.8-8.5 35.3-9.7 53.9 0.1 0.1 0.1 0.4 0.1 0.5 1.9 2 3.8 4 5.7 5.9 0.9 0.9 2.3 2 3.2 3.4 3.2-21.2 6.2-42.3 10.9-63.2 3.1-13.7 5.5-29.1 12.8-41.5-5.7 3.6-10 12-13.2 17.5-4.2 7.4-7.3 15.5-9.8 23.5z"/>
		<path class="st0" d="m401 279.3c-0.9 1.8-3.8 3.1-5.3 3.8-1.5 0.5-3.1 0.9-4.7 0.8 0.9 1.5 2 2.8 3.2 4 1.3 1.5 3 3.1 4.7 4.4 1.5-0.1 2.8-0.3 4.3-0.9 0.9-0.5 1.9-1.2 2.6-2.2 0.5-0.8 0.7-1.8 1.2-2.6l0.1-0.1c-2.6-2-4.7-4.8-6.1-7.2z"/>
		<path class="st5" d="m408.4 165.2c-1.3 0.1-2.7 0.4-4 0.7h-0.4c-2.6 5-5.5 9.7-9.2 14 1.8-1.6 3.5-3.2 5.3-5 2.7-3 5.2-7.2 8.3-9.7z"/>
		<path class="st7" d="m270.7 266.2c4-6.6 5.9-16.2 8.6-23.8-3.6-0.3-7.3-0.4-10.9-0.8-4-0.4-8.8-0.5-12.4-2.2-0.9 4.2-3.5 7.7-5.4 11.6-2.6 5.5-5.5 11-6.9 17 5.4 0.3 10.8 0.3 16.2 0.7 4.8 0.5 8.3 2 10.8-2.5z"/>
		<path class="st1" d="m267 338.4c8.2 0.4 16.3 0.4 24.5 0.7 3.2 0.1 6.6-0.1 10.1-0.1 18.5-1.3 36.5-0.7 55-4.6 18.6-3.9 39.2-8.5 55.9-17.6 0.3-2.7 0.9-5.5 1.5-8.2 0.4-2.3 0.4-5 0.8-7.3-6.1 1.2-13.5-2.4-19.1-7.3-14.3-12.3-16.7-31.9-16-49.6 0.7-15.8 5.7-37.6 22.1-44.6 11.5-4.9 27.2 6.5 21.6 18.7 1.3 0.4 2.7 1.1 4 1.6 1.6-10 4.4-19.5 10.5-27.8 4-5.4 7.3-7.7 12.8-7.3-2.8-2.4-6.1-4.6-9.6-6.2-8.4-4-17.4-4.9-26-7.9h-0.1c-7.7 9.3-17 16.8-27.3 23 3.1 1.9 4.7 5.7 4.4 9.4-0.5 5.8-4.6 8.6-9.4 10.8v0.3c-6.7 15.2-10.5 30.7-14.1 46.9-2.6 11.3-4.3 22.8-6.3 34.1-1.6 9-1.6 19.4-4.4 28-0.3 0.8-0.9 1.1-1.5 0.9-0.1 0-0.1 0.1-0.3 0.1-5.8 0.9-12-0.1-17.8-0.3-10.9-0.3-21.8-0.4-32.6-0.8-12.3-0.4-24.5-0.4-36.9-0.5-11.2 0-22.8 0.8-34-0.5-0.3 0.5-1.1 0.9-1.9 0.5-3.4-1.9-6.5-4.6-9.6-7-0.9-0.7-1.9-1.3-2.8-2.2-0.5 6.1-0.3 12.1-0.7 18.2 6.5-0.1 12.8 2.3 19.1 3.4 9.3 1.2 18.6 2.7 28.1 3.2z"/>
		<path class="st1" d="m379.7 193.6c-3 2-6.1 3.8-9.3 5.3 2.7-1.1 5.5-2.2 8.2-3.5 14.4-7.3 27.5-17.6 37-30.9-0.8 0.1-1.6 0.1-2.4 0.3-5.8 4-9.8 10.5-14.8 15.5-5.7 5.8-11.6 9-18.3 13.3h-0.4z"/>
		<path class="st1" d="m259.1 206.7c-0.8-0.5-1.6-1.1-2.4-1.6-6.9 9.7-11.7 20.5-15.8 31.5 6.1-10 12.7-19.3 20.2-28.6-0.6-0.4-1.3-0.8-2-1.3z"/>
		<path class="st7" d="m300.1 263c-0.8 3.6-1.6 7.3-1.9 11 2.2-0.3 4.3 0.1 6.5 0.1 2.3 0.1 4.7 0 7 0.4-0.1-3.5 0.5-7 1.3-10.4-1.8 0-3.8-0.5-5.4-0.7-2.4-0.2-5.2 0.1-7.5-0.4z"/>
		<path class="st0" d="m237.7 228.6c-0.9-0.7-2.2-1.2-3.2-1.6-2.8-0.9-5.8 0-8.6 0.5-1.1 3.5-2 7-2.7 10.6 2.2-1.1 5.1-0.9 7.3-0.4 1.6 0.3 4.3 1.2 5.7 2.8 1.1-3.2 2.3-6.6 3.5-9.8-0.5-0.7-1-1.5-2-2.1z"/>
		<path class="st1" d="m224 280.4c16.6-2.3 34.4-2.4 50.9-0.8 2.3-1.5 5-2.4 8.1-2.6 2.6-18.7 9.7-39.2 20.7-54.7-14.1-1.9-28.4-5.8-40.4-12.9-4.4 6.7-10 12.8-14.6 19.5-5 7.4-9.2 15.4-13.3 23.2-5 9-8.5 18.4-11.4 28.3zm59.4-56.6c1.1 0.3 2.2 0.8 2.8 1.6 1.3 1.5 1.9 3.5 1.3 5.5-0.5 1.8-2 3.2-3.8 3.9-2.2 0.7-5.1 0.3-6.6-1.5-0.7-0.9-1.1-2-0.9-3.2 0.2-3.6 3.3-7.1 7.2-6.3zm-15.6-3.9c1.1 0.3 2.2 0.8 2.8 1.6 1.3 1.5 1.9 3.5 1.3 5.5-0.5 1.8-2 3.2-3.8 3.9-2.2 0.7-5.1 0.3-6.6-1.5-0.7-0.9-1.1-2-0.9-3.2 0.2-3.8 3.4-7.1 7.2-6.3zm-22.3 34.5c2.7-5.8 5-12.4 9.7-16.8 0.3-0.4 0.8-0.7 1.3-0.5 7.9 1.5 16.6 1.1 24.4 3.4 1.1-0.1 2.3 0.5 1.9 2-1.6 5.8-4 11.6-6.1 17.2-1.1 3.1-2.6 9.8-4.9 12.4-1.5 1.8-2.7 1.3-4.9 1.5-8.2 0.3-17.1-1.5-25.3-1.9-0.8 0-1.8-0.8-1.6-1.6 0.9-5.9 3.2-10.6 5.5-15.7z"/>
		<path class="st7" d="m335.5 253.4c1.9 0.1 3.9 0.3 5.8 0.8 1.6-4.3 3.1-8.6 4-13.1 0.7-3.2 1.9-6.6 3.8-9.6-1.6-0.1-3.4-0.4-5-0.4-2 0-4.2 0.1-6.2-0.3-3.5 7.3-6.1 14.7-8.1 22.5 1.8-0.2 3.8 0 5.7 0.1z"/>
		<path class="st0" d="m327.7 263.1c-0.7 3.9-1.1 8.2-2.3 12.1 1.6-0.1 3.4 0 5 0.1 2 0.1 4.2 0.3 6.1 0.8 0.5-4 1.1-8.1 1.9-12.1-1.8-0.3-3.6-0.5-5.4-0.7-1.6 0.1-3.5 0.2-5.3-0.2z"/>
		<path class="st7" d="m305.3 246.8c-1.1 2.6-2 5.1-3 7.8 2.2-0.5 4.7 0 6.9 0.1 1.8 0.1 4.2 0.1 5.9 0.8 0.7-2.4 1.5-5 2.3-7.4-1.9 0-3.9-0.7-5.7-0.9-1.9-0.1-4.3 0.1-6.4-0.4z"/>
		<path class="st0" d="m313.4 229.7c-1.9 2.6-2.8 5.4-4 8.1 1.9-0.3 4 0.1 5.8 0.4 1.6 0.1 4 0.1 5.8 0.8 1.1-2.8 2.2-5.5 3.5-8.2-1.3 0-2.8-0.3-4.3-0.4-2.1-0.3-4.6-0.2-6.8-0.7z"/>
		<path class="st5" d="m342.4 354.5c-3.4 0.5-6.9 0.9-10.4 1.2-1.3 5-3.4 9.8-4.4 15-0.8 4-0.9 8.1-1.5 12.3 3.2 2.8 6.1 6.5 7.9 10.4 0.5-6.7 1.2-13.2 2.7-19.9 1.5-6 2.6-13.5 5.7-19z"/>
		<path class="st3" d="m308.4 381.1c-10.9 3.4-12.7 17.4-9.3 26.8 7.4 1.2 14.3 2.7 21.8 0.5 5.1-1.3 9-3.6 13.2-6.5-3.7-10.3-12.6-24.8-25.7-20.8zm6.6 13.9c-1.5 1.5-4 1.9-5.7 0.8-1.8-1.3-2.6-3.9-1.8-6.2 0.9-2.3 3.5-4 5.8-3.2 3.4 1.2 4.6 6 1.7 8.6z"/>
		<path class="st4" d="m310.6 388.5c-1.8 1.3-1.9 3.9-0.4 5.4 1.2 1.2 3.2 0.8 4.2-0.7 1.5-2.5-1.1-6.8-3.8-4.7z"/>
		<path class="st1" d="m296.6 408.3c-0.7-1.3-1.1-2.7-1.5-4-2.6-1.8-5-3.6-7.1-5.8-0.5 3.4-4.3 5.8-7.7 6.5-0.4 0-0.7 0.1-1.1 0.1 8.4 3.8 16.3 9 20.6 16.3 1.5-1.3 3-2.4 4.2-4.2 0.7-1.1 1.2-2.3 1.3-3.6v-1.5c-2.7-0.4-5.4-1.1-7.9-2-0.8-0.4-0.9-1.1-0.8-1.8z"/>
		<path class="st1" d="m442.9 504.5c-1.3-4.4-2.4-9.4-3.1-14.4-5.3 3-8.2 7.3-11.6 12.9 2.2 4.9 4.7 9.6 7.9 14.1 2.6 3.6 5.5 6.6 8.9 8.5 3.6-0.5 7-1.6 10.1-3-6.3-3.8-10-11.1-12.2-18.1z"/>
		<path class="st1" d="m296.1 420.9c0-0.1 0-0.3 0.1-0.4-4.4-4-9-7.5-14.4-10.6-6.6-3.8-13.3-5.5-20.1-8.6h-0.1c-4.4 0.7-9.2 0-13.6-0.8-3.5-0.5-7.3-1.5-9-4.9v-0.1c-2.2 1.1-5.3 0.5-7.5 0.5-2.4 0.1-4.6 0.5-6.7 1.2 2.7 11.5 3.9 23.3 6.7 34.8 1.6 6.5 3.6 12.7 6.1 18.6 4.7 1.8 7.9 2.3 13.3 1.8 5.3-0.7 10.4-2.2 15.5-3.1 6.6-1.2 16.7-5.3 23.2-1.6 7.7 4.3 4.7 13.7-0.4 18.6-9.7 9-25.9 16.2-39.1 11 3.2 6.1 6.9 11.9 10.6 17.5 9.2 3.1 18.3 5 28 2.7 12.3-3 21.7-13.3 24.4-25.5-0.5-0.9-1.1-1.9-1.6-2.8-4.3-7.9-8.1-16.6-10.8-25.2-2.5-6.8-5.3-16-4.6-23.1z"/>
		<path class="st1" d="m456.9 521.9c11.7-6.1 18.1-17.6 19.3-32.3-9.6-4.4-19.8-5.1-29.9-2.2-1.8 0.5-3.2 1.1-4.7 1.8 1.4 12.6 4.9 25.2 15.3 32.7z"/>
		<path class="st1" d="m439.5 488.5c-0.5-4.2-0.8-8.4-0.7-12.1-4.4 2.2-9.2 3.5-13.9 3.4-1.2 0.1-2.4 0.1-3.5 0.1 1.3 7.7 3.4 15.1 6.3 22.1 2.4-6.1 6.4-10.5 11.8-13.5z"/>
		<path class="st1" d="m360.5 379.6c-5 1.2-11.2 0-11.3-6.3v-0.9c-1.8 1.5-3.6 2.8-4.6 3.8-3.2 3.4-5.4 7.5-7.7 11.6-0.3 3-0.7 6.1-1.3 8.9 0.7 1.8 1.1 3.4 1.3 5.1v0.1 0.2c0 0.3-0.1 0.5-0.3 0.8 0.7 1.2 0.4 1.8 1.9 0.5 1.2-1.1 2-3.1 3-4.4 2-3 4.3-5.9 6.7-8.6 3.9-4.2 7.9-7.7 12.3-10.8z"/>
		<path class="st1" d="m275.7 516.9c1.9 2.6 3.6 5.3 5.5 7.8 0.3 0 0.5 0 0.8 0.1 9.2 5.4 23.4 2.4 32.2-2.3 10.6-5.8 12.8-16.4 15.6-26.9-1.9-2.6-3.9-5-5.8-7.5-0.2 22.8-28.2 34.8-48.3 28.8z"/>
		<path class="st0" d="m273 473.1c4.6-1.6 10.2-3.5 13.6-7.3 3.5-3.9 8.4-14.3 0.9-16.8-7.7-2.7-20.2 3.1-27.9 4.7-6.9 1.6-14.1 3.2-20.7 0.7 1.8 4.3 3.8 8.6 5.8 12.9 1.1 2.3 2.2 4.4 3.2 6.6 7.7 3 17.4 1.9 25.1-0.8z"/>
		<path class="st1" d="m229.5 393.5c2.7-0.1 6.7-0.7 9.3 0.5v-0.1c3.2-6.9 2.7-15.8 1.2-23-8.8-1.2-25.2-3.6-25.5 9.6-0.1 6.5 0.8 16 7.7 18.2v-0.5c-0.9 0.3-1.6-1.1-0.9-1.8 1.9-2.3 5.4-2.7 8.2-2.9z"/>
		<path class="st0" d="m220.3 346.9c1.9 0.5 3.6 0.9 5.5 1.3-0.8-2.3-0.5-5.5-0.4-7.1 0.1-1.9 0.4-4.3 1.5-6.1-2.6-0.4-5.3-0.9-7.8-1.3-0.7 0.1-1.2 0.1-1.8 0.8-0.4 0.5-0.5 1.3-0.8 2-0.4 1.3-0.4 2.8-0.4 4.3 0 1.1-0.5 3.2 0.3 4.2 0.8 0.9 2.7 0.9 3.6 1.6l0.3 0.3z"/>
		<path class="st1" d="m297 531.2c-4.9 0.3-9.7-0.5-13.9-2.6 0.3 6.5-3.6 13.5-5.8 19.5-0.4 1.1-0.7 2.2-1.1 3.2 4.3-2.6 10-3.4 15.2-3.5 2.6-5 4.9-10.4 5.6-16.6z"/>
		<path class="st1" d="m477.9 493.9c-2.3 15.5-12.4 32.6-29.2 33.7 8.8 3.4 18.7 0.9 25.9-8.4 8.4-10.9 8.9-27.1 8.1-40.3-0.8-12.1-4-26.7-10-37.5-1.1-1.2-2.4-2-3.9-2.7 9.7 15.4 11.6 38.2 9.1 55.2z"/>
		<path class="st1" d="m292.4 499.1c-7.7 3-20.5 4.3-29 0.3 3.1 4.6 6.2 9 9.4 13.5 8.6 3.4 19.5 2.6 28-0.4 12.4-4.3 18.6-13.9 20.5-26.3 0-0.4 0.3-0.7 0.5-0.8-2.6-3.2-5-6.6-7.1-10-1.8 11.1-11.9 19.8-22.3 23.7z"/>
		<path class="st1" d="m283.3 587.9c-3.9-5.5-3.6-12.9-1.8-19.3 2.2-7.4 6.1-13.6 9.4-20.1-5.8 0.5-11.3 2.3-15.6 5.1-1.8 5.5-3.2 11.2-3.8 17-0.5 5.3-0.8 11.2 1.6 15.9 3.3 1.6 6.8 1.8 10.2 1.4z"/>
		<path class="st1" d="m316 525.6c-4.9 2.8-11.2 5-17.6 5.5-0.1 5.7-2.3 11.2-5 16.7h3.9c7.8 0 20.6 3.8 21.7 13.2 0 0.5-0.7 0.5-0.9 0.1-3.8-9.3-14.4-13.1-25.1-12.5-6.6 13.1-16.3 25.9-8.4 39.3 7.5-1.1 15.4-5.1 20.2-8.9 7.1-5.7 14.1-12.4 18.9-20.1 8.6-14 15.1-31.8 15.8-48.5-0.3-0.3-0.3-0.7-0.3-0.9-2.3-3.9-5-7.5-7.7-11.3 1.7 10.5-6.9 22.2-15.5 27.4z"/>
		<path class="st1" d="m322.7 564.5c-7 8.2-15.2 17.9-25.6 22-5.7 2.2-14.8 4.4-21.7 3.1 5.7 6.3 15.5 5.3 23 3 26.7-7.8 55.6-49 43.9-77.1-0.1 6.7-3.2 14.4-4.7 20.1-2.6 10.3-7.9 20.9-14.9 28.9z"/>
		<path class="st6" d="m419.1 348.8c-0.3-0.4-0.5-0.7-0.8-1.1 0.5 8.2 1.9 16.4 4.4 24.1 5-6.6 7.5-16 9.8-23.8-4.7 2.5-10.5 3.8-13.4 0.8z"/>
		<path class="st1" d="m470 370.1c2-0.8 3.1-1.9 4.3-3.5-0.4-2.4-1.1-5.1-1.8-7.7-1.2 1.5-3.4 2.6-4.6 3.1-3 1.3-6.2 1.3-8.8-0.5 0.1 0.7 0.3 1.3 0.4 2 0.4 1.6 0.9 3.5 1.5 5.5 3.1 1.4 5.7 2.3 9 1.1z"/>
		<path class="st1" d="m452.9 465.6c-3.4 3.8-7.7 7.3-12.4 10 0.3 3.9 0.5 7.9 0.9 12.1 1.3-0.7 3-1.2 4.4-1.8 9.2-2.8 22.2-3.8 30.4 2.3 0.9-16-0.7-37.5-10.9-50.7-1.5-0.4-3.1-0.7-4.7-0.9 5.5 9.3-1.3 21.9-7.7 29z"/>
		<path class="st1" d="m464.6 351.2c2.3-0.5 3.4-1.9 4.7-3.4-0.1-0.4-0.1-0.7-0.3-1.1-0.1-0.5 0.1-1.1 0.4-1.3v-0.3c-0.1-0.9 1.2-1.8 1.8-0.7 0.5 0.9 1.1 2 1.6 3 1.9-0.1 3.5-0.1 5.3-1.3 1.1-0.7 1.9-1.6 2.4-2.7 0.3-0.5 0.4-1.3 0.5-1.9-1.2-1.6-2.2-3.4-2.6-5.4-0.1-0.8 0.8-1.6 1.5-0.9 0.9 0.9 1.9 1.9 2.7 3 0.3-0.1 0.5-0.1 0.8-0.4 0.5-0.4 1.1-0.8 1.5-1.5 0.4-0.5 0.7-1.2 0.9-1.9 0.1-0.5 0.1-0.9 0.5-1.3-1.5-2.2-3.1-4.3-4.4-6.6-2.2-3.5-5.5-7.8-6.5-12.1h-0.1c-0.7 0.8-1.5 1.6-2.3 2.3 3.5 8.4-0.7 18.3-9.8 20.5-9.7 2.4-16.6-6.1-18.6-14.7-3.4-0.3-6.3-0.8-8.9-1.5-0.4 3-1.9 5.3-4 7.4v1.6c0 1.5 0.1 3 1.1 4.3 0.8 1.3 2.2 2.6 3.6 3.2 1.1 0.4 2 0.5 3.1 0.5 0.1-0.1 0.3-0.3 0.4-0.3 0.5-0.4 1.2-0.1 1.3 0.5 0.1 0.1 0.4 0.4 0.4 0.7 0.1 1.5-0.3 4.9-0.7 8.8 0 0 0.1 0 0.1 0.1 1.6 2 4 3.4 6.6 3.8 1.5 0.3 3 0.3 4.4-0.1 0.8-0.3 1.5-0.8 2.2-1.3 0-1.6 0.1-3.4 0.9-4.4 0.4-0.7 1.3-0.7 1.8 0 0.7 0.9 0.9 2.6 0.9 4.2v0.3c2.1 1.1 4.2 1.6 6.8 0.9z"/>
		<path class="st4" d="m203.2 117.5c-0.5 1.9 0.9 3.6 2.8 3.9 1.6 0.1 2.8-1.2 2.7-2.8-0.2-2.5-4.7-4-5.5-1.1z"/>
		<path class="st1" d="m467.6 360.4c2-0.9 3-2.2 4.2-3.9-0.7-2.4-1.5-4.6-1.9-6.5-1.3 1.5-3.5 2.6-5.1 3-2.3 0.5-5 0.4-6.9-0.9 0.4 2.6 0.7 5.1 1.1 7.7 2.9 1.7 5.5 2.1 8.6 0.6z"/>
		<path class="st1" d="m492.6 344.9c-0.9 1.3-2.2 2.3-3.8 2.7 0.8 1.6 1.5 3.2 2 4.9 7.7-1.3 5.5-6.2 2.8-9.8-0.2 0.8-0.6 1.6-1 2.2z"/>
		<path class="st1" d="m487.6 352.3c-0.5 1.6-1.9 3.2-3.1 4.2-1.6 1.3-3.6 2.2-5.7 2 0.4 0.7 0.9 1.3 1.3 2 1.5 2 5.9 7.1 8.8 3.8 1.1-1.2 0.5-4 0.4-5.5-0.3-2.2-1-4.5-1.7-6.5z"/>
		<path class="st1" d="m471.2 371.6c-2.8 1.2-6.3 1.2-9.2-0.3 1.3 3.2 3.2 5.9 6.5 6.3 5.1 0.7 6.3-3.1 6.1-8.2-1.1 1-2.5 1.8-3.4 2.2z"/>
		<path class="st1" d="m485.6 352.3c0.4-0.8 0.7-1.6 0.9-2.6-0.1-0.4-0.3-0.7-0.5-1.1-0.9-1.9-2.4-3.5-3.8-5.3-0.5 1.5-1.9 3-2.8 3.8-1.3 1.1-3.8 2.2-5.8 2.2 1.3 2.4 2.6 4.9 4 7.3 2 0 4-0.5 5.7-1.8 1-0.5 1.8-1.4 2.3-2.5z"/>
		<path class="st1" d="m439.5 359.4c-0.1 2.8-0.3 5.7 0 8.2 1.8 0.8 3.1 2 5.3 2.3 1.3 0.3 2.7 0.1 3.9-0.3 0.9-0.3 1.6-1.2 2.6-1.3 0.5-2.7 0.8-5.4 1.1-7.3-1.9 1.2-4.4 1.8-6.3 1.6-2.7 0.1-5.1-1.1-6.6-3.2z"/>
		<path class="st1" d="m408.5 372.5h-1.1c-2.6-0.1-5.1-0.5-7.5-1.3-0.1 0.1-0.1 0.3-0.3 0.4-0.3 0.4-0.7 0.5-0.9 0.4-6.2 3.5-16.6 4.9-22.9 1.3h-0.4c-3 1.3-5.8 3-8.9 4.2-5.4 4-10.9 8.2-15.4 13.5-3.2 3.8-5.9 8.6-9.3 12.5l0.1 0.1c2.4 8.8 2.4 18.1 4.9 26.8 3.2 11.7 10.4 19.8 20.2 26.8 6.2 4.4 13.5 8.2 21.2 11.2 0.1-0.3 0.5-0.4 0.9-0.3 12.3 2.4 24-2.7 33-11 10.4-9.7 11-19 10.2-32.2v-0.1c-1.6-1.2-3.4-2.6-5-3.8l-0.8-0.8c-1.3 16.7-28.4 35.6-43.2 25.7-5.4-3.6-5.1-7.9-0.3-11.9 5.8-4.6 12.9-6.9 18.2-12.3 3.4-3.5 7.5-9.4 9.2-14 0.9-2.6 1.1-4.9 2-7.3-3.9-8.9-5.6-18.9-3.9-27.9z"/>
		<path class="st1" d="m439.7 369.9c0.7 3.9 2.2 6.6 5.1 6.5s4.6-2.6 5.7-5.4c-2.5 1.6-8.1 1.1-10.8-1.1z"/>
		<path class="st1" d="m396 471.3c4.7 1.5 9.6 2.7 14.3 3.6 20.5-3.1 37.9-21 33.4-42.7 0-0.1 0-0.3 0.1-0.4-3.4-1.6-6.6-3.5-9.6-5.7 8.3 21.2-16.9 45.6-38.2 45.2z"/>
		<path class="st1" d="m439.7 460.8c-5.5 7.1-13.3 13.5-22.2 15.4 2.8 0.4 5.5 0.8 8.2 1.1 0.1 0 0.1 0 0.3 0.1 19.5-2.2 38-21 32.3-41.1-2.4-0.4-5-0.8-7.3-1.5-2-0.7-3.9-1.3-5.8-2.3 5.1 8.4 0 21.1-5.5 28.3z"/>
		<path class="st0" d="m389.3 432.5c-2.6 1.5-7.5 6.6-6.6 10 0.4 1.3 4.6 3 5.8 3.4 6.1 1.8 12.4-0.7 17.5-3.8 8.8-5.3 16.7-13.5 18.5-23.7-4.4-4.3-8.2-9.8-11.2-15.9-1.8 6.6-3.6 11.9-8.2 17.6-4.4 5.6-9.8 8.9-15.8 12.4z"/>
		<path class="st1" d="m432 336.5c-1.3-1.6-2.2-4-2-6.3-1.1 0.9-2.3 1.9-3.5 3-0.5 0.4-0.9 0.8-1.5 1.2-0.3 2.7 0.4 5 2.3 7 1.5 1.8 3.4 2 5.4 2.4 1.6-1.2 3.2-2.7 4.9-4-2.2-0.2-4.4-1.8-5.6-3.3z"/>
		<path class="st1" d="m263.7 293.4c2.8-4.7 5.5-9.3 9.3-12.5-16.4 0.7-32.9-0.5-49.4 0.7-2.4 7.9-3.8 16.4-6.2 24.4 7.4-0.8 14.7-2.2 22.2-2.8 9.6-0.8 18.7-0.6 24.1-9.8z"/>
		<path class="st5" d="m416 331.3c-0.8 0.7-1.9 1.1-3 1.2-0.1 0.1-0.1 0.3-0.4 0.4 0 0-0.1 0-0.1 0.1 0 3.4 0 6.7-0.1 10.2-0.1 2 0 4.3-0.8 6.2 5.7 1.2 4.7 7.4 4.6 12.7-0.1 3.5-0.4 11.2-5.1 10.1-0.1 2.4-0.3 5-0.1 7.4 4.4-0.9 7.8-3.4 10.6-6.6-5.2-12.6-6.3-27.2-5.6-41.7z"/>
		<path class="st1" d="m447.8 353.8c-2.8-0.3-5.7-1.6-7.4-3.9-0.3 2.6-0.5 5.3-0.8 7.9 2.2 1.3 3.6 3 6.2 3.4 2.8 0.4 4.7-0.7 6.7-2 0.4-2.2 0.8-4.2 1.2-6.3v-0.3c-1.6 1-4.1 1.3-5.9 1.2z"/>
		<path class="st1" d="m175.2 148.2c0.3-2.6 0.7-5.1 1.1-7.8 0.1-1.3 0.5-3.8 0.7-6.6-3.4-5.5-13.9-5.5-18.9-2.4-0.4 4.9 0.3 10 1.1 14 4.8-2.6 12.9-2.1 16 2.8z"/>
		<path class="st4" d="m206.3 95.6c-2.4 0.7-3 5.5 0 5.7 2 0.1 3.4-1.6 3.2-3.5-0.1-1.8-1.6-2.7-3.2-2.2z"/>
		<path class="st1" d="m114.7 176.1c-1.6-3.6-1.5-8.8 1.8-11-3.1-1.5-5.7-3.6-7.4-6.3-8.1 3.2-2.8 12 1.6 15.1 1.3 1 2.5 1.6 4 2.2z"/>
		<path class="st1" d="m177.1 131.2c0.3-8.4-1.3-18.2-11.5-13.5-4.4 2.2-6.6 6.6-7.4 11.6 5.4-2.5 14.4-2.5 18.9 1.9z"/>
		<path class="st1" d="m121.3 166.6c-1.1-0.1-2-0.4-3-0.8-0.1 0-0.3 0.1-0.4 0.1-3.6 1.9-3.4 7.9-1.1 10.8v0.1c1.8 0.5 3.6 0.7 5.5 0.8 3.1 0 6.5-0.4 9.6-1.5-2.4-3-2.4-6.5-0.7-9.7-3.6 0.6-7.3 0.8-9.9 0.2z"/>
		<path class="st1" d="m138.2 151c-1.2-0.7-2.6-0.9-3.9-1.2-4.6 2.3-5.3 9.8-2.8 13.9 0 0.1 0 0.1 0.1 0.3 0.5-0.1 1.1-0.3 1.6-0.4 5.9-1.8 13.2-8.5 5-12.6z"/>
		<path class="st1" d="m142.6 161.7c-2.2 2-5.4 3.5-8.9 4.3-2.2 3.1-2.6 6.7 0.1 9.6 0.5-0.3 1.1-0.5 1.5-0.8 1.6-0.9 3.4-2 4.6-3.4 2-2.1 3.5-6.5 2.7-9.7z"/>
		<path class="st1" d="m131.3 185.9c0.1 0.1 0.3 0.3 0.3 0.5 5.9-2 10.1-6.1 8.1-11.2-2.7 1.8-6.1 3-9.3 3.8-1.1 2.2-1.1 5.4 0.9 6.9z"/>
		<path class="st3" d="m203.8 91.5c-5.9 4.6-6.7 14.7-6.5 22 0.3 10.6 4.3 16.2 14.1 19.8 1.3 0.5 2.8 1.1 4.2 1.8-0.9-4.7-1.6-9.4-2-14.1-0.9-12.8 0.4-25.6 4.2-37.6-4.1 3.4-9.5 4.6-14 8.1zm6.7 27.9c-0.3 1.9-1.9 3.5-3.8 3.6-2.2 0.1-4.3-1.2-5-3.2s0.1-4.7 2.3-5.3c3.1-0.9 6.9 1.6 6.5 4.9zm-1.6-17.2c-1.9 1.1-4.6 0.7-5.7-1.2-1.5-2.8 0.3-7 3.6-7.3 1.9-0.1 3.8 1.1 4.3 3 0.6 2-0.3 4.5-2.2 5.5z"/>
		<path class="st0" d="m235.6 225.8c1.1 0.4 3.6 1.6 4.9 3.1 1.2-3.1 2.6-6.2 3.9-9.2-0.9-0.5-1.3-1.5-2.2-2.2-1.1-0.8-2.4-1.5-3.6-1.9-2.7-0.8-5.3-0.7-7.8 0h-0.3c-0.3 0.5-0.4 1.1-0.7 1.5-1.2 2.8-2.4 5.8-3.4 8.8 2.8-0.9 6.3-1.3 9.2-0.1z"/>
		<path class="st5" d="m312.2 204.8c5.3 0.7 10.5 0.9 15.8 0.8 0.1 0 0.1 0 0.3-0.1 2.8-0.1 5.5-0.3 8.2-0.4 15.2-1.5 30-6.3 42.7-15.1 18.3-12.7 28.3-35 32.6-56.3 3.4-16.6 1.2-31.9-0.5-48.4-2.4-8.8-6.3-17-13.3-24.5-10.2-11.2-26.3-17.2-40.6-21.4-27.5-8.2-62-12.9-90.1-5-32.7 9.3-49.8 42-51.1 74.2-0.4 10.1 0.5 20.6 3.2 30.6 0.1 0.5 0.4 1.1 0.4 1.6 1.9 6.3 4.3 12.4 7.7 17.9 7.7 12.7 18.2 19.7 29.2 28.6 16.3 10.2 36.9 15.2 55.5 17.5zm44.7-32.1c6.5-6.3 15.1-10.5 22-16.6 2.8-2.4 14.1-9 15.8-3.2 0.7 0 1.3 0.4 1.3 1.3-0.9 10.6-6.6 17-14.3 23.8-5.5 4.9-13.5 12-21.6 11.3-10.2-0.8-8.7-11.2-3.2-16.6zm-122.7-79.2c4.3-19.3 16.6-41.6 35.4-50 0-0.3 0.1-0.7 0.5-0.8 6.3-2.2 23.6-7.1 28.3 0.8 3.1 5.3-4 11.7-7.1 15-10.6 11.2-17.2 22.9-22.5 37.3-3.5 9.2-6.2 21.8-12.9 29.4-5.3 6.1-12.9 6.7-18.3 0.4-6.9-8.3-5.5-22.5-3.4-32.1zm8.4 47.4c5.3-7 16.7 0.9 19.8 6.7 3.5 6.3 2 14.7-4.9 17.8-13 5.8-25.8-16.3-14.9-24.5z"/>
		<path class="st0" d="m263.7 206.9c5.8 3.2 12.1 5.5 18.5 7.5 12.3 4 24.5 5.8 37.3 6.5 12.7 0.7 25.6-0.4 38.1-2.6 5.8-1.1 11.5-2.4 17-4.3 6.5-2.2 24.3-11 10.4-18.5-1.5 0.8-3 1.6-4.6 2.4-12.7 6.3-25.1 8.8-38.3 9.6-10.9 1.6-22 1.5-32.9 0-17.5-2.6-36.2-7.1-51.3-17-0.3 0.1-0.7 0.1-0.9-0.1-0.7-0.5-1.5-0.9-2.2-1.5-6.5 1.9 0.1 11.5 2.3 13.6 1.9 1.9 4.3 3.2 6.6 4.4z"/>
		<path class="st0" d="m231.1 253.9c-2.8-1.9-5.8-0.7-8.9 0 0.3 4.7 1.2 9.3 2.8 13.9 1.8-4.8 3.8-9.4 6.1-13.9z"/>
		<path class="st0" d="m253.5 204.6c0.3-0.4 0.5-0.8 0.9-1.2 0-0.1 0.1-0.1 0.1-0.1-1.9-1.6-3.5-3.4-4.3-5.5-2-1.2-4-1.2-5.9-0.5 1.8 0.1 3.4 0.8 4.9 1.9 1.5 0.9 3.7 3.1 4.3 5.4z"/>
		<path class="st0" d="m239.3 214.5c1.8 0.5 5.1 2.4 5.5 4.6 1.2-2.4 2.4-4.9 3.8-7.1-2.2-1.6-3.6-3.5-6.3-4.4-2.3-0.8-4.7-0.9-7.1-0.8-1.6 2.7-3.1 5.7-4.2 7.9 2.5-1.4 5.8-1 8.3-0.2z"/>
		<path class="st0" d="m248.9 211.4c1.1-1.9 2.3-3.6 3.5-5.5-0.4-1.1-0.7-2-1.3-3s-1.6-1.8-2.6-2.4c-1.9-1.3-4.4-2.3-6.7-1.9-2.2 1.6-4.2 4-5.9 6.7 4.9-0.7 11.8 1.1 13 6.1z"/>
		<path class="st1" d="m182.5 190.9c-1.9-2.7-3.4-5.7-4.6-8.6-2.3 7.8-10.5 15.4-16.7 19.3-5.1 3.2-13.6 6.5-20.3 5.4 1.2 1.8 2.2 3.8 2.8 6.3 0.1 0.7 0.4 1.3 0.5 1.9 17.9 0.9 29.7-9.5 38.3-24.3z"/>
		<path class="st1" d="m154.7 202.2s0-0.1-0.1-0.1c-3.2-8.5-8.1-22.1 1.1-29.1 7.4-5.8 15 2.6 19.1 8.5 0.5-1.3 0.9-2.6 1.3-3.9v-0.1c-1.8-6.3-2.3-13.2-2-20.5 0.1-1.9 0.3-3.8 0.5-5.7-0.1-0.1-0.3-0.3-0.3-0.4-1.5-5.9-10.4-6.5-15.1-3.8 0 0.4-0.5 0.7-0.8 0.5-5.1 3.5-12.9 0.8-17.8-2-6.6-3.8-12.4-8.4-20.5-7.1-9.4 1.3-13.3 10.9-9.6 18.1 0-5.8 4.4-12.1 10.2-11 0.3-0.1 0.5-0.3 0.9-0.1 5.9 2.3 21.3-0.1 23.2 8.5 0.4 1.9 0.3 3.6-0.4 5.1 3.9 6.2 1.9 11.2-2.6 14.8 2.3 3.1 0.8 7.9-1.5 10.8-0.8 0.9-1.6 1.8-2.6 2.4 0.9 2.3-0.4 4.9-2 6.9s-3.8 3.4-6.2 4c3.5 2 6.5 3.9 8.8 6.3 5.8 0.9 11.3 0.1 16.4-2.1z"/>
		<path class="st1" d="m113.2 187.4c-0.5 4.4 4.6 7.4 10 7.9-0.5-1.5-0.5-3 0.1-4.4-2.7-0.3-6.7-1.6-10.1-3.5z"/>
		<path class="st1" d="m116.6 179.7c-2.4-0.7-5.1-1.8-7.4-3.4-0.1 5.4 3 8.8 7.1 10.4-0.8-2.4-0.9-5.1 0.3-7z"/>
		<path class="st0" d="m153.8 178.6c-3.4 8.1-0.4 15.2 2.6 22.9 7.7-3.8 14.3-10.8 17.9-18.3-4.9-6.6-15.5-16.8-20.5-4.6z"/>
		<path class="st1" d="m135.5 188.5c-3.2 1.6-6.9 2.4-10.4 2.4-0.8 1.6-0.8 3.1 0 4.6 5 0 9.8-2.2 10.4-7z"/>
		<path class="st1" d="m128.5 179.6c-3.6 0.7-7.3 0.9-10.1 0.5-1.6 1.8-0.9 5.1 0 7.1 3.6 0.8 7.8 0.7 11.6-0.3-2-1.8-2.5-4.8-1.5-7.3z"/>
		<path class="st0" d="m231.2 253.5c0-0.1 0.1-0.1 0.1-0.3 0.7-1.2 1.2-2.3 1.9-3.5 0-0.1 0-0.4 0.1-0.7 0.7-2.3 1.5-4.4 2.2-6.7-1.5-1.8-2.8-2.7-5.4-3.2-2.4-0.4-5-0.4-7.1 0.5-0.7 4.2-0.9 8.5-0.8 12.7 1.3-0.7 2.7-1.2 4.2-1.2 2 0 3.4 1.4 4.8 2.4z"/>
		<path class="st1" d="m229.6 211.2c-13.3 2.3-27.5-2-38-10.5-1.9 17.4-25.5 31.4-42.2 29.5 2.7 6.1 6.1 11.9 10.6 16.8 0.5 0.5 1.2 1.1 1.8 1.8 15.5-13.7 47.3-7.3 52.1 14 2.2-0.5 4.3-1.3 6.1-2.4-3.1-15.9 2-33.8 8.9-47.8l0.7-1.4z"/>
		<path class="st1" d="m189.3 198.7c-1.9-1.8-3.6-3.5-5.1-5.4-4.3 15.5-24 25.6-39.3 24.1 1.1 3.4 2.2 6.9 3.5 10.2 18.7-0.6 35.7-10 40.9-28.9z"/>
		<path class="st0" d="m162.9 249.6c7.4 6.7 16.7 10.9 26.5 12.8 6.3 1.2 14.6 2 21.8 0.8-5.1-20.6-32.4-22.7-48.3-13.6z"/>
		<path class="st1" d="m120.6 147.1c-5.8-1.1-9.8 7.5-7.5 12.7 0.7 0.7 1.3 1.2 2.2 1.8 4 2.7 9.6 3.4 14.6 2.7-2.3-4.3-1.8-11.5 2-14.8-3.6-0.4-7.4-0.5-10.8-1.9-0.3-0.2-0.5-0.4-0.5-0.5z"/>
	
	<path class="st9" d="m473.5 129.3c-0.1-1.1-0.4-2.2-0.5-3.1-2.4-4.2-3.9-8.9-6.1-13.2-3.4-6.5-7.5-11.9-12.7-17-0.7 0.1-1.5 0-2-0.4-0.7-0.4-1.2-0.8-1.9-1.2-0.9-0.8-1.5-1.6-2-2.7-2.8-1.3-5.9-2.3-9.2-2.7-4-0.5-4.4 5-1.9 6.9 7.1 5 14.1 8.1 19.4 15.5 5.7 7.9 7.7 17.4 8.2 27.1 0.4 8.4 0.1 17-0.7 25.2-0.9 9.8-4.3 18.5-6.5 27.9-1.1 4.6 4.9 6.9 7.4 3.1 0.1-0.1 0.1-0.3 0.3-0.3 1.2-3.6 2.3-7.3 3.2-10.9 1.3-5.3 1.9-10.8 4.6-15.6 0-0.1 0.1-0.1 0.1-0.1 0.1-0.9 0.1-1.8 0.3-2.6 1.3-11.9 1.7-24.2 0-35.9z"/>
	<path class="st0" d="m349.8 318.5c-1.8-1.8-3.8-3.6-5.1-5.8-12.4-2.3-25.6-0.7-37.2-5.9-0.8-0.4-1.5-0.7-2.2-1.1-4.6-0.3-9.2-0.9-13.5-1.5-9-0.3-18.1-0.1-27.1-0.7-2.7 0.1-5.3 0.3-7.9 0.5-0.1 0-0.4 0.1-0.5 0.1-6.2 1.8-13.2 1.9-19.5 2.4-5.7 0.4-11.5 1.9-17.1 2.2 1.6 1.2 3.2 2.6 4.9 3.9 3.2 2.6 7 4.9 10 7.8 11.2-1.5 23-0.5 34.4-0.5 11.7 0 23.6 0 35.3 0.3 16.2 0.4 32.5 0.4 48.6 1.2-1.1-1-2.1-2-3.1-2.9zm-46.5-10.1c-5.1 0.5-10.5-0.5-15.6-0.7-5.5-0.1-11 0-16.6 0.3-0.8 0-0.8-1.2 0-1.3 10-0.8 22.6-1.6 32.3 1.1 0.3-0.1 0.2 0.4-0.1 0.6z"/>
	<path class="st5" d="m441.3 178.9c-8.4-4-17.4-4.9-26-7.9h-0.1c-7.7 9.3-17 16.8-27.3 23 3.1 1.9 4.7 5.7 4.4 9.4-0.1 1.8-0.7 3.2-1.5 4.6 0.1 0 0.1 0.1 0.3 0.1 2.8-3.5 6.3-6.3 10.8-8.2 11.5-4.9 27.2 6.5 21.6 18.7 1.3 0.4 2.7 1.1 4 1.6 1.6-10 4.4-19.5 10.5-27.8 4-5.4 7.3-7.7 12.8-7.3-2.8-2.4-6-4.6-9.5-6.2z"/>
	<path class="st1" d="m418.8 299.3c-0.5 0.4-0.9 0.7-1.5 0.9 0.4 2.3-0.1 4.9-0.5 7.1-0.5 3-1.1 6.1-1.9 8.9 0.7 0 1.5 0.1 2 0.5 0.7-5.8 1.3-11.7 1.9-17.4z"/>
	<path class="st1" d="m416 331.3c-0.8 0.7-1.9 1.1-3 1.2-0.1 0.1-0.1 0.3-0.4 0.4 0 0-0.1 0-0.1 0.1 0 3.4 0 6.7-0.1 10.2-0.1 2 0 4.3-0.8 6.2 5.7 1.2 4.7 7.4 4.6 12.7-0.1 3.5-0.4 11.2-5.1 10.1-0.1 2.4-0.3 5-0.1 7.4 4.4-0.9 7.8-3.4 10.6-6.6-5.2-12.6-6.3-27.2-5.6-41.7z"/>
	<path class="st1" d="m428.5 187.9c-7.3-2.8-14.6-5.5-21.8-8.1-5.8 5.4-12.1 10.1-18.9 14 3.1 1.9 4.7 5.7 4.4 9.4-0.1 1.8-0.7 3.2-1.5 4.6 0.1 0 0.1 0.1 0.3 0.1 2.8-3.5 6.3-6.3 10.8-8.2 11.5-4.9 27.2 6.5 21.6 18.7 1.3 0.4 2.7 1.1 4 1.6 1.6-10 4.4-19.5 10.5-27.8l0.1-0.1c-3-1.5-6.3-3-9.5-4.2z"/>
	<path class="st1" d="m443 312.7c0-0.5-0.1-1.1-0.3-1.6-0.1-0.5-0.1-1.1-0.4-1.8-1.3-5-3.8-10-6.6-14.3-6.7-10.2-16-15.9-27.9-16.2 0 1.1 0.4 2 1.5 2.7 11.7 7.1 31.4 27.5 22 43.5-3.4 5.8-11.2 9.2-14 15 0.1 0.1 0.1 0.4 0.3 0.5 0.7 2.2 0.7 4.3 2.2 6.2 0.4 0.5 0.9 0.9 1.5 1.3 2.3-2.8 3.9-6.1 6.5-8.8 2.4-2.4 5.3-4.4 7.7-6.9 5.5-5.1 8.2-11.7 7.5-19.6z"/>
	<path class="st1" d="m449 373.9c-9.4 0.7-6.6-10.9-6.1-16.8 0.5-5.7 0.8-10.6-0.4-16.2-0.4-1.6-2.7-1.1-2.8 0.4-0.8 10-4.3 22.1-0.7 31.8 1.8 4.9 7.7 8.2 11.3 3.4 0.8-1.2-0.1-2.8-1.3-2.6z"/>
	<path class="st1" d="m473.2 377c0.8-0.8 1.3-1.8 1.8-2.8-2-0.5-3.9 0.8-5.8 0.3-3.6-1.1-4.9-6.5-5.8-9.7-1.8-5.8-1.6-13.3-5-18.3-0.8-1.2-2.8-1.1-3.2 0.4-1.3 4.4 0.4 8.9 1.5 13.3 1.1 4.2 1.9 8.5 3.8 12.5 1.6 3.5 5 6.9 8.8 7.7 1.4-1.2 2.7-2.2 3.9-3.4z"/>
	<path class="st1" d="m490.2 364.2c0.4-0.9 0.5-1.9 0.8-2.8-1.3 0.3-2.7 1.2-4 1.1-2.7-0.3-4.9-3.6-6.3-5.7-3-4-5.1-8.6-8.4-12.5-1.2-1.3-3.4 0.1-3 1.8 1.2 4.2 3.4 7.8 5.5 11.5 1.9 3.2 3.9 6.9 7.1 9 1.1 0.7 3.1 1.2 5.1 1.2 1.4-1 2.5-2.2 3.2-3.6z"/>
	<path class="st1" d="m406.5 248.2c4.9 7.5 12.5 12.7 19.5 18.3 10.1 8.4 19.3 18.5 23.2 31s1.6 27.6-8.4 36.1c-4.4 3.9-10.4 6.5-13.3 11.7-0.5 0.9-1.1 2-1.9 2.8-2.3 2-6.3 0-7-3s0.8-6.1 3-8.2c2.2-2.2 4.7-3.8 6.9-6.1 5.8-6.1 6.5-15.8 3.9-23.8-2.7-8.1-8.1-14.8-13.3-21.4-2.8 2.7-7.4 2.6-10.8 0.7-3.4-2-5.5-5.4-7.3-8.9-7.3-14.7-8.5-37.2 1.3-51.2 1.9 1.8-0.1 7.3 0 10 0.5 4.3 1.9 8.5 4.2 12z"/>
	<path class="st1" d="m493.4 354.2c0.8-1.3 1.8-2.6 2.2-4 0.4-0.9 0.4-2 0.4-3-0.3 0-0.5 0.1-0.8 0.3-0.9 0.5-1.9 1.5-3 1.1-1.3-0.5-2.7-3.1-3.5-4.2-2.3-2.8-4.6-5.7-7-8.4-1.3-1.5-3.5 0.4-2.7 2 1.6 3 3.4 5.8 5.1 8.6 1.3 2.2 2.8 5 5 6.5 1.4 0.8 2.8 1.1 4.3 1.1z"/>
	<path class="st1" d="m384.4 220.9c1.3-3.6 2.7-7.3 4-10.9-1.7 3.5-3 7.2-4 10.9z"/>
	<path class="st1" d="m480.5 457.1c-1.6-7.8-3.9-16.7-11.2-19.9-2.8-1.2-5.9-1.5-9-1.9-14.1-1.9-27.6-9.2-37-19.9-9.4-10.8-14.7-25.1-14.6-39.5 0-0.8 0-1.5 0.4-2.2 0.3-0.5 0.5-0.9 0.9-1.2-2.3-0.5-4.6-1.6-7-2-5.3-0.9-9.6 4.3-14.4 4.7-1.5 13.3 0.4 27.2 5.5 39.6 2.4 5.9 5.7 11.5 10.1 16 7.5 7.5 17.9 11.2 27.9 14.7 14.8 5.1 29.8 10.2 44.6 15.4 1.1 0.4 2.4 0.7 3.2 0 1-1.1 0.9-2.6 0.6-3.8z"/>
	<path class="st1" d="m412.3 316.7c2.6-5.7 3.6-11.9 3.2-18.1-9.3 2.6-19.4-3.1-24.8-11.2s-6.9-18.1-7.8-27.8c-1.2-12.4-1.9-26.3 1.3-38.8-3.6 10.2-6.5 20.6-7.7 31.7-1.1 9.4-1.1 19.3 2.2 28.2 3 8.4 8.8 15.8 10.6 24.5 1.8 7.8 0.4 15.9 0.9 23.8 0.4 5.3 1.6 10.5 1.9 15.8v2.2c2.7-0.1 4.3 1.5 5.9 3.5 3.4-2.2 7.5-2.4 11.6-1.5 0-1.6 0.1-3.4 0.5-4.9-0.4-1.3-0.7-2.8-0.5-4.3 0.1-2.7 1.2-5.4 3.1-7.3 1.2-1.2 2.6-2.2 3.6-3.4 3.8-3.9 1.3-11.3-4-12.4z"/>
	<path class="st1" d="m219.1 246.8c-14 5.7-31.4 1.5-41.4-9.8-10.6-12.1-12.5-30.2-22.8-42.7-2.2-2.7-4.9-5.3-6.2-8.5-3.8-9.6 5.4-20.7 1.3-30.2-2-4.6-6.9-7.5-11.9-8.4-0.4-0.1-0.9-0.1-1.5-0.3 0 0 0.1 0 0.1 0.1 2.7 1.5 4.6 3.6 5.3 6.6 0.4 1.6 0.1 3.6 0.5 5.3 0.4 1.8 1.6 3.5 1.9 5.4 0.1 2.6-0.7 3.9-1.3 6.2-0.9 3.2-0.7 5.7-1.3 8.8-0.8 3.8-3.6 6.5-5.5 9.7-2.7 4.4-4.7 7.1-8.6 7.9h0.3c5.3 1.8 9 6.5 11.3 11.5s3.4 10.5 5.3 15.8c5.1 14.7 16.2 27.2 30.2 34.1s30.7 7.9 45.4 3.1l-1.1-14.6z"/>
	<path class="st1" d="m147.9 158.3c0.9 4.7 0.1 9.4-0.8 14.1-0.9 4.9-1.8 9.8-2.7 14.7-0.3 1.3-0.5 2.8-1.1 4-1.3 2.8-4.2 4.6-6.9 6.2-1.5 0.8-3 1.8-4.6 1.9s-3.5-0.5-4.2-2.2c2.8-0.9 5.9-2.2 7.8-4.6 1.5-2 1.8-4.7 2.7-7 1.5-3.6 4.7-7.1 3.2-10.8-0.3-0.5-0.5-1.1-0.5-1.6 0-0.7 0.7-1.3 1.2-1.9 2.7-2.8 3.5-7.4 1.9-11-0.3-0.7-0.7-1.3-0.7-2s0.3-1.2 0.4-1.9c0.8-3.1-1.5-5.3-2.4-7.4 3.6 1.4 5.8 5.9 6.7 9.5z"/>
	<path class="st1" d="m164.3 245.3c15.4 12.1 37.5 14.8 55.2 6.7 0.5 3 0.9 5.8 1.5 8.8 0.1 0.7 0.3 1.5-0.1 2s-1.1 0.8-1.6 0.9c-15.4 4.4-32.5 2.6-46.5-5.3-13.2-7.4-25.9-21.6-28.7-36.8 3.5 0.7 6.6 8.5 8.8 11.3 3.2 4.7 6.9 8.9 11.4 12.4z"/>
	<path class="st1" d="m267 400.5c1.3 0.1-0.8 31.9 6.7 52.9 9 24.9 23.3 45.4 41.5 63.9 9.6 9.7 20.2 18.7 26.9 30.6 6.9-9.8 5.4-23.6 0.3-34.4-5.3-10.8-13.6-19.7-20.6-29.5-10.6-15-18.2-32.1-21.8-50.1-2.2-10.2-1.6-15-10-22-6.7-5.4-14.3-10.4-23-11.4z"/>
	<path class="st10" d="m313.2 230.9c-0.8 1.5-1.8 3-1.3 4.7 0.3 1.3 2.2 2.2 3.2 1.3 1.5-1.1 1.8-2.7 2.3-4.3 0.5-2.4-3.2-4-4.2-1.7z"/>
	<path class="st10" d="m309.7 246.4c-1.1-0.4-2.3-0.1-3.1 0.5-0.5 0.4-0.9 0.8-1.1 1.5-0.1 0.3-0.1 0.5-0.3 0.9v0.7 0.1c-0.1 2.3 3.2 3.2 4.4 1.3 0.3-0.3 0.5-0.7 0.8-0.9 0.1-0.3 0.3-0.5 0.4-0.9-0.1 0.4 0 0 0.1-0.1 0.5-1.3 0.1-2.6-1.2-3.1z"/>
	<path class="st10" d="m304.5 262.3c-1.2-0.7-2.7-0.3-3.5 0.9-0.9 1.5-2.4 4-1.5 5.8 0 0.3 0.1 0.5 0.3 0.8 0.4 0.8 1.6 1.1 2.4 0.7 0.3-0.1 0.4-0.4 0.7-0.5 1.2-0.9 1.8-2.7 2.6-4 0.7-1.4 0.1-3-1-3.7z"/>
	<path class="st10" d="m339.6 230.5c-2.4 3-2.8 6.5-4 10.1-0.9 3-2.8 7.3-1.5 10.4 0.4 0.9 1.3 1.1 2 0.3 1.8-2.6 1.5-6.2 2.4-9.2 1.1-3.5 3.5-6.1 4.6-9.6 0.6-1.9-2.3-3.6-3.5-2z"/>
	<path class="st10" d="m332.2 261.8c-1.3-0.4-2.6 0.4-3 1.8-0.4 1.2-0.8 2.4-0.9 3.6-0.1 1.1 0 2.7 1.3 3.1 2.6 0.7 3.8-3.8 4.3-5.4 0.4-1.4-0.5-2.7-1.7-3.1z"/>
	<path class="st10" d="m264.9 223.2c-2.7 0-2.7 4.2 0 4.2 2.7 0.1 2.7-4.2 0-4.2z"/>
	<path class="st10" d="m282.2 226.2c-2.8 0-2.8 4.4 0 4.4 2.8-0.1 2.8-4.4 0-4.4z"/>
	<path class="st11" d="m247.7 196.7c-9 7-14 17.5-17.4 28.3-2.8 8.9-9.6 25.3-4.2 33.7 0.8 1.2 2.7 0.9 3.1-0.4 1.9-5.4 1.6-11.3 2.8-17 0.9-4.6 2-9.2 3.4-13.6 3.1-10.6 7.7-19.9 15-28.2 1.7-2-0.8-4.3-2.7-2.8z"/>
	<path class="st11" d="m409.8 199.9c-16.6 2.8-24.1 23-25.7 37.6-0.9 9-1.2 17.9 0.1 27.1 1.1 7.1 2.7 16.3 8.9 20.7 0.9 0.7 2.3-0.3 2.3-1.2-0.5-6.3-4.2-12-5.4-18.3-1.2-6.9-1.1-14-0.4-21 0.8-8.1 2.7-17.1 6.5-24.5 3.6-7.1 9.3-11.6 15.5-16.4 1.8-1.6 0.6-4.5-1.8-4z"/>
	<path class="st11" d="m333.2 341.7c-5.5-1.5-11-0.1-16.7 0.3-5.4 0.4-10.8 0.5-16.2 0.5-12.4 0.1-24.8-0.7-37.2-2-12.1-1.3-23.7-4.7-35.7-6.3-5.9-0.8-12.4 0.5-13.5 7.4-0.4 3.4 4.2 4.9 5.3 1.5 2-7 26.5 0.9 31.9 1.9 9.3 1.6 18.7 2.8 28.2 3.4 9.7 0.7 19.4 0.9 29.1 0.7 8.1-0.3 17.9 0.8 25.3-3.1 1.8-1.2 1.3-3.8-0.5-4.3z"/>
	<path class="st11" d="m393.1 332.6c-7.7-0.1-14.7 2.3-22.2 3.8-7 1.5-15.6 1.3-21.8 5.1-0.8 0.5-0.7 1.8 0.3 2 6.6 1.9 14.7-0.7 21.3-1.9 7.9-1.6 15.9-3 22.8-7.5 0.4-0.5 0.2-1.5-0.4-1.5z"/>
	<path class="st10" d="m237.2 371.8c-4.6-2.2-10.1-1.9-14.8-0.3-3.6 1.2-10 4.4-9.4 8.9 0.1 1.1 0.9 2.3 2.2 2.2 2.7-0.1 3.9-2 6.1-3.4 2.4-1.5 5.1-2.4 8.1-2.6 2.8-0.1 9.3 2.6 9.6-2.3-0.3-0.9-0.9-2.1-1.8-2.5z"/>
	<path class="st10" d="m276.8 383.3c-2.6-1.8-5.3-3-8.4-3.2-2.4-0.3-3 3.2-1.2 4.3 2.2 1.3 4.6 2.4 6.7 3.9 1.8 1.2 3.8 2.8 6.1 2.3 0.4-0.1 0.8-0.5 0.9-0.9 0.6-3-2-5.1-4.1-6.4z"/>
	<path class="st10" d="m316.5 381.3c-3.2-5.4-10.8-0.3-13.3 3.1-3.6 4.7-6.3 11.9-3.8 17.5 0.7 1.6 3.4 1.2 3.8-0.5 0.9-4.3 1.1-8.2 3.5-12.1 1.1-1.8 2.6-3.5 4.6-4.3 1.6-0.5 3.1-0.3 4.6-1.2 0.9-0.5 1.2-1.7 0.6-2.5z"/>
	<path class="st10" d="m351.2 374.5c-3-1.9-7.1 3.5-8.8 5.5-2.4 3.1-5.1 7-4.9 11.2 0.1 1.3 1.8 2.3 2.8 1.2 3.1-3.2 4.7-7.5 7.8-10.8 1.3-1.5 6.3-5.1 3.1-7.1z"/>
	<path class="st10" d="m369.5 357.3c-5.3 1.8-9.8 5.7-13.5 9.6-2 2.2 1.1 5.3 3.2 3.2 3.8-3.4 7.9-5.4 12.4-7.7 2.7-1.5 1-6.1-2.1-5.1z"/>
	<path class="st10" d="m415 354.6c-2.8-3.5-9.6-3.5-13.3-2-2.3 0.9-2 4.2 0.5 4.4 1.9 0.1 3.8 0.3 5.7 0.7 1.8 0.4 3.5 1.2 5.4 1.2 2.3 0 3.1-2.7 1.7-4.3z"/>
	<path class="st11" d="m270.1 454.8c-3.6-3-7.9-1.1-12.3-0.7-5.1 0.5-10.2 1.2-15.4-0.1-2-0.5-4.4 1.9-3 3.9 3.4 4.6 9.2 3.9 14.3 3.6 5-0.3 13.7 0.3 16.6-4.6 0.4-0.6 0.4-1.7-0.2-2.1z"/>
	<path class="st11" d="m396.3 427.2c-2.6 1.2-4.4 3.6-6.7 5.3-2.3 1.5-5 2.6-6.7 4.7-0.9 1.1-0.7 3.1 0.9 3.5 3.4 0.8 6.7-0.8 9.7-2.6s6.1-4.2 7.3-7.5c0.6-2.7-2.4-4.3-4.5-3.4z"/>
	
		<path d="m264 303.4c11.2 0.8 22.5 0.4 33.7 0.9 0.4 0 0.4-0.5 0.1-0.7-10.1-3.5-23.3-2.2-33.8-1.2-0.6 0.2-0.6 1 0 1z"/>
		<path d="m271 306.6c-0.8 0-0.8 1.3 0 1.3 5.5-0.3 11-0.4 16.6-0.3 5.3 0.1 10.5 1.2 15.6 0.7 0.4 0 0.5-0.5 0.1-0.7-9.7-2.7-22.3-1.8-32.3-1z"/>
		<path class="st5" d="m497.2 343.5c-2.3-5.4-7.1-10-10.4-15-3.4-5.3-6.7-10.6-9-16.4 0-0.1-0.1-0.1-0.1-0.3 2.7-16.6-3.1-35.7-11.2-51.3 0 0 0-0.1-0.1-0.1-1.9-3.5-3.8-6.9-5.8-10-0.4-0.7-0.9-1.3-1.3-2l0.4-0.4c7.7-13.3 9.4-34.1 4.3-49.2 0.1-0.1 0.4-0.3 0.5-0.5 9.7-22 16.2-48.2 9.3-71.9-2.8-9.8-6.7-17.9-13.9-25.3-5.5-5.7-13.6-13.2-22.1-13.5-4.4-36.8-29.5-67.6-66.6-79.4-40.6-12.8-92.3-7.3-121 26.9-0.3 0.3-0.3 0.5-0.3 0.8-6.7 4.6-12.7 10.6-17.4 18.3-5.8 7.1-10.1 15.1-13.3 23.4l-0.3 0.3c-5.4 8.2-16.8 7-21 15.6-2.7 5.4-3.4 12.8-3.4 18.7 0 6.3 0.9 13.6 5.4 18.6 4.6 5.1 12.4 4.4 16.8 9.7 2.2 7.7 5.3 15 9.6 21.7 6.9 10.6 15.8 18.2 25.7 25.1-1.9 1.2-2.7 3.8-2.8 6.6v0.5c-7.7-3.1-14.4 6.5-18.3 13.9-0.1 0-0.4-0.1-0.7 0-13.9 2.8-28.7-2.7-39.2-11.7-12.3-10.5-15.1-24-14.3-39.6 0.5-8.2 10.4-46.7-9.4-42.3-12.7 2.8-13.3 21.2-9.7 31.4-10.1 5.4-20.9-7.4-29.9-10.1-7.1-2.2-13.1-0.8-17.9 5.1-4.3 5.3-4.4 11.2-2.2 16-4.4 0.7-6.3 5.9-5.5 10.2 0.5 3.2 2.7 6.1 5.5 8.2-3.2 4.2-0.8 8.1 3.2 10.8-3.4 6.9 7.1 11.9 12.7 12.1 0.9 0 1.9 0 2.8-0.1 6.1 4.9 12 7.5 14.1 15.6 1.5 5.4 3.1 10.6 5.4 15.8 4.7 10.5 10.8 20.2 20.5 26.8 8.4 5.7 18.3 8.8 28.4 9.7 7.8 0.7 18.3 0.9 25.6-2.8 0.7 2.7 1.8 5.4 3 7.9-0.9 2.6-1.8 5.3-2.6 7.9-2.8 8.9-6.1 18.2-6.5 27.6-0.3 0.4-0.4 0.8-0.1 1.2 0.1 0.1 0.1 0.3 0.3 0.4 0 0 0 0.1 0.1 0.1 1.1 1.3 2.4 2.6 3.8 3.6-0.8 6.3-1.5 12.9-1.1 19.4-0.9 0.3-1.9 0.9-2.6 1.8-1.3 2-1.5 4.7-1.5 7.1-0.1 1.9-0.5 4.4 0.7 6.2 0.7 1.1 1.9 1.6 3.2 1.9-0.4 3.5-0.3 7.1-0.3 10.6 0 3.4-0.1 6.9 0.7 10.1-3.4 1.9-5.8 5-6.3 9.4-0.8 7 1.1 23.2 10.9 22.2 5.9 47.7 26.7 91.5 58.1 127.9-4.6 17.1-15.9 34.9-12.1 53.1 3.2 15.2 17.1 18.9 30.9 13.9 17.8-6.5 30.4-20.1 39.5-36.4 7.7-13.9 15.8-37.7 3.6-51.3l-0.1-0.1c-1.9-3.4-4.6-6.5-7.1-9.6-6.2-7.8-12.4-15.9-17.5-24.5-9.3-15.4-16.8-33.4-19.3-51.3 0.1 0.1 0.3 0.3 0.5 0.4 0.1 0.5 0.4 0.9 1.1 0.9 2.8-0.1 5.4-3.4 6.7-5.8 0.7-1.3 1.9-4 1.5-5.9 4.6 0.4 9.2 0.1 13.7-1.1 4.2-1.2 10-2.8 13.5-6.2 0.5 0.7 1.2 1.2 2.2 1.8 0.4 0.3 0.9 0.1 1.3-0.1 0.4-0.4 0.8-0.7 1.2-1.1 1.2 19.9 5.5 39.1 22 51.9 9.2 7.1 18.7 11.7 29.9 15 8.6 2.4 17.8 6.3 27.1 7.3-1.3 24.1 25.6 69.5 52.9 47.2 11-9 13.5-23.8 14-37.3 0.4-9-0.4-17.8-2.7-26.5-1.6-6.9-3.1-14.3-6.5-20.5-0.4-3.9-3.9-6.1-7.7-7.4-8.5-3-17-2.8-25.3-7.1-9.7-5-19.7-12-25.1-21.7-4-7.3-6.5-15.4-7.3-23.6 16.6-2 21.3-24.4 25.3-37.6 0.8-0.7 1.6-1.5 2.3-2.3-1.2 6.7-1.6 13.9-2 20.6-0.4 5.5-0.5 16.3 7.9 15.9 7-0.4 9-8.8 9.8-14.1 0.3-1.5 0.9-3.9 1.5-6.5 1.6 11 5.1 24.4 15.1 21.7 8.1-2 7-11.7 4.6-20.6 1.5 2.6 3 5.3 5.5 7 3.1 2.2 8.2 3 10.4-0.9 1.8-3.1 0.9-7.4-0.1-11 5.8-0.7 8.1-6.1 5.9-11.4zm-6.3-4.3c0.4 0.4 0.8 0.9 1.5 1.6-0.3 0.9-0.4 1.9-0.8 2.7-0.8 1.3-2 2.2-3.2 2.7-1.3-2.4-3-4.7-4.7-6.9 0.9-0.4 1.8-1.1 2.3-1.8 0.5-0.5 1.3-1.9 1.5-3 0.3 0.4 0.5 0.7 0.8 1.1 0.7 1.5 1.6 2.6 2.6 3.6zm-17.1 10.3c2 0 4.4-1.1 5.8-2.2 0.9-0.8 2.3-2.3 2.8-3.8 1.3 1.8 2.7 3.4 3.8 5.3 0.1 0.4 0.3 0.7 0.5 1.1-0.4 0.8-0.5 1.8-0.9 2.6-0.5 1.1-1.3 1.9-2.2 2.7-1.6 1.3-3.6 1.8-5.7 1.8-1.6-2.5-2.9-5-4.1-7.5zm8-22.7c1.3 2.3 3 4.4 4.4 6.6-0.4 0.4-0.4 0.8-0.5 1.3-0.1 0.7-0.5 1.3-0.9 1.9-0.4 0.5-0.8 1.1-1.5 1.5-0.3 0.1-0.5 0.3-0.8 0.4-0.9-1.1-1.8-2-2.7-3-0.7-0.7-1.8 0-1.5 0.9 0.4 2 1.3 3.6 2.6 5.4-0.1 0.7-0.3 1.3-0.5 1.9-0.5 1.1-1.5 2-2.4 2.7-1.8 1.1-3.4 1.2-5.3 1.3-0.5-0.9-1.1-2-1.6-3-0.5-0.9-1.9-0.3-1.8 0.7v0.3c-0.4 0.3-0.5 0.8-0.4 1.3 0 0.3 0.1 0.7 0.3 1.1-1.3 1.5-2.3 2.8-4.7 3.4-2.4 0.7-4.7 0.1-7-0.8v-0.3c0-1.8-0.3-3.2-0.9-4.2-0.4-0.7-1.3-0.7-1.8 0-0.8 1.1-0.8 2.8-0.9 4.4-0.7 0.5-1.3 0.9-2.2 1.3-1.5 0.5-3 0.4-4.4 0.1-2.6-0.5-4.9-1.9-6.6-3.8 0 0-0.1 0-0.1-0.1 0.5-4 0.8-7.3 0.7-8.8 0-0.3-0.1-0.5-0.4-0.7-0.1-0.7-0.8-0.9-1.3-0.5-0.1 0.1-0.3 0.3-0.4 0.3-1.1-0.1-2-0.1-3.1-0.5-1.5-0.7-2.8-1.9-3.6-3.2s-1.1-2.7-1.1-4.3v-1.6c2.2-2.2 3.6-4.4 4-7.4 2.4 0.7 5.5 1.1 8.9 1.5 2 8.6 8.8 17.1 18.6 14.7 9.2-2.3 13.3-12.1 9.8-20.5 0.8-0.7 1.6-1.5 2.3-2.3h0.1c1.2 4.2 4.6 8.5 6.7 12zm-22.9 33c-0.4-2.6-0.7-5.1-1.1-7.7 1.9 1.3 4.6 1.5 6.9 0.9 1.6-0.4 3.8-1.5 5.1-3 0.5 1.8 1.2 4 1.9 6.5-1.1 1.8-2.2 2.8-4.2 3.9-3 1.5-5.6 1.1-8.6-0.6zm-7.8 8.7c-0.9 0.1-1.6 0.9-2.6 1.3-1.2 0.4-2.7 0.4-3.9 0.3-2-0.3-3.5-1.6-5.3-2.3-0.1-2.4-0.1-5.3 0-8.2 1.6 1.9 3.9 3.2 6.3 3.4 2 0.1 4.4-0.4 6.3-1.6 0 1.7-0.1 4.4-0.8 7.1zm-10.6-18.6c1.8 2.3 4.6 3.6 7.4 3.9 1.8 0.1 4.3-0.1 6.1-1.1v0.3c-0.3 2.2-0.8 4.2-1.2 6.3-2 1.3-3.9 2.3-6.7 2-2.7-0.3-4.2-2-6.2-3.4-0.1-2.8 0.3-5.5 0.6-8zm-53.6 23.1c-3.6 0.1-7.1-0.8-10.6-1.6-1.6-3-2.8-5.9-3.1-9.4-0.4-3.4 0.5-6.5 1.2-9.7 6.2-3.8 15.5-4.9 22.5-2.6 3.1 6.6 3 13.7 1.2 20.6-4 1.3-7.2 2.5-11.2 2.7zm-35.2-1c1.1-4.6 6.5-8.5 10.1-11 2.8-2 5.8-3.8 9-5.1-0.3 2-0.3 4-0.3 5.5 0.3 3.5 1.1 7.1 3.1 10.1-5.3 2.6-24.5 11.6-21.9 0.5zm48.5-20.4c4.6-0.4 9.2-0.9 13.2 1.9 0.1 0.1 0.3 0.1 0.4 0.1 0.7 1.9 0.5 4.2 0.4 5.9-0.1 3 0.3 7.5-2 9.4-0.1 0-0.3 0.1-0.4 0.1-0.3 0.1-0.5 0.3-0.8 0.4h-0.1c-0.4-0.3-0.9-0.3-1.3 0-0.8 0-1.5 0-2.2-0.1-1.9-0.3-3.9-0.7-6.1-1.1 1.3-4.9 1.2-11.9-1.1-16.6zm9.6-10.2c-0.1 2.6-0.8 5.4-0.4 7.9-3.2-0.4-6.7 0.1-10.2 0.4-0.3-0.4-0.7-0.8-1.1-1.2 0-0.1-0.1-0.1-0.3-0.3-6.2-4.2-19.3-1.2-24.9 3-0.3 0.3-0.4 0.5-0.4 0.8-0.3 0.4-0.7 0.9-0.8 1.5-4.4 1.5-8.6 3.9-12.5 6.7-1.9 1.3-4 3-5.8 5-1.6 0.4-3.9 3.6-5.1 4.9-1.9 1.8-3.9 3.5-5.7 5.5-2.2 2.7-3.6 5.7-5 8.6 0.3-2.4 0.7-4.9 1.2-7.3 1.9-7.7 3.9-16 7.4-23.2 3.5-0.8 7-1.8 10.1-3.2 6.2-1.2 12.4-2.7 18.5-4.4 11.5-3.2 24.9-6.3 35.7-11.9-0.6 2.3-0.7 4.6-0.7 7.2zm-83.6 41.3c0.5-4 0.7-8.2 1.5-12.3 0.9-5.1 3-10 4.4-15 3.5-0.3 7-0.7 10.4-1.2-3.1 5.5-4.3 13.1-5.5 18.9-1.5 6.7-2.2 13.2-2.7 19.9-2.1-3.7-4.8-7.4-8.1-10.3zm-61.3-2.4c0.4 2.8 0.3 6.1-0.3 8.9-0.7 3.4-1.9 6.5-3 9.7-7.7-1.2-14.6-0.5-21.8-4h-0.1s0.1 0 0.1-0.1c4.6-5.5 5.1-17.9 1.6-24.5 7.9-0.4 17.5-1.1 22.9 6.5 0.1 1.2 0.5 2.2 0.6 3.5zm9.1 22.4c-3.2-0.9-6.6-2.3-9.8-3.5 3.4-5.4 4.3-12.9 3.4-19.4 1.8 0.8 3.5 1.5 5.1 2.4 1.2 0.5 2.3 1.2 3.4 2 0.8 0.5 1.5 1.2 2.3 1.6 2.3 4 5 7.8 8.2 11.2-0.4 6.2-7.9 7-12.6 5.7zm6.6-18.9c-4.3-8.8-6.3-17.1-7.3-26.7 3.5 0.3 7 0.4 10.4 0.5-0.8 10.9 3.5 26.1 12.1 33.1-1.1 3.1-1.5 6.5-1.2 9.7-2-1.6-4-3.1-6.1-5-3.5-3.2-5.9-7.3-7.9-11.6zm-52.7-35c-0.4-2.2-0.9-4.2-0.9-6.5 0-2 0.3-5 1.5-6.9 4.4 0.8 8.9 1.8 13.3 2.6-0.9 1.9-1.2 4.4-1.2 6.5 0 1.6 0 4.2 0.7 6.2-4.4-0.6-8.8-1.1-13.4-1.9zm15.5 2.1c-0.5-2-1.1-3.9-1.1-6.1 0-2.3 0.3-4.6 1.1-6.6 4.7 0.9 9.3 1.8 14.1 2.3-1.2 3.8-1.3 8.6 0.1 12.4-4.8-0.9-9.5-1.4-14.2-2zm15.9 2.3c-0.3-1.9-0.9-3.6-1.1-5.7-0.1-2.3 0.1-4.6 0.7-6.7 2.2 0.3 4.3 0.5 6.6 0.7 2.7 0.3 5.5 0.3 8.4 0.4-0.5 1.6-0.7 3.4-0.5 5.1 0.1 2.2 0.4 4.9 1.1 7.1-5.3-0.3-10.2-0.6-15.2-0.9zm148.4-30.7c0 1.6 0.8 3.4 0.9 5 0.1 1.1 0.1 2.3-0.1 3.4-0.1 0.5-0.4 1.1-0.7 1.6-4.2 1.3-8.2 2.8-12.4 4.2 0.3-1.3 0.1-2.7 0.1-3.8-0.1-1.6-0.5-3.5-1.5-5 4.8-1.5 9.4-3.2 13.7-5.4zm-15.2 6c0.5 1.8 1.2 3.2 1.3 5.1 0.1 1.2-0.1 2.4-0.1 3.6-4.9 1.6-9.6 3.2-14.4 4.9 0.4-1.3 0.3-3 0-4.2-0.3-1.9-0.7-3.6-1.6-5.4 5-1.1 10-2.4 14.8-4zm-16 4.4c0.4 1.5 0.8 3 1.1 4.4 0.3 1.8 0 3.5 0.1 5.3-1.2 0.4-2.4 0.8-3.8 1.1-3 0.8-5.9 1.6-9 2.4 0.1-1.3-0.1-3-0.3-3.9-0.3-2.2-1.1-4.4-2.4-6.2 4.7-0.9 9.4-2 14.3-3.1zm-15.8 3.5c1.1 2 2 3.9 2.4 6.3 0.3 1.2-0.1 2.7 0 3.9-5.9 1.3-11.9 2.6-17.8 3.6 0.5-3.4 0-7.7-1.2-10.6 4.4-0.7 8.9-1.5 13.2-2.4 1.1-0.4 2.2-0.7 3.4-0.8zm-18 3.4c0.4 2.3 0.9 4.4 1.1 6.7 0 1.3-0.1 2.7-0.1 4-0.5 0.1-1.1 0.1-1.6 0.3-2.2 0.4-4.4 0.7-6.6 0.9-2.4 0.3-5 0.5-7.4 0.7 0.1-1.2-0.1-2.7-0.1-3.8-0.1-2.4-0.7-4.9-0.9-7.1 4.9-0.4 10.3-1.1 15.6-1.7zm-17.4 1.7c0 2 0.5 3.9 0.7 5.9 0.1 1.6-0.1 3.4 0 5.1-4.7 0.4-9.3 0.9-14 1.3-0.1-1.6-0.8-3.2-1.1-4.9-0.4-2.4-0.4-4.9 0-7.1 4.8 0.3 9.5 0.1 14.4-0.3zm-15.6 0.4c-0.9 3.6-1.1 8.9 0.9 12.1-0.4 0-0.7 0-1.1 0.1-5.1 0.5-10.2 0.7-15.4 0.7-0.3-1.3-0.9-2.8-1.2-4-0.5-2.8-0.9-5.8 0.4-8.5 5.4 0.3 11.1 0.7 16.4-0.4zm-18.5 7c0.3 1.5 0.5 3.9 1.2 5.8-5.7-0.1-11.2-0.4-16.8-0.7 0-1.5-0.4-3-0.7-4.4-0.3-2.7-0.4-5.3 0.4-7.8 4.9 0.1 9.7 0.1 14.6 0.3 0.7 0 1.2 0 1.9 0.1-1 2-0.9 4.6-0.6 6.7zm5.8 39c-2.8-4.4-5.8-8.4-7.5-13.6-1.9-5.4-2.4-10.9-3-16.6 8.4 0.1 16.7 0 24.7-0.8 5.7-0.5 12-0.7 18.3-1.1-3.5 7.7-5.3 16.7-5.5 25.2-5-3.5-11-5-17.2-2.4-4.6 1.7-7.8 5.2-9.8 9.3zm114.1-56.5-0.1 0.1c-0.4 0.1-0.8 0.3-1.1 0.4 0.3-1.1 0.3-2.3 0.3-3.2 0-1.9-0.1-5-1.2-6.7 1.8-0.8 3.4-1.8 5-2.7 0.1 0 0.1-0.1 0.3-0.3 0.5-0.1 0.9-0.1 1.5 0.3 0.4 0.4 0.5 1.6 0.5 2.2 0.1 1.3 0.3 2.7 0.1 3.9v0.8c-0.1 1.1-0.4 2.3-1.2 3.1-1.3 1-2.9 1.2-4.1 2.1zm21.4-105.5c-3.1 2.7-3.4 7.5-3.6 11.3-0.5 6.9 0.5 12.8 5.1 18.2 5.9 7.1 21.3 14.1 30.2 8.4 3 6.7 5.4 13.7 7 20.9-1.8 1.9-3 4.2-5.1 5.9-3.2 2.8-7.1 4.9-11.2 6.2-3.8 1.3-7.8 2.6-11.7 3.4-4.6 0.9-8.8 0.1-13.3-0.3-0.5-1.2-1.2-2.3-1.8-3.2-3.9-7-10.4-16.4-18.9-17.9-1.2-0.3-1.9 1.3-0.8 2 2.7 1.8 5.3 3.6 7.4 5.7-14.7 4.2-18.7-28.3-18.3-36.1 0.4-7.3 1.9-14.4 5.3-20.9 0.9-1.8 4.6-7.9 8.5-11 0.1 0.1 0.3 0.3 0.5 0.3 7.7 0.9 14.5 3.5 20.7 7.1zm41.9 84.8c-10.4 10.6-24.8 8.9-38.7 8.4 0.1-2.4-0.3-5-0.9-7.5 10.6 3.2 31.7-0.4 39.2-10.4 0.2 3.3 0.4 6.4 0.4 9.5zm-13.2 25.2c-8.6 1.1-12.7-6.2-15.5-13.1 8.6 0.5 18.9-0.4 25.5-4.6 1.3 8-0.3 16.6-10 17.7zm-3.1-29c-7.9 2.6-16.2 3.8-24.1 2-0.8-2.3-1.8-4.6-2.8-6.6 9.4 1.9 18.5-0.1 27.3-4 3.6-1.6 10.8-5.1 13.5-9.7 0.5 2.6 0.9 5.3 1.3 7.8-4.3 4.8-8.4 8.3-15.2 10.5zm-41.3-10.2c0.3-0.8 0.4-1.6 0.5-2.3 0.3-1.5 0.3-4-0.8-5.3 0.5-0.1 0.9-0.4 1.5-0.7 0.9 0.9 1.9 2 2.8 3.1-1.2 2.3-2.6 3.9-4 5.2zm-21.7-50.4c-0.4 3-0.5 6.1-0.4 9.3-3.1 1.5-8.8 3.2-11.7 0.8-0.1-1.9-0.1-3.6-0.1-5.5 0-2.4 0-4.9 0.1-7.3 1.9-1.1 4.9-1.2 6.7-0.9 1.5 0.1 3.1 0.4 4.4 1.2 0.5 0.3 0.8 0.7 1.3 0.9-0.2 0.4-0.2 0.9-0.3 1.5zm0.6-3.8c-1.6-1.2-4.7-1.5-6.1-1.6-2.4-0.1-5 0.3-6.7 1.8 0.3-4.2 0.8-8.4 1.6-12.4 2.3-1.9 5-2.7 8.1-2 1.3 0.3 2.8 0.8 3.9 1.6s1.3 2 2 3c-1.1 3-2.2 6.4-2.8 9.6zm25.8-24.7c-0.3-0.1-0.7-0.3-0.9-0.3-1.2-2.8-3-4-4.9-4.2 0.3-2.8-1.8-6.7-2.8-8.1-1.3-1.8-3.5-3.2-5.8-4 1.8-0.3 3.5-0.1 5.3 0.4 7.6 2.4 9.1 9.5 9.1 16.2zm-18.7-15.2c3.5-0.3 6.5 0.9 8.8 3.9 1.2 1.5 2 3.2 2.3 5.1 0.1 0.7-0.1 1.5-0.3 2.2-1.9 0.5-3.8 1.9-5.4 3.6-0.7 0.7-1.2 1.3-1.8 2-0.7-3-3.6-5.8-6.1-7-2.3-1.1-5-1.5-7.5-0.9 2.3-3.5 5.9-7 10-8.9zm-11.8 11.3c3-1.2 5.9-1.6 9 0.3 3.1 1.8 3.6 4.2 4.9 7-2.2 2.8-3.9 5.9-5.4 9.2-1.1-2-4.9-3.6-6.5-3.9-2.8-0.5-5.7 0-7.9 1.3 1.4-4.8 3.2-9.6 5.9-13.9zm3.7 43c0.1 3.5 0.7 7.1 1.5 10.5-2 0.7-3.8 1.9-6.1 2.2-1.9 0.3-3.6 0-5.4-0.4-0.8-3.6-1.3-7.3-1.8-11 3.4 1.5 8.9 0.6 11.8-1.3zm1.9 11.6c0.8 3.1 2 6.2 3.5 9-0.5 0.4-0.8 0.9-1.2 1.5-0.9 1.1-2.3 1.8-3.6 2.3-1.8 0.7-3.6 0.9-5.5 0.7-2-3.5-3.5-7.3-4.6-11.3 3.8 1 8.9 0.8 11.4-2.2zm-0.9 14.4c1.5-0.5 4.3-1.9 5.3-3.8 1.5 2.4 3.6 5.3 6.1 7.3l-0.1 0.1c-0.5 0.8-0.7 1.8-1.2 2.6-0.7 0.9-1.6 1.6-2.6 2.2-1.3 0.7-2.8 0.8-4.3 0.9-1.8-1.5-3.4-3-4.7-4.4-1.2-1.3-2.3-2.7-3.2-4 1.5 0.1 3.3-0.2 4.7-0.9zm8.7 9.8c1.8-0.9 3.9-3.1 3.8-5.3 2.2 1.5 4.4 2.3 6.7 1.9 0.5 1.6 0.9 3 0.7 4.7-0.1 1.2-0.5 2.6-1.1 3.6-4.2 1.5-9.2-0.5-13.6-3.6 1.3-0.2 2.5-0.7 3.5-1.3zm14.4 6.6c-0.5 5.7-1.2 11.6-1.8 17.5-0.7-0.4-1.3-0.7-2-0.5 0.8-3 1.3-5.9 1.9-8.9 0.4-2.3 0.9-4.9 0.5-7.1 0.3-0.3 0.8-0.5 1.4-1zm-0.6 28.9c0.4-1.5 0.4-3 0.4-4.6 0-0.9 0.1-1.9 0-2.8 0.5-7.9 1.5-15.6 2.2-23.2v-0.3c0.7-0.9 1.3-2 1.9-3.2 1.1 1.6 2.2 3.2 3.1 5.1 3.9 7.1 4.6 14.3 6.9 21.6-0.5 2.8-1.6 5-4.6 7.4-2.6 2.2-5.4 4-7.4 6.6-1.1 1.3-2.2 3.2-2.8 5.3 0.1-4 0.1-7.9 0.3-11.9zm3.1 10.9c0.5-1.1 1.2-2.2 2-3-0.1 2.3 0.5 4.7 2.4 6.3 1.2 1.1 3.1 2.3 5 2.8-1.1 0.7-2.3 1.3-3.6 1.8-5.5 1.9-8.2-2.8-5.8-7.9zm11.4 4.8c-1.9-0.4-3.8-0.7-5.4-2.4-1.9-2-2.6-4.4-2.3-7 0.5-0.4 0.9-0.8 1.5-1.2 1.2-1.1 2.4-2 3.5-3-0.1 2.3 0.7 4.7 2 6.3 1.2 1.5 3.4 3.1 5.5 3.4-1.6 1.4-3.2 2.7-4.8 3.9zm30.1-83.2c-8.8 2.7-18.2 0.9-25.3-5.7-6.2-5.8-9.3-20.6-3.1-28 12.3 7.8 21.8 19.9 28.4 33.7zm-5.3-14.7c-7.3-10-17-19.5-28.3-25.1 2-12.5 7.7-35.7 23-34.5 3.4 3.4 6.2 7.3 7.9 12 6.1 15.4 2.5 32.5-2.6 47.6zm5.2-50.4c-0.1-0.3-0.3-0.7-0.4-0.9-3-6.2-7.3-10.9-12.5-14.7 0.4-0.7 0.7-1.5 1.1-2.3 1.5 3.1 4.4 5.3 7.9 6.1 2.7 0.7 6.1 0.5 8.5-1.1-1.5 4.6-3 8.7-4.6 12.9zm-84.1-0.3c-2.8 1.3-5.5 2.6-8.2 3.5 3.2-1.6 6.3-3.4 9.3-5.3h0.4c6.7-4.2 12.5-7.5 18.3-13.3 5-5 9-11.5 14.8-15.5 0.8-0.1 1.6-0.1 2.4-0.3-9.3 13.2-22.5 23.7-37 30.9zm38.6-91.8c0.9 1.2 2.2 2.2 3.6 3 3.2 1.9 7 2.2 10.1 4.3 6.2 4.2 6.1 11.5 4.7 18.1-1.6 7.7-4.2 17.1-7.8 24.1-2.2 4.2-5 6.1-8.4 7.3-0.3 0-0.7 0.1-0.9 0.3-4 1.2-8.6 1.2-13.1 2.3 3.5-7.4 6.2-15.2 8.4-23.2 3-11.2 4.3-24 3.4-36.2zm-13.2 62.3h0.4c1.3-0.3 2.7-0.5 4-0.7-3.1 2.6-5.7 6.7-8.4 9.7-1.6 1.8-3.4 3.4-5.3 5 3.6-4.3 6.6-9 9.3-14zm16.7-2.4c2.4-0.8 4.7-2 6.6-4.2 5.3-5.8 7-15.4 9.2-22.6 0.5-1.8 1.1-3.6 1.5-5.5 1.2-3.8 2-8.1 2-12.3 20.5 11.2 14.8 41.5 7.3 59.4-9-5.5-20.1-8.1-30.6-9.3 1.3-1.7 2.6-3.5 4-5.5zm51.4-29.9c0.9 5.4 1.3 10.8 1.2 16.2-0.3 0.5-0.7 1.2-1.2 1.8-1.3 1.5-3.2 2.6-5.1 3-3.4 0.8-7.1-0.1-9.7-2.6 0.3-4.6 0.1-9-0.7-13.3 3.6 1.2 7.5 0.1 10.9-1.6 1.6-0.8 3.4-2.3 4.6-3.9-0.1 0.1 0 0.3 0 0.4zm-0.2 30.7c-2.2 1.6-4.2 3.2-7 3.8-3.8 0.7-6.7-0.7-9.6-3 0.8-3.5 1.5-7.1 1.9-10.9 2.7 2.2 6.3 2.3 9.8 1.3 1.8-0.4 4.4-1.5 6.3-3.1-0.4 4-0.8 8-1.4 11.9zm-3.9 16.5c-3 1.5-5.5 2.7-9 1.5-3.2-1.1-5.7-3.5-7.1-6.5 1.2-2.8 2.2-5.8 3.1-9 4.4 3.9 12.3 3.9 16.6-0.1-1.1 4.8-2.3 9.5-3.6 14.1zm-1.9-45.3c-2.8 1.5-6.6 2.6-9.8 1.8-0.9-4.4-2.6-8.6-5.1-12.1 3.4-0.1 6.6-2.4 8.9-4.7 1.6-1.6 4.2-4.7 4.7-7.5 3 5.5 5.3 11.6 6.6 17.2-1 2.2-2.6 3.9-5.3 5.3zm-2.6-24.8c-0.4 1.1-0.7 2.3-1.1 3.5-0.8 1.8-1.9 3.4-3.2 4.7-2.4 2.4-5.5 4.4-8.9 5-2-2.4-4.4-4.6-7.4-6.2 4.7-2.2 8.1-7 9.2-11.9 0.5-2 1.2-5.7 0.7-8.6 4.1 3.8 7.8 8.5 10.7 13.5zm-13.9-15.6c2 3 1.5 7.4 0.7 10.8-1.3 5-4.7 8.6-9.2 11-0.4-0.1-0.9-0.4-1.3-0.5-0.3-2-0.8-4-1.8-5.8v-0.1c0.8-7 0.8-13.9 0.1-20.6 4.1 0.9 8 2.7 11.5 5.2zm-81.2-84.4c42.8 12.8 69.2 51.7 66.3 95.8-3.4-3.1-7.4-5.4-10-9.6-3.1-5.3-3.8-11.6-5.5-17.2-3.5-11.9-8.8-22.4-18.6-30-9.6-7.5-21-12.9-32.7-16.4-32.1-9.6-79.5-17.8-111.6-0.9 28.8-28.4 74.5-33 112.1-21.7zm-77.9 15c24.3-1.8 50.7 2.8 74 9.3 11.6 3.2 22.6 7.8 32.5 14.8 11.3 8.2 16.8 19.9 20.3 33.1 2 7.4 3.2 14.7 8.9 20.2 2 2 4.3 3.6 6.1 5.3-0.5-0.4-1.1-0.7-1.8-1.1-1.9-0.9-3.9-1.3-5.8-2.2-5.3-2.3-6.9-4.9-8.5-9-0.7-4-1.5-7.9-2.7-11.7 0-0.1-0.1-0.4-0.3-0.5-4.2-15.2-13.5-28.4-29.7-36.8-24.7-12.7-52.4-17.6-80-18.6-22.5-0.8-46.9 2.4-63.9 18.6-1.3 1.3-2.7 2.7-4 4.2 12.6-16.6 34.9-24.1 54.9-25.6zm-79.1 107.6c-9.8-3.6-13.7-9.2-14.1-19.8-0.3-7.3 0.5-17.4 6.5-22 4.6-3.5 9.8-4.7 13.9-8.4-3.8 12-5 24.9-4.2 37.6 0.4 4.7 0.9 9.6 2 14.1-1.2-0.4-2.7-0.9-4.1-1.5zm16.2 25.4c-3.4-5.5-5.8-11.6-7.7-17.9-0.1-0.5-0.3-1.1-0.4-1.6-2.7-10-3.6-20.6-3.2-30.6 1.2-32.2 18.3-64.9 51.1-74.2 28.2-7.9 62.6-3.2 90.1 5 14.1 4.2 30.3 10.2 40.6 21.4 7 7.5 10.9 15.8 13.3 24.5 1.8 16.4 3.9 31.8 0.5 48.4-4.3 21.4-14.1 43.8-32.6 56.3-12.8 8.8-27.6 13.5-42.7 15.1-2.7 0.1-5.4 0.3-8.2 0.4-0.1 0-0.1 0-0.3 0.1-5.3 0.1-10.5-0.1-15.8-0.8-18.6-2.3-39.2-7.1-55.4-17.6-11.1-8.9-21.6-15.7-29.3-28.5zm27.1 30.4c0.7 0.5 1.5 0.9 2.2 1.5 0.3 0.3 0.7 0.3 0.9 0.1 15.1 10 33.7 14.6 51.3 17 10.9 1.5 22 1.6 32.9 0 13.2-0.8 25.7-3.2 38.3-9.6 1.5-0.8 3.1-1.6 4.6-2.4 14 7.4-3.9 16.3-10.4 18.5-5.5 1.9-11.2 3.4-17 4.3-12.5 2.2-25.5 3.4-38.1 2.6-12.8-0.7-25.1-2.4-37.3-6.5-6.2-2-12.7-4.4-18.5-7.5-2.3-1.2-4.7-2.7-6.6-4.4-2.2-2.1-8.8-11.7-2.3-13.6zm-20.2 131.4c-3-3-6.7-5.3-10-7.8-1.6-1.2-3.2-2.7-4.9-3.9 5.7-0.3 11.5-1.8 17.1-2.2 6.3-0.5 13.3-0.7 19.5-2.4 4.4-1.2 7-4.3 9.4-8.1 1.9-3.2 3.4-6.6 5.8-9.4 3.9-4.6 8.6-5.8 14.1-6.6 2.8 0.7 5.5 1.6 7.7 3.9 3.6 3.9 3.9 9.2 5.7 13.9 1.5 4.4 4.4 7 8.6 8.9 11.7 5.3 24.8 3.8 37.2 5.9 1.3 2.2 3.4 4 5.1 5.8l2.8 2.8c-16.2-0.8-32.5-0.8-48.6-1.2-11.7-0.3-23.4-0.3-35.3-0.3-11.2 0.1-23-0.7-34.2 0.7zm0.9-68.3c4.3-7.8 8.4-15.8 13.3-23.2 4.4-6.7 10.1-12.8 14.6-19.5 12.1 7.1 26.4 11 40.4 12.9-11 15.5-18.2 36-20.7 54.7-3.1 0.1-5.8 1.1-8.1 2.6-16.6-1.6-34.5-1.6-50.9 0.8 2.9-9.9 6.4-19.3 11.4-28.3zm-0.2-45.4c2.4-0.1 4.9 0 7.1 0.8 2.7 0.9 4.2 2.8 6.3 4.4-1.3 2.3-2.7 4.7-3.8 7.1-0.4-2.2-3.8-3.9-5.5-4.6-2.6-0.9-5.8-1.2-8.4 0.1 1.2-2.3 2.5-5.1 4.3-7.8zm21.5-1.7c0.8 0.5 1.6 1.1 2.4 1.6 0.7 0.4 1.3 0.9 2 1.3-7.5 9.2-14.1 18.6-20.2 28.6 4.1-11 8.9-21.8 15.8-31.5zm-26.3 10.8h0.3c2.7-0.7 5.3-0.9 7.8 0 1.2 0.4 2.6 1.1 3.6 1.9 0.8 0.7 1.3 1.6 2.2 2.2-1.5 3-2.7 6.1-3.9 9.2-1.2-1.5-3.8-2.7-4.9-3.1-2.8-1.2-6.3-0.8-9.3 0.3 0.9-3 2.2-5.9 3.4-8.8 0.3-0.6 0.6-1.1 0.8-1.7zm-4.5 11.7c2.8-0.5 5.8-1.5 8.6-0.5 1.1 0.4 2.3 0.9 3.2 1.6s1.3 1.3 2 2c-1.2 3.2-2.4 6.5-3.5 9.8-1.3-1.6-4-2.4-5.7-2.8-2.2-0.4-5.1-0.5-7.3 0.4 0.8-3.5 1.6-7.1 2.7-10.5zm-3 12.3c2.3-0.9 4.9-1.1 7.1-0.5 2.6 0.5 3.9 1.5 5.4 3.2-0.8 2.3-1.5 4.4-2.2 6.7-0.1 0.3-0.1 0.4-0.1 0.7-0.7 1.2-1.2 2.3-1.9 3.5 0 0.1-0.1 0.1-0.1 0.3-1.5-1.1-3-2.4-4.9-2.3-1.5 0-2.8 0.7-4.2 1.2 0-4.3 0.2-8.6 0.9-12.8zm121.7 69.7c-13.1-3.6-34.5 3-42-10.9-2.8-5.3-2.7-11.6-6.9-16.2 9.3 0.7 18.6 1.1 27.9 2 7.3 0.7 15.1 3 22.5 3.1-1.3 7.4-1.7 14.7-1.5 22zm1.7-24.3c-5.9-2.3-15.2-1.9-20.7-2.6-10.5-1.1-21.4-2.7-31.9-2.2-1.5-1.1-3.1-1.9-4.9-2.4-0.1-0.3-0.4-0.5-0.8-0.7-1.1-0.3-2-0.3-3-0.4 3.1-8.9 4.7-18.2 7.8-26.9 3.4-9.8 8.8-18.2 13.2-27.5 4 0.5 7.9 0.8 11.9 1.1 17.6 0.9 37.5-0.4 54.7-5.8-2.2 2.6-4 5.5-5.7 8.1-5 7.7-8.9 15.8-11.9 24.4-3.7 11.1-6.9 22.9-8.7 34.9zm9.3 35c-0.9-1.2-2.3-2.4-3.2-3.4-1.9-1.9-3.8-3.9-5.7-5.9 0-0.1-0.1-0.4-0.1-0.5 1.2-18.5 4.2-36.1 9.7-53.9 2.6-8.1 5.5-16 9.8-23.4 3.2-5.7 7.5-13.9 13.2-17.5-7.3 12.4-9.8 27.8-12.8 41.5-4.6 21-7.7 42.1-10.9 63.1zm-105.4-122.4c0.8 2.2 2.4 3.9 4.3 5.5l-0.1 0.1c-0.3 0.4-0.5 0.8-0.9 1.2-0.4-2.3-2.7-4.6-4.3-5.7-1.5-0.9-3.1-1.8-4.9-1.9 1.9-0.6 3.8-0.4 5.9 0.8zm-8.3 0.8c2.3-0.5 4.9 0.4 6.7 1.9 0.9 0.7 1.8 1.6 2.6 2.4 0.8 0.9 1.1 2 1.3 3-1.2 1.8-2.4 3.6-3.5 5.5-1.2-5-8.2-6.7-13.1-6.1 1.8-2.7 3.7-5.2 6-6.7zm-52.6 0.1c-5.3 18.9-22.4 28.3-41 29-1.3-3.4-2.4-6.7-3.5-10.2 15.4 1.5 35-8.6 39.3-24.1 1.6 1.8 3.4 3.6 5.2 5.3zm-30.1-53.3c-0.8-4-1.5-9.2-1.1-14 5-3.1 15.5-3.1 18.9 2.4-0.1 2.8-0.5 5.3-0.7 6.6-0.4 2.6-0.7 5.3-1.1 7.8-3.1-4.9-11.2-5.4-16-2.8zm6.4-27.7c10.1-4.7 11.7 5 11.5 13.5-4.4-4.4-13.3-4.4-18.7-1.9 0.6-5 2.7-9.4 7.2-11.6zm-56.7 41c1.8 2.7 4.3 4.9 7.4 6.3-3.1 2.3-3.4 7.4-1.8 11-1.3-0.5-2.7-1.3-4-2.2-4.4-3-9.7-11.9-1.6-15.1zm11.7-11.6 0.4 0.4c3.4 1.5 7.1 1.5 10.8 1.9-3.9 3.4-4.3 10.5-2 14.8-5 0.7-10.5 0-14.6-2.7-0.8-0.5-1.5-1.2-2.2-1.8-2.2-5.2 1.8-13.7 7.6-12.6zm11.1 39.3c0-0.1-0.1-0.4-0.3-0.5-2-1.5-2-4.7-0.9-6.7 3.4-0.8 6.6-2.2 9.3-3.8 1.9 5-2.3 9-8.1 11zm-6.6 9.1c-0.9-1.5-0.8-3 0-4.6 3.5 0 7.1-0.8 10.4-2.4-0.6 4.8-5.4 7-10.4 7zm-8.2-18.8c-2.3-2.8-2.4-8.9 1.1-10.8 0.1 0 0.3 0 0.4-0.1 0.9 0.3 1.9 0.7 3 0.8 2.4 0.4 6.2 0.4 10.1-0.3-1.6 3.2-1.6 6.9 0.7 9.7-3.1 1.1-6.5 1.5-9.6 1.5-2 0.2-3.8-0.1-5.7-0.8 0.1 0.2 0.1 0.2 0 0zm1.4 10.6c-1.1-2-1.8-5.5 0-7.1 2.8 0.4 6.3 0.3 10.1-0.5-0.8 2.6-0.4 5.5 1.6 7.4-3.7 0.8-7.9 1-11.7 0.2zm21.6-15.8c-1.3 1.3-3 2.4-4.6 3.4-0.5 0.3-0.9 0.5-1.5 0.8-2.6-2.8-2.3-6.5-0.1-9.6 3.5-0.8 6.7-2.2 8.9-4.3 0.8 3.1-0.7 7.5-2.7 9.7zm-6.7-8c-0.5 0.1-1.1 0.3-1.6 0.4 0-0.1 0-0.1-0.1-0.3-2.3-4-1.6-11.6 2.8-13.9 1.3 0.3 2.7 0.7 3.9 1.2 8.2 4.2 0.9 10.9-5 12.6zm-24 12.8c2.3 1.6 5 2.8 7.4 3.4-1.1 1.9-0.9 4.6-0.3 6.9-4.3-1.6-7.2-4.9-7.1-10.3zm4 11.1c3.5 1.9 7.4 3.1 10.1 3.4-0.7 1.5-0.7 3.1-0.1 4.4-5.5-0.4-10.6-3.4-10-7.8zm16.6 10.2c2.4-0.7 4.6-2 6.2-4s3-4.6 2-6.9c0.9-0.7 1.9-1.5 2.6-2.4 2.3-2.8 3.8-7.7 1.5-10.8 4.4-3.6 6.3-8.6 2.6-14.8 0.7-1.5 0.8-3.1 0.4-5.1-1.9-8.6-17.1-6.2-23.2-8.5-0.4-0.1-0.7 0-0.9 0.1-5.8-1.1-10.4 5.3-10.2 11-3.8-7.1 0.3-16.7 9.6-18.1 8.1-1.2 13.7 3.4 20.5 7.1 4.9 2.8 12.7 5.5 17.8 2 0.4 0.1 0.8-0.1 0.8-0.5 4.7-2.7 13.6-2.2 15.1 3.8 0 0.3 0.1 0.4 0.3 0.4-0.3 1.9-0.4 3.8-0.5 5.7-0.3 7.3 0.3 14.1 2 20.5v0.1c-0.4 1.3-0.8 2.6-1.3 3.9-4.3-5.9-11.7-14.3-19.1-8.5-9.2 7-4.2 20.6-1.1 29.1 0 0 0 0.1 0.1 0.1-5.1 2.3-10.8 3.1-16.3 1.9-2.4-2-5.4-3.9-8.9-6.1zm26.4 3.8c-2.8-7.7-5.9-14.8-2.6-22.9 5.1-12.3 15.8-2 20.5 4.6-3.6 7.7-10.1 14.5-17.9 18.3zm-15.4 5.5c6.7 1.1 15.4-2.2 20.3-5.4 6.2-3.9 14.3-11.5 16.7-19.3 1.2 3 2.7 5.9 4.6 8.6-8.6 14.8-20.3 25.2-38.3 24.3-0.1-0.7-0.4-1.3-0.5-1.9-0.6-2.5-1.7-4.5-2.8-6.3zm48.7 55.5c-9.8-1.9-19.1-6.1-26.5-12.8 15.9-9.2 43.1-7 48.4 13.6-7.4 1.3-15.7 0.4-21.9-0.8zm24.5 0.3c-4.9-21.3-36.6-27.6-52.1-14-0.5-0.5-1.2-1.1-1.8-1.8-4.7-5-8.1-10.6-10.6-16.8 16.7 1.9 40.3-12.1 42.2-29.5 10.5 8.5 24.5 12.8 38 10.5-0.3 0.4-0.4 0.9-0.7 1.3-6.7 14-11.9 31.9-8.9 47.8-1.8 1.2-3.8 2-6.1 2.5zm8.2-8.9c3.1-0.7 6.1-1.8 8.9 0-2.3 4.4-4.3 9-6.1 13.7-1.6-4.3-2.5-9-2.8-13.7zm1.4 27.8c16.6-1.2 33 0 49.4-0.7-3.6 3.1-6.5 7.8-9.3 12.5-5.4 9.2-14.6 9-24.1 9.8-7.5 0.7-14.8 1.9-22.2 2.8 2.4-7.9 3.7-16.4 6.2-24.4zm-0.2 34.1c3.1 2.4 6.1 5.1 9.6 7 0.8 0.4 1.5 0 1.9-0.5 11.2 1.3 22.8 0.5 34 0.5 12.3 0 24.5 0 36.9 0.5 10.9 0.4 21.8 0.5 32.6 0.8 5.8 0.1 12.1 1.3 17.8 0.3 0.1 0 0.1 0 0.3-0.1 0.5 0.1 1.2-0.1 1.5-0.9 2.8-8.6 3-19 4.4-28 2-11.5 3.8-22.8 6.3-34.1 3.6-16.2 7.4-31.7 14.1-46.9v-0.3c4.9-2.2 8.9-4.9 9.4-10.8 0.3-3.8-1.3-7.4-4.4-9.4 10.4-6.2 19.7-13.7 27.3-23h0.1c8.6 3 17.6 3.8 26 7.9 3.5 1.8 6.7 3.8 9.6 6.2-5.5-0.4-8.8 1.9-12.8 7.3-6.1 8.2-8.9 17.8-10.5 27.8-1.3-0.5-2.7-1.1-4-1.6 5.7-12.3-10.2-23.6-21.6-18.7-16.4 6.9-21.6 28.7-22.1 44.6-0.7 17.8 1.8 37.5 16 49.6 5.5 4.7 13.1 8.5 19.1 7.3-0.5 2.4-0.4 5-0.8 7.3-0.5 2.7-1.2 5.4-1.5 8.2-16.7 9.3-37.3 13.7-55.9 17.6-18.5 3.9-36.5 3.2-55 4.6-3.4 0-6.7 0.1-10.1 0.1-8.2-0.3-16.3-0.1-24.5-0.7-9.3-0.5-18.6-2-27.9-3.5-6.3-0.9-12.7-3.4-19.1-3.4 0.4-6.1 0.3-12.1 0.7-18.2 0.7 1.1 1.7 1.8 2.6 2.5zm-7.2 25.1c0.1-1.5 0.1-2.8 0.4-4.3 0.1-0.7 0.3-1.5 0.8-2s1.1-0.7 1.8-0.8c2.6 0.4 5.3 0.8 7.8 1.3-1.1 1.8-1.3 4.2-1.5 6.1-0.1 1.8-0.4 5 0.4 7.1-1.9-0.4-3.6-0.8-5.5-1.3 0-0.1-0.1-0.1-0.3-0.1-1.1-0.7-3-0.7-3.6-1.6-0.7-1.1-0.3-3.1-0.3-4.4zm3.6 17.6c0-3.2 0.3-6.5-0.3-9.7h0.1c5.8 2.7 12.3 3.6 18.6 4.7 5.7 0.9 11.6 2.2 17.4 1.9 5.1 0.7 10.2 1.3 15.4 1.8-0.3 8.5 1.6 17 5.1 24.7-0.7-0.4-1.2-0.7-1.8-0.9-2.4-1.2-4.9-2-7.3-2.7-0.1-0.7-0.3-1.3-0.5-2 0-0.1-0.1-0.4-0.3-0.4-3.9-8.4-18.5-9.3-26-6.7-5.7-2.4-14-3-20.2-0.5 0.1-3.6-0.2-7-0.2-10.2zm-5.3 21.9c0.3-13.2 16.7-10.8 25.5-9.6 1.5 7.3 2 16.2-1.2 23v0.1c-2.6-1.2-6.6-0.7-9.3-0.5-2.8 0.1-6.3 0.7-8.4 2.8-0.7 0.7 0 2 0.9 1.8v0.5c-6.6-2-7.6-11.5-7.5-18.1zm24.4 74.3c6.6 2.6 13.9 0.9 20.7-0.7 7.5-1.8 20.1-7.4 27.9-4.7 7.4 2.6 2.6 12.9-0.9 16.8-3.4 3.8-8.9 5.7-13.6 7.3-7.5 2.7-17.4 3.8-25.1 0.8-1.1-2.2-2.3-4.4-3.2-6.6-2.1-4.5-4-8.6-5.8-12.9zm43.1 70.4c-0.3-0.1-0.5-0.1-0.8-0.1-1.9-2.7-3.6-5.3-5.5-7.8 20.1 5.9 48.1-6.1 48.4-28.7 1.9 2.6 3.9 5 5.8 7.5-2.8 10.6-5 21.3-15.6 26.9-8.8 4.6-23.1 7.6-32.3 2.2zm1.1 3.7c4 2 8.9 2.8 13.9 2.6-0.7 6.2-2.8 11.6-5.5 16.7-5.3 0.3-10.9 1.1-15.2 3.5 0.4-1.1 0.7-2.2 1.1-3.2 2.1-6.2 5.9-13.2 5.7-19.6zm-11.3 42.1c0.5-5.8 2-11.5 3.8-17 4.3-2.8 9.8-4.6 15.6-5.1-3.4 6.5-7.3 12.8-9.4 20.1-1.9 6.2-2.2 13.7 1.8 19.3-3.5 0.4-6.9 0-9.8-1.2-2.8-4.9-2.5-10.8-2-16.1zm26.7 21.8c-7.5 2.2-17.4 3.4-23-3 6.9 1.3 16-0.9 21.7-3.1 10.4-4 18.6-13.7 25.6-22 6.9-8.1 12.3-18.6 15-29 1.5-5.7 4.6-13.3 4.7-20.1 11.6 28.2-17.5 69.4-44 77.2zm40.8-83.3c0 0.3 0 0.7 0.3 0.9-0.5 16.7-7.1 34.5-15.8 48.5-4.9 7.8-11.7 14.4-18.9 20.1-4.9 3.9-12.7 7.8-20.2 8.9-7.9-13.5 1.6-26.3 8.4-39.3 10.5-0.5 21.3 3.2 25.1 12.5 0.1 0.4 0.9 0.4 0.9-0.1-1.1-9.4-13.9-13.2-21.7-13.2h-3.9c2.7-5.5 4.9-11 5-16.7 6.5-0.5 12.8-2.6 17.6-5.5 8.6-5.1 17.2-17 15.6-27.6 2.7 3.9 5.3 7.5 7.6 11.5zm-17.5-23.9c-0.3 0.1-0.5 0.4-0.5 0.8-1.9 12.4-8.1 22-20.5 26.3-8.5 3-19.4 3.9-28 0.4-3.2-4.4-6.3-8.9-9.4-13.5 8.5 4 21.3 2.7 29-0.3 10.4-4 20.5-12.7 22.2-23.8 2.3 3.5 4.8 6.7 7.2 10.1zm-21.6-41.5c2.7 8.6 6.5 17.2 10.8 25.2 0.5 0.9 1.1 1.9 1.6 2.8-2.7 12.1-12.1 22.5-24.4 25.5-9.7 2.3-18.9 0.4-28-2.7-3.8-5.7-7.3-11.5-10.6-17.5 13.2 5.1 29.5-1.9 39.1-11 5.1-4.9 8.2-14.3 0.4-18.6-6.5-3.5-16.4 0.4-23.2 1.6-5.1 0.9-10.2 2.4-15.5 3.1-5.4 0.7-8.5 0.1-13.3-1.8-2.4-6.1-4.4-12.1-6.1-18.6-2.7-11.5-4-23.3-6.7-34.8 2.2-0.7 4.3-1.1 6.7-1.2 2.3-0.1 5.5 0.5 7.5-0.5v0.1c1.8 3.4 5.5 4.3 9 4.9 4.4 0.7 9.2 1.3 13.6 0.8h0.1c6.7 3.1 13.5 4.9 20.1 8.6 5.4 3.1 10 6.6 14.4 10.6 0 0.1-0.1 0.3-0.1 0.4-0.2 7.2 2.6 16.4 4.6 23.1zm5.1-30.4c-0.1 1.3-0.7 2.6-1.3 3.6-1.1 1.9-2.7 2.8-4.2 4.2-4.3-7.1-12.3-12.5-20.6-16.3 0.4 0 0.7 0 1.1-0.1 3.4-0.5 7.1-3 7.7-6.5 2.2 2.2 4.6 4 7.1 5.8 0.4 1.3 0.8 2.8 1.5 4-0.3 0.5 0 1.2 0.7 1.5 2.6 0.9 5.3 1.6 7.9 2 0.1 0.7 0.1 1.2 0.1 1.8zm15.7-5c-7.5 2-14.4 0.5-21.8-0.5-3.4-9.3-1.6-23.3 9.3-26.8 13.1-4 22 10.5 25.7 20.9-4.2 2.7-8.1 5-13.2 6.4zm17.9-4.9c-1.5 1.2-1.2 0.7-1.9-0.5 0.1-0.3 0.3-0.5 0.3-0.8v-0.3-0.1c-0.3-1.6-0.8-3.4-1.3-5.1 0.7-3 0.9-5.9 1.3-8.9 2.4-3.9 4.6-8.2 7.7-11.6 0.9-0.9 2.7-2.3 4.6-3.8v0.9c0 6.3 6.3 7.5 11.3 6.3-4.4 3.1-8.5 6.6-12.1 10.9-2.3 2.8-4.7 5.7-6.7 8.6-1.2 1.3-2 3.3-3.2 4.4zm126.4 34c10.2 13.2 12 34.6 10.9 50.7-8.2-6.2-21.2-5.1-30.4-2.3-1.6 0.5-3.1 1.1-4.4 1.8-0.4-4-0.7-8.2-0.9-12.1 4.7-2.6 9-6.2 12.4-10 6.5-7.1 13.1-19.7 7.7-29.1 1.6 0.3 3.2 0.6 4.7 1zm-8.4 84.3c-10.4-7.5-13.9-20.1-15.4-32.7 1.3-0.7 3-1.2 4.7-1.8 10.1-3 20.3-2.3 29.9 2.2-1 14.7-7.5 26.4-19.2 32.3zm-17.4-33.4c-5.5 3-9.6 7.4-11.9 13.3-3-7-5-14.3-6.3-22.1 1.2 0 2.4 0 3.5-0.1 4.7 0.1 9.6-1.1 13.9-3.4 0.2 4 0.4 8.1 0.8 12.3zm-3.3 28.7c-3.1-4.6-5.8-9.3-7.9-14.1 3.2-5.8 6.3-10 11.6-12.9 0.7 5 1.8 10.1 3.1 14.4 2.2 7 5.9 14.3 12.1 18.3-3 1.3-6.3 2.3-10.1 3-3.3-2.1-6.3-4.9-8.8-8.7zm36.3-75.7c5.9 10.8 9.2 25.3 10 37.5 0.9 13.2 0.3 29.4-8.1 40.3-7.1 9.4-17.1 11.9-25.9 8.4 16.8-1.1 27.1-18.2 29.2-33.7 2.4-17.1 0.7-39.9-9.3-55.1 1.7 0.6 3.1 1.5 4.1 2.6zm-14.2-5.3c5.7 20.1-12.9 38.9-32.3 41.1-0.1 0-0.1-0.1-0.3-0.1-2.7-0.3-5.4-0.5-8.2-1.1 8.9-2 16.7-8.2 22.2-15.4s10.8-19.8 5.5-28.3c1.9 0.8 3.8 1.6 5.8 2.3 2.3 0.7 4.7 1.1 7.3 1.5zm-14.5-4.4c-0.1 0.1-0.1 0.3-0.1 0.4 4.3 21.7-13.1 39.6-33.4 42.7-4.7-0.9-9.6-2.2-14.3-3.6 21.3 0.3 46.5-24.1 38.3-45.1 2.9 2.1 6.2 4 9.5 5.6zm-11.5-7v0.1c0.8 13.3 0 22.6-10.2 32.2-9 8.4-20.6 13.5-33 11-0.4-0.1-0.7 0.1-0.9 0.3-7.7-3-15-6.6-21.2-11.2-9.7-7-17-15.1-20.2-26.8-2.4-8.8-2.4-18.1-4.9-26.8 0 0 0-0.1-0.1-0.1 3.4-3.9 6.1-8.9 9.3-12.5 4.4-5.1 10-9.3 15.4-13.5 3-1.2 5.9-2.8 8.9-4.2h0.4c6.5 3.5 16.7 2.3 22.9-1.3 0.4 0 0.8-0.1 0.9-0.4 0.1-0.1 0.1-0.3 0.3-0.4 2.4 0.8 5 1.2 7.5 1.3h1.1c-1.8 8.9 0 19 4 28-0.9 2.4-1.1 4.7-2 7.3-1.6 4.6-5.8 10.5-9.2 14-5.3 5.4-12.4 7.7-18.2 12.3-4.9 3.9-5.1 8.2 0.3 11.9 14.7 10 41.9-8.9 43.2-25.7l0.8 0.8c1.5 1.3 3.2 2.5 4.9 3.7zm-7.9-6.4c-1.8 10.2-9.7 18.5-18.5 23.7-5.1 3.1-11.6 5.5-17.5 3.8-1.2-0.4-5.5-2-5.8-3.4-0.9-3.4 4-8.5 6.6-10 6.1-3.6 11.5-6.7 15.9-12.4 4.6-5.8 6.3-10.9 8.2-17.6 2.9 6.1 6.8 11.6 11.1 15.9zm-13.4-38.6c-0.1-2.4-0.1-5 0.1-7.4 4.7 0.9 5-6.6 5.1-10.1 0.1-5.4 1.1-11.5-4.6-12.7 0.8-1.9 0.7-4.2 0.8-6.2 0.1-3.4 0.1-6.7 0.1-10.2 0 0 0.1 0 0.1-0.1l0.4-0.4c1.1-0.1 2-0.7 3-1.2-0.7 14.6 0.4 29.1 5.7 41.8-2.8 3.1-6.3 5.5-10.7 6.5zm11.7-8.1c-2.6-7.7-3.9-15.8-4.4-24.1 0.3 0.4 0.5 0.8 0.8 1.1 3 3.1 8.6 1.9 13.5-0.9-2.2 7.9-4.9 17.3-9.9 23.9zm22.2 4.7c-3.1 0.3-4.6-2.4-5.1-6.5 2.6 2.2 8.4 2.6 10.8 0.9-1.1 3.1-2.7 5.3-5.7 5.6zm14.3-14.9c2.6 1.9 5.8 1.8 8.8 0.5 1.2-0.5 3.4-1.6 4.6-3.1 0.7 2.6 1.3 5.3 1.8 7.7-1.1 1.5-2.2 2.7-4.3 3.5-3.1 1.2-5.9 0.3-8.8-1.1-0.7-1.9-1.1-3.9-1.5-5.5-0.3-0.7-0.5-1.4-0.6-2zm9.3 16.3c-3.2-0.4-5.1-3.2-6.5-6.3 2.8 1.5 6.3 1.5 9.2 0.3 0.9-0.4 2.3-1.1 3.4-2 0.2 4.9-1.1 8.6-6.1 8zm20.3-13.5c-2.8 3.2-7.3-1.9-8.8-3.8-0.5-0.7-0.9-1.3-1.3-2 2 0.1 4-0.7 5.7-2 1.2-0.9 2.6-2.6 3.1-4.2 0.8 2.2 1.3 4.3 1.6 6.5 0.3 1.4 0.8 4.1-0.3 5.5zm2.2-11.7c-0.5-1.6-1.2-3.2-2-4.9 1.5-0.4 2.8-1.3 3.8-2.7 0.4-0.5 0.8-1.3 1.1-2.3 2.5 3.5 4.8 8.4-2.9 9.9z"/>
		<path d="m280.8 295.8c3.9 0.7 7.4-3.4 7.7-6.9 0.1-1.9-0.8-3.8-2.3-4.7-0.9-0.5-2-0.7-3.4-0.3-2.7 0.9-5 3.2-5.4 5.9-0.3 2.7 0.6 5.5 3.4 6zm2.2-9.9c2.4-0.7 3.2 1.1 3.5 1.9 0.4 1.3-0.3 2.7-0.9 3.8-0.9 1.6-3.9 3.8-5.7 1.9-2.6-3 0.3-6.8 3.1-7.6z"/>
		<path d="m206.9 93.6c-3.4 0.3-5.1 4.4-3.6 7.3 1.1 2 3.8 2.3 5.7 1.2s2.7-3.5 2.3-5.5c-0.7-1.8-2.5-3-4.4-3zm-0.6 7.7c-3-0.1-2.4-5 0-5.7 1.5-0.4 3.1 0.5 3.2 2.2 0.3 1.8-1.2 3.6-3.2 3.5z"/>
		<path d="m204.2 114.4c-2.2 0.7-3.1 3.4-2.3 5.3 0.7 2 2.8 3.4 5 3.2 1.9-0.1 3.5-1.8 3.8-3.6 0.2-3.2-3.6-5.7-6.5-4.9zm1.9 7c-1.9-0.1-3.4-2-2.8-3.9 0.8-2.8 5.3-1.3 5.5 1.1 0.1 1.6-1.1 2.9-2.7 2.8z"/>
		<path d="m427 126c2-1.2 3-3.8 2.4-5.9-0.5-2-2.6-3.4-4.6-3.2-3.6 0.3-5.5 4.7-3.9 7.8 1.1 2.1 4.1 2.5 6.1 1.3zm-2.8-7c1.6-0.5 3.4 0.5 3.5 2.3 0.1 2-1.3 3.9-3.5 3.8-3.1-0.4-2.6-5.5 0-6.1z"/>
		<path d="m417.7 148.5c1.6 1.2 4 1.1 5.7-0.4 3-2.6 2-7.4-1.1-8.8-2.2-0.9-5 0.7-5.9 2.8-1 2.3-0.4 5 1.3 6.4zm1.6-7.2c2.8-1.9 5.1 2.6 3.5 4.9-1.1 1.5-3.1 1.8-4.3 0.4-1.3-1.5-1.1-4.1 0.8-5.3z"/>
		<path d="m259.8 375.5c-0.3-3.5-11.3-4-13.1-3.5-0.4 0.1-0.7 0.5-0.8 0.9 0 1.6 0.3 3.1 0.5 4.7 0.1 0.8 0 1.6 0.1 2.3-0.1 0.4-0.1 0.9-0.1 1.3 0 0.7-0.3 1.6-0.3 2.4-0.3 0.1-0.4 0.5-0.5 0.9-0.3 2.4-1.5 4.6-1.9 6.9-0.1 0.1-0.3 0.5-0.1 0.8 2.4 4.3 12.3 5 15.6 1.6 4.2-4.3 4-13.3 0.7-18.1 0.2-0.1 0-0.2-0.1-0.2zm-9.8 5.2c0.8 0.3 1.6 0.5 2.3 0.8 0.9 0.3 3.8 1.3 1.9 2.3-1.1 0.5-2.7 0.4-4.2 0.3 0.1-1.2 0.1-2.3 0-3.4zm8.5 10c-2.4 3.9-8.5 2.2-12.4 0.9 0.9-1.1 1.3-2.6 1.6-4 0.3 0.3 0.8 0.1 1.1 0 0.4-0.4 0.7-0.9 0.9-1.5 3 0.4 6.5 0.5 7.4-2 0.8-2-1.1-3.5-2.7-4.3-1.5-0.7-3-0.7-4.4-0.5v-0.1c0-0.7-0.4-0.9-0.9-1.1v-0.1c0-0.1-0.1-0.3-0.3-0.3-0.1-1.3-0.5-2.8-0.7-3.9 2.2-0.3 4.3 0.4 6.3 0.9 0.8 0.1 1.6 0.4 2.3 0.8 0.5 0.3 0.9 0.8 1.5 1.2 0.1 2.7 1.6 5.1 1.6 7.9 0 1.9-0.3 4.3-1.3 6.1z"/>
		<path class="st1" d="m255.9 125.1c6.6-7.5 9.4-20.2 12.8-29.4 5.3-14.4 12-26.1 22.5-37.3 3.1-3.2 10.2-9.7 7.1-15-4.7-7.9-22-3-28.3-0.8-0.4 0.1-0.5 0.5-0.5 0.8-18.9 8.4-31.1 30.7-35.4 50-2.2 9.6-3.5 23.8 3.4 31.9 5.5 6.6 13.2 5.8 18.4-0.2z"/>
		<path class="st1" d="m257.5 165.4c6.9-3.1 8.4-11.5 4.9-17.8-3.2-5.8-14.6-13.7-19.8-6.7-10.9 8.2 1.9 30.3 14.9 24.5z"/>
		<path class="st1" d="m360.2 189.3c8.1 0.7 15.9-6.3 21.6-11.3 7.7-6.9 13.3-13.2 14.3-23.8 0.1-0.9-0.7-1.3-1.3-1.3-1.6-5.8-13.1 0.8-15.8 3.2-6.9 6.1-15.4 10.1-22 16.6-5.6 5.4-7.1 15.8 3.2 16.6z"/>
		<path d="m396.3 360.4c-0.3-2.8-0.1-5.8-2-8.1 0-0.3 0-0.5-0.3-0.7-4-2.3-13.3-1.6-17 1.6-1.5 1.3-1.5 4-1.6 5.8-0.1 1.6 0 3.2 0.3 4.9 0.4 1.9 1.5 3.1 2.4 4.9 0 0.1 0.1 0.1 0.3 0.1l0.1 0.1c2.2 1.6 5 1.2 7.5 0.8 2.4-0.4 7.1-0.3 8.8-2.3 0.3-0.4 0.3-0.7 0.3-1.1 1.6-1.2 1.3-4.1 1.2-6zm-2.2-1.2c-1.1-0.1-2 0.1-3.2 0.4-1.1 0.1-5.1 0.7-5.5-0.4-0.4-1.2 5.8-1.1 8.6-1.1 0.1 0.3 0.1 0.7 0.1 1.1zm-15.3 9c-0.2 0-0.2 0 0 0-0.8-2-1.1-5.1-1.2-7.1-0.1-2.3-0.3-5.9 2-6.7s4.9-1.1 7.3-1.1c1.9 0 3.8 0.3 5.7 0 0.1 0.7 0.4 1.2 0.7 1.9 0.3 0.5 0.4 1.2 0.5 1.8-1.8-0.8-4-1.1-5.8-0.7-1.3 0.3-4.3 0.9-4.3 2.8 0 1.6 1.6 1.2 2.8 1.3 2.7 0.1 5.1 0.7 7.7-0.1v2.7c-0.1 0.9-0.4 1.9-0.5 3-4.6 1.8-10.2 1.9-14.9 2.2z"/>
		<path d="m268.2 230.9c1.8-0.7 3.2-2.2 3.8-3.9 0.5-2 0-4-1.3-5.5-0.8-0.8-1.8-1.3-2.8-1.6-3.9-0.8-7 2.7-7.1 6.3 0 1.1 0.3 2.3 0.9 3.2 1.3 1.8 4.3 2.2 6.5 1.5zm-4.1-7.3c1.1-0.9 3-1.3 4.3-0.9 2.2 0.8 2 3.5 0.7 4.9l-0.3 0.3c-1.6 1.2-5.4 1.9-5.9-0.7-0.4-1.3 0.3-2.9 1.2-3.6z"/>
		<path d="m283.8 234.8c1.8-0.7 3.2-2.2 3.8-3.9 0.5-2 0-4-1.3-5.5-0.8-0.8-1.8-1.3-2.8-1.6-3.9-0.8-7 2.7-7.1 6.3 0 1.1 0.3 2.3 0.9 3.2 1.4 1.8 4.3 2.3 6.5 1.5zm-4.2-7.3c1.1-0.9 3-1.3 4.3-0.9 2.2 0.8 2 3.5 0.7 4.9l-0.3 0.3c-1.6 1.2-5.4 1.9-5.9-0.7-0.3-1.1 0.4-2.8 1.2-3.6z"/>
		<path d="m241.9 271.5c8.2 0.4 17.1 2.2 25.3 1.9 2-0.1 3.2 0.3 4.9-1.5 2.3-2.6 3.8-9.3 4.9-12.4 2-5.7 4.4-11.5 6.1-17.2 0.4-1.3-0.8-2.2-1.9-2-7.8-2.3-16.4-1.9-24.4-3.4-0.5-0.1-1.1 0.1-1.3 0.5-4.7 4.4-7 11-9.7 16.8-2.4 5.1-4.7 9.7-5.4 15.4-0.4 1.1 0.7 1.9 1.5 1.9zm8.9-20.4c1.9-3.9 4.4-7.5 5.4-11.6 3.8 1.6 8.5 1.8 12.4 2.2 3.6 0.4 7.3 0.5 10.9 0.8-2.7 7.5-4.6 17.1-8.6 23.8-2.7 4.3-6.2 3-10.8 2.6-5.4-0.4-10.8-0.5-16.2-0.7 1.2-6 4.3-11.6 6.9-17.1z"/>
		<path class="st1" d="m256.7 255.6c2.2-1.6 3.4-3.9 5.5-5.4 0.8 5.5 0.5 11.5 2.4 16.7 0.4 0.9 1.3 1.2 2 0.5 2.2-1.8 2.8-5.1 3.6-7.7 1.3-4.2 3.9-7.9 3.9-12.4 0-0.8-1.1-1.1-1.6-0.4-1.9 3.1-3.2 6.7-4.2 10.1-0.5 1.9-0.8 4.6-1.9 6.6-0.8-5.3-0.8-10.6-2.3-15.8-0.3-0.8-1.1-1.1-1.8-0.7-2.4 1.3-4 3.5-6.1 5.3-0.4-2-0.1-4.3-0.1-6.2 0-1.6-2.4-1.6-2.4 0-0.1 3-0.5 6.2 0.8 9 0.5 0.9 1.5 0.8 2.2 0.4z"/>
		<path d="m314 261.8c-1.9-0.8-4.7-0.7-6.5-0.8-2.4-0.1-5.4-0.7-7.8 0.3-0.5-0.3-1.1-0.1-1.3 0.5-1.1 4-2.8 8.6-2.3 12.8 0 0.3 0.1 0.4 0.3 0.5 0 0.3 0 0.5 0.4 0.7 2.3 1.1 4.9 0.8 7.3 0.9 2.8 0.1 5.5 0.4 8.4-0.1 0.4 0 0.7-0.4 0.7-0.8 1.3-4 1.8-8.5 2.7-12.5 0.1-1.3-1.1-1.9-1.9-1.5zm-9.3 12.5c-2-0.1-4.3-0.4-6.5-0.1 0.3-3.8 1.1-7.4 1.9-11 2.3 0.7 5.1 0.3 7.4 0.4 1.6 0.1 3.6 0.8 5.4 0.7-0.8 3.4-1.5 7-1.3 10.4-2.3-0.4-4.6-0.4-6.9-0.4z"/>
		<path d="m318.8 246c-1.9-0.9-4.3-0.9-6.5-1.2-2.3-0.3-5-0.7-7.1 0.1-0.4-0.1-0.8-0.1-0.9 0.3-1.3 3.1-2.7 6.3-3.8 9.6-0.1 0.4 0 0.7 0.3 0.8 0 0.3 0.3 0.5 0.5 0.7 2.3 0.9 5.5 0.5 8.1 0.9 1.8 0.3 4 0.9 5.9 0.7 0.7 0.5 1.8 0.4 2-0.5 0.9-3.4 2-6.6 3.1-10 0.4-1-0.6-1.7-1.6-1.4zm-3.6 9.6c-1.8-0.7-4.2-0.7-5.9-0.8-2.2-0.3-4.7-0.7-6.9-0.1 0.8-2.7 1.9-5.3 3-7.8 2 0.5 4.4 0.3 6.6 0.5 1.8 0.1 3.8 0.8 5.7 0.9-1 2.3-1.8 4.8-2.5 7.3z"/>
		<path d="m327 230c0.5-0.3 0.4-0.9 0-1.2-2-1.2-5-0.9-7.3-1.1-2.2-0.1-4.6-0.5-6.6 0.3-0.3 0-0.5 0-0.8 0.3-3 2.3-4.3 6.5-5.3 10v0.4c-0.3 0.3-0.4 0.9 0.1 1.1 2.3 0.9 5.1 0.7 7.5 0.9 1.8 0.1 4 0.9 5.9 0.8 0.5 0.5 1.8 0.5 2.2-0.4 1.3-3.6 3-7.1 4.2-10.6 0.1-0.3 0.1-0.4 0.1-0.5zm-6 8.9c-1.8-0.7-4.2-0.5-5.8-0.8-1.8-0.1-3.9-0.5-5.8-0.4 1.2-2.8 2.2-5.7 4-8.1 2.2 0.7 4.7 0.4 6.9 0.7 1.3 0.1 2.8 0.4 4.3 0.4-1.5 2.6-2.5 5.5-3.6 8.2z"/>
		<path d="m340.4 261.9c-0.1 0-0.1-0.1-0.3-0.1-2-0.8-4.6-0.9-6.7-1.1-2-0.1-4.3-0.3-6.3 0-0.4-0.1-0.8 0-1.1 0.4-0.1 0.1-0.1 0.3-0.1 0.4-1.2 4.4-3.2 9.7-2.7 14.4-0.3 0.5 0 1.3 0.7 1.5 2 0.7 4.2 0.4 6.2 0.5 2.2 0.1 4.3 0.5 6.5 0.8 0.3 0.3 0.8 0.4 1.2-0.1 1.2-1.9 1.3-4 1.6-6.2 0.4-3.1 1.1-6.1 1.8-9.2 0.1-0.6-0.3-1-0.8-1.3zm-14.8 13.3c1.1-3.9 1.5-8.1 2.3-12.1 1.8 0.3 3.6 0.3 5.3 0.4 1.9 0.1 3.6 0.4 5.4 0.7-0.8 4-1.3 8.1-1.9 12.1-1.9-0.7-4-0.8-6.1-0.8-1.7-0.3-3.4-0.4-5-0.3z"/>
		<path d="m351.2 229.3v0c-2.2-0.8-4.6-0.8-6.7-0.8s-4.6-0.1-6.6 0.4c-0.7 0.1-0.9 0.8-0.7 1.3-5.1 7.1-6.7 16-9.3 24.1-0.1 0.7 0.3 1.1 0.8 1.1 0.1 0 0.1 0.1 0.3 0.1 2 0.7 4.2 0.4 6.2 0.5 1.9 0.1 3.8 0.4 5.7 0.7 0.5 0.8 2 0.9 2.2-0.3 2-9.2 5.7-17.4 9.2-26 0.1-0.4-0.5-1.1-1.1-1.1zm-9.9 24.9c-1.9-0.5-3.9-0.7-5.8-0.8s-3.8-0.3-5.7 0c1.9-7.8 4.6-15.2 8.1-22.5 2 0.5 4 0.3 6.2 0.3 1.8 0 3.4 0.3 5 0.4-1.8 3-3 6.3-3.8 9.6-0.9 4.4-2.4 8.7-4 13z"/>
		<path d="m313.4 386.4c-2.3-0.8-4.9 0.9-5.8 3.2s-0.1 5 1.8 6.2c1.6 1.2 4.2 0.8 5.7-0.8 2.8-2.6 1.6-7.4-1.7-8.6zm0.8 6.7c-1.1 1.5-3.1 1.9-4.2 0.7-1.3-1.5-1.3-4 0.4-5.4 2.9-2 5.5 2.3 3.8 4.7z"/>
	

</svg>
