<?xml version="1.0" standalone="no"?>
<!DOCTYPE svg PUBLIC "-//W3C//DTD SVG 20010904//EN"
 "http://www.w3.org/TR/2001/REC-SVG-20010904/DTD/svg10.dtd">
<svg version="1.0" xmlns="http://www.w3.org/2000/svg"
 width="300.000000pt" height="300.000000pt" viewBox="0 0 300.000000 300.000000"
 preserveAspectRatio="xMidYMid meet">
<metadata>
Created by potrace 1.14, written by Peter Selinger 2001-2017
</metadata>
<g transform="translate(0.000000,300.000000) scale(0.100000,-0.100000)"
fill="#000000" stroke="none">
<path d="M320 1500 l0 -1180 1180 0 1180 0 0 1180 0 1180 -1180 0 -1180 0 0
-1180z m2220 0 l0 -1040 -1040 0 -1040 0 0 1040 0 1040 1040 0 1040 0 0 -1040z"/>
<path d="M840 1500 l0 -531 278 3 c261 3 280 5 334 26 118 48 213 170 253 327
20 79 20 281 0 360 -38 148 -119 254 -235 309 l-65 31 -282 3 -283 3 0 -531z
m562 367 c65 -32 106 -81 140 -167 19 -47 22 -75 22 -190 1 -115 -3 -145 -22
-201 -32 -92 -71 -142 -140 -176 -55 -27 -64 -28 -234 -32 l-178 -3 0 402 0
402 178 -4 c170 -3 179 -4 234 -31z"/>
<path d="M2010 1500 l0 -530 75 0 75 0 0 530 0 530 -75 0 -75 0 0 -530z"/>
</g>
</svg>
